<mxfile host="app.diagrams.net" agent="Mozilla/5.0 (Windows NT 10.0; Win64; x64) AppleWebKit/537.36 (KHTML, like Gecko) Chrome/139.0.0.0 Safari/537.36" version="28.1.2" pages="5">
  <diagram name="Algo" id="V0WDtm5OCkZCwaTn6wmb">
    <mxGraphModel dx="1106" dy="605" grid="1" gridSize="10" guides="1" tooltips="1" connect="1" arrows="1" fold="1" page="1" pageScale="1" pageWidth="850" pageHeight="1100" math="0" shadow="0">
      <root>
        <mxCell id="0" />
        <mxCell id="1" parent="0" />
        <mxCell id="SwKolqAlQwYtQp0SGR7i-1" value="Linked List" style="text;html=1;align=center;verticalAlign=middle;resizable=0;points=[];autosize=1;strokeColor=none;fillColor=none;" parent="1" vertex="1">
          <mxGeometry x="120" y="28" width="80" height="30" as="geometry" />
        </mxCell>
        <mxCell id="SwKolqAlQwYtQp0SGR7i-5" style="edgeStyle=orthogonalEdgeStyle;rounded=0;orthogonalLoop=1;jettySize=auto;html=1;" parent="1" source="SwKolqAlQwYtQp0SGR7i-2" edge="1">
          <mxGeometry relative="1" as="geometry">
            <mxPoint x="260" y="100" as="targetPoint" />
          </mxGeometry>
        </mxCell>
        <mxCell id="SwKolqAlQwYtQp0SGR7i-2" value="" style="whiteSpace=wrap;html=1;" parent="1" vertex="1">
          <mxGeometry x="80" y="80" width="120" height="40" as="geometry" />
        </mxCell>
        <mxCell id="SwKolqAlQwYtQp0SGR7i-3" value="" style="whiteSpace=wrap;html=1;" parent="1" vertex="1">
          <mxGeometry x="80" y="80" width="60" height="40" as="geometry" />
        </mxCell>
        <mxCell id="SwKolqAlQwYtQp0SGR7i-4" value="data" style="text;html=1;align=center;verticalAlign=middle;whiteSpace=wrap;rounded=0;" parent="1" vertex="1">
          <mxGeometry x="80" y="80" width="60" height="30" as="geometry" />
        </mxCell>
        <mxCell id="SwKolqAlQwYtQp0SGR7i-12" style="edgeStyle=orthogonalEdgeStyle;rounded=0;orthogonalLoop=1;jettySize=auto;html=1;" parent="1" source="SwKolqAlQwYtQp0SGR7i-6" edge="1">
          <mxGeometry relative="1" as="geometry">
            <mxPoint x="450" y="100" as="targetPoint" />
          </mxGeometry>
        </mxCell>
        <mxCell id="SwKolqAlQwYtQp0SGR7i-6" value="" style="whiteSpace=wrap;html=1;" parent="1" vertex="1">
          <mxGeometry x="260" y="80" width="120" height="40" as="geometry" />
        </mxCell>
        <mxCell id="SwKolqAlQwYtQp0SGR7i-7" value="" style="whiteSpace=wrap;html=1;" parent="1" vertex="1">
          <mxGeometry x="260" y="80" width="60" height="40" as="geometry" />
        </mxCell>
        <mxCell id="SwKolqAlQwYtQp0SGR7i-8" value="data" style="text;html=1;align=center;verticalAlign=middle;whiteSpace=wrap;rounded=0;" parent="1" vertex="1">
          <mxGeometry x="250" y="80" width="60" height="30" as="geometry" />
        </mxCell>
        <mxCell id="SwKolqAlQwYtQp0SGR7i-16" style="edgeStyle=orthogonalEdgeStyle;rounded=0;orthogonalLoop=1;jettySize=auto;html=1;" parent="1" source="SwKolqAlQwYtQp0SGR7i-9" edge="1">
          <mxGeometry relative="1" as="geometry">
            <mxPoint x="620" y="100" as="targetPoint" />
          </mxGeometry>
        </mxCell>
        <mxCell id="SwKolqAlQwYtQp0SGR7i-9" value="" style="whiteSpace=wrap;html=1;" parent="1" vertex="1">
          <mxGeometry x="450" y="80" width="120" height="40" as="geometry" />
        </mxCell>
        <mxCell id="SwKolqAlQwYtQp0SGR7i-10" value="" style="whiteSpace=wrap;html=1;" parent="1" vertex="1">
          <mxGeometry x="450" y="80" width="60" height="40" as="geometry" />
        </mxCell>
        <mxCell id="SwKolqAlQwYtQp0SGR7i-11" value="data" style="text;html=1;align=center;verticalAlign=middle;whiteSpace=wrap;rounded=0;" parent="1" vertex="1">
          <mxGeometry x="440" y="80" width="60" height="30" as="geometry" />
        </mxCell>
        <mxCell id="SwKolqAlQwYtQp0SGR7i-13" value="0X11" style="text;html=1;align=center;verticalAlign=middle;resizable=0;points=[];autosize=1;strokeColor=none;fillColor=none;" parent="1" vertex="1">
          <mxGeometry x="105" y="118" width="50" height="30" as="geometry" />
        </mxCell>
        <mxCell id="SwKolqAlQwYtQp0SGR7i-14" value="0X33" style="text;html=1;align=center;verticalAlign=middle;resizable=0;points=[];autosize=1;strokeColor=none;fillColor=none;" parent="1" vertex="1">
          <mxGeometry x="295" y="128" width="50" height="30" as="geometry" />
        </mxCell>
        <mxCell id="SwKolqAlQwYtQp0SGR7i-15" value="0X100" style="text;html=1;align=center;verticalAlign=middle;resizable=0;points=[];autosize=1;strokeColor=none;fillColor=none;" parent="1" vertex="1">
          <mxGeometry x="470" y="128" width="60" height="30" as="geometry" />
        </mxCell>
        <mxCell id="SwKolqAlQwYtQp0SGR7i-17" value="Null" style="text;html=1;align=center;verticalAlign=middle;resizable=0;points=[];autosize=1;strokeColor=none;fillColor=none;" parent="1" vertex="1">
          <mxGeometry x="620" y="88" width="40" height="30" as="geometry" />
        </mxCell>
        <mxCell id="SwKolqAlQwYtQp0SGR7i-19" style="edgeStyle=orthogonalEdgeStyle;rounded=0;orthogonalLoop=1;jettySize=auto;html=1;entryX=0;entryY=0.75;entryDx=0;entryDy=0;" parent="1" source="SwKolqAlQwYtQp0SGR7i-18" target="SwKolqAlQwYtQp0SGR7i-4" edge="1">
          <mxGeometry relative="1" as="geometry" />
        </mxCell>
        <mxCell id="SwKolqAlQwYtQp0SGR7i-18" value="Head" style="text;html=1;align=center;verticalAlign=middle;resizable=0;points=[];autosize=1;strokeColor=none;fillColor=none;" parent="1" vertex="1">
          <mxGeometry x="20" y="140" width="50" height="30" as="geometry" />
        </mxCell>
        <mxCell id="SwKolqAlQwYtQp0SGR7i-20" value="&amp;nbsp; &amp;nbsp; &amp;nbsp; &amp;nbsp; &amp;nbsp; &amp;nbsp; &amp;nbsp; &amp;nbsp;next" style="whiteSpace=wrap;html=1;" parent="1" vertex="1">
          <mxGeometry x="190" y="270" width="120" height="40" as="geometry" />
        </mxCell>
        <mxCell id="SwKolqAlQwYtQp0SGR7i-21" value="" style="whiteSpace=wrap;html=1;" parent="1" vertex="1">
          <mxGeometry x="190" y="270" width="60" height="40" as="geometry" />
        </mxCell>
        <mxCell id="SwKolqAlQwYtQp0SGR7i-22" value="data" style="text;html=1;align=center;verticalAlign=middle;whiteSpace=wrap;rounded=0;" parent="1" vertex="1">
          <mxGeometry x="200" y="275" width="40" height="30" as="geometry" />
        </mxCell>
        <mxCell id="SwKolqAlQwYtQp0SGR7i-23" value="prev" style="whiteSpace=wrap;html=1;" parent="1" vertex="1">
          <mxGeometry x="140" y="270" width="50" height="40" as="geometry" />
        </mxCell>
        <mxCell id="SwKolqAlQwYtQp0SGR7i-24" style="edgeStyle=orthogonalEdgeStyle;rounded=0;orthogonalLoop=1;jettySize=auto;html=1;" parent="1" source="SwKolqAlQwYtQp0SGR7i-25" edge="1">
          <mxGeometry relative="1" as="geometry">
            <mxPoint x="450" y="470" as="targetPoint" />
          </mxGeometry>
        </mxCell>
        <mxCell id="SwKolqAlQwYtQp0SGR7i-25" value="" style="whiteSpace=wrap;html=1;" parent="1" vertex="1">
          <mxGeometry x="270" y="450" width="120" height="40" as="geometry" />
        </mxCell>
        <mxCell id="SwKolqAlQwYtQp0SGR7i-26" value="" style="whiteSpace=wrap;html=1;" parent="1" vertex="1">
          <mxGeometry x="270" y="450" width="60" height="40" as="geometry" />
        </mxCell>
        <mxCell id="SwKolqAlQwYtQp0SGR7i-27" value="5" style="text;html=1;align=center;verticalAlign=middle;whiteSpace=wrap;rounded=0;" parent="1" vertex="1">
          <mxGeometry x="270" y="450" width="60" height="30" as="geometry" />
        </mxCell>
        <mxCell id="SwKolqAlQwYtQp0SGR7i-29" value="null" style="text;html=1;align=center;verticalAlign=middle;resizable=0;points=[];autosize=1;strokeColor=none;fillColor=none;" parent="1" vertex="1">
          <mxGeometry x="450" y="448" width="40" height="30" as="geometry" />
        </mxCell>
        <mxCell id="SwKolqAlQwYtQp0SGR7i-38" style="edgeStyle=orthogonalEdgeStyle;rounded=0;orthogonalLoop=1;jettySize=auto;html=1;" parent="1" source="SwKolqAlQwYtQp0SGR7i-30" edge="1">
          <mxGeometry relative="1" as="geometry">
            <mxPoint x="210" y="540" as="targetPoint" />
          </mxGeometry>
        </mxCell>
        <mxCell id="SwKolqAlQwYtQp0SGR7i-41" style="edgeStyle=orthogonalEdgeStyle;rounded=0;orthogonalLoop=1;jettySize=auto;html=1;" parent="1" source="SwKolqAlQwYtQp0SGR7i-30" edge="1">
          <mxGeometry relative="1" as="geometry">
            <mxPoint x="280" y="660" as="targetPoint" />
          </mxGeometry>
        </mxCell>
        <mxCell id="SwKolqAlQwYtQp0SGR7i-30" value="5" style="whiteSpace=wrap;html=1;" parent="1" vertex="1">
          <mxGeometry x="280" y="560" width="40" height="40" as="geometry" />
        </mxCell>
        <mxCell id="SwKolqAlQwYtQp0SGR7i-40" style="edgeStyle=orthogonalEdgeStyle;rounded=0;orthogonalLoop=1;jettySize=auto;html=1;" parent="1" source="SwKolqAlQwYtQp0SGR7i-31" edge="1">
          <mxGeometry relative="1" as="geometry">
            <mxPoint x="340" y="530" as="targetPoint" />
          </mxGeometry>
        </mxCell>
        <mxCell id="SwKolqAlQwYtQp0SGR7i-31" value="6" style="whiteSpace=wrap;html=1;" parent="1" vertex="1">
          <mxGeometry x="320" y="560" width="40" height="40" as="geometry" />
        </mxCell>
        <mxCell id="SwKolqAlQwYtQp0SGR7i-32" value="7" style="whiteSpace=wrap;html=1;" parent="1" vertex="1">
          <mxGeometry x="360" y="560" width="40" height="40" as="geometry" />
        </mxCell>
        <mxCell id="SwKolqAlQwYtQp0SGR7i-33" value="8" style="whiteSpace=wrap;html=1;" parent="1" vertex="1">
          <mxGeometry x="400" y="560" width="40" height="40" as="geometry" />
        </mxCell>
        <mxCell id="SwKolqAlQwYtQp0SGR7i-36" style="edgeStyle=orthogonalEdgeStyle;rounded=0;orthogonalLoop=1;jettySize=auto;html=1;" parent="1" source="SwKolqAlQwYtQp0SGR7i-34" edge="1">
          <mxGeometry relative="1" as="geometry">
            <mxPoint x="510" y="550" as="targetPoint" />
          </mxGeometry>
        </mxCell>
        <mxCell id="SwKolqAlQwYtQp0SGR7i-34" value="9" style="whiteSpace=wrap;html=1;" parent="1" vertex="1">
          <mxGeometry x="440" y="560" width="40" height="40" as="geometry" />
        </mxCell>
        <mxCell id="SwKolqAlQwYtQp0SGR7i-37" value="rear" style="text;html=1;align=center;verticalAlign=middle;resizable=0;points=[];autosize=1;strokeColor=none;fillColor=none;" parent="1" vertex="1">
          <mxGeometry x="490" y="498" width="40" height="30" as="geometry" />
        </mxCell>
        <mxCell id="SwKolqAlQwYtQp0SGR7i-39" value="front" style="text;html=1;align=center;verticalAlign=middle;resizable=0;points=[];autosize=1;strokeColor=none;fillColor=none;" parent="1" vertex="1">
          <mxGeometry x="315" y="510" width="50" height="30" as="geometry" />
        </mxCell>
        <mxCell id="CwgE0OJDXyVaKxsBkRuX-6" style="rounded=0;orthogonalLoop=1;jettySize=auto;html=1;" parent="1" source="CwgE0OJDXyVaKxsBkRuX-1" target="CwgE0OJDXyVaKxsBkRuX-2" edge="1">
          <mxGeometry relative="1" as="geometry" />
        </mxCell>
        <mxCell id="CwgE0OJDXyVaKxsBkRuX-7" style="rounded=0;orthogonalLoop=1;jettySize=auto;html=1;" parent="1" source="CwgE0OJDXyVaKxsBkRuX-1" target="CwgE0OJDXyVaKxsBkRuX-3" edge="1">
          <mxGeometry relative="1" as="geometry" />
        </mxCell>
        <mxCell id="CwgE0OJDXyVaKxsBkRuX-1" value="1" style="text;html=1;align=center;verticalAlign=middle;resizable=0;points=[];autosize=1;strokeColor=none;fillColor=none;" parent="1" vertex="1">
          <mxGeometry x="305" y="718" width="30" height="30" as="geometry" />
        </mxCell>
        <mxCell id="CwgE0OJDXyVaKxsBkRuX-2" value="2" style="text;html=1;align=center;verticalAlign=middle;resizable=0;points=[];autosize=1;strokeColor=none;fillColor=none;" parent="1" vertex="1">
          <mxGeometry x="255" y="758" width="30" height="30" as="geometry" />
        </mxCell>
        <mxCell id="CwgE0OJDXyVaKxsBkRuX-3" value="3" style="text;html=1;align=center;verticalAlign=middle;resizable=0;points=[];autosize=1;strokeColor=none;fillColor=none;" parent="1" vertex="1">
          <mxGeometry x="345" y="758" width="30" height="30" as="geometry" />
        </mxCell>
        <mxCell id="CwgE0OJDXyVaKxsBkRuX-4" value="4" style="text;html=1;align=center;verticalAlign=middle;resizable=0;points=[];autosize=1;strokeColor=none;fillColor=none;" parent="1" vertex="1">
          <mxGeometry x="190" y="808" width="30" height="30" as="geometry" />
        </mxCell>
        <mxCell id="CwgE0OJDXyVaKxsBkRuX-5" value="5" style="text;html=1;align=center;verticalAlign=middle;resizable=0;points=[];autosize=1;strokeColor=none;fillColor=none;" parent="1" vertex="1">
          <mxGeometry x="285" y="820" width="30" height="30" as="geometry" />
        </mxCell>
        <mxCell id="CwgE0OJDXyVaKxsBkRuX-8" style="rounded=0;orthogonalLoop=1;jettySize=auto;html=1;entryX=0.967;entryY=0.267;entryDx=0;entryDy=0;entryPerimeter=0;" parent="1" source="CwgE0OJDXyVaKxsBkRuX-2" target="CwgE0OJDXyVaKxsBkRuX-4" edge="1">
          <mxGeometry relative="1" as="geometry" />
        </mxCell>
        <mxCell id="CwgE0OJDXyVaKxsBkRuX-9" style="rounded=0;orthogonalLoop=1;jettySize=auto;html=1;entryX=0.733;entryY=0.133;entryDx=0;entryDy=0;entryPerimeter=0;" parent="1" source="CwgE0OJDXyVaKxsBkRuX-2" target="CwgE0OJDXyVaKxsBkRuX-5" edge="1">
          <mxGeometry relative="1" as="geometry" />
        </mxCell>
        <mxCell id="CwgE0OJDXyVaKxsBkRuX-10" value="Complete binary tree" style="text;html=1;align=center;verticalAlign=middle;resizable=0;points=[];autosize=1;strokeColor=none;fillColor=none;fontStyle=1" parent="1" vertex="1">
          <mxGeometry x="155" y="678" width="130" height="30" as="geometry" />
        </mxCell>
        <mxCell id="CwgE0OJDXyVaKxsBkRuX-12" style="rounded=0;orthogonalLoop=1;jettySize=auto;html=1;" parent="1" source="CwgE0OJDXyVaKxsBkRuX-11" edge="1">
          <mxGeometry relative="1" as="geometry">
            <mxPoint x="570" y="760" as="targetPoint" />
          </mxGeometry>
        </mxCell>
        <mxCell id="CwgE0OJDXyVaKxsBkRuX-11" value="1" style="text;html=1;align=center;verticalAlign=middle;resizable=0;points=[];autosize=1;strokeColor=none;fillColor=none;" parent="1" vertex="1">
          <mxGeometry x="625" y="688" width="30" height="30" as="geometry" />
        </mxCell>
        <mxCell id="CwgE0OJDXyVaKxsBkRuX-14" style="rounded=0;orthogonalLoop=1;jettySize=auto;html=1;" parent="1" source="CwgE0OJDXyVaKxsBkRuX-13" edge="1">
          <mxGeometry relative="1" as="geometry">
            <mxPoint x="540" y="830" as="targetPoint" />
          </mxGeometry>
        </mxCell>
        <mxCell id="CwgE0OJDXyVaKxsBkRuX-13" value="2" style="text;html=1;align=center;verticalAlign=middle;resizable=0;points=[];autosize=1;strokeColor=none;fillColor=none;" parent="1" vertex="1">
          <mxGeometry x="555" y="758" width="30" height="30" as="geometry" />
        </mxCell>
        <mxCell id="CwgE0OJDXyVaKxsBkRuX-15" value="3" style="text;html=1;align=center;verticalAlign=middle;resizable=0;points=[];autosize=1;strokeColor=none;fillColor=none;" parent="1" vertex="1">
          <mxGeometry x="520" y="830" width="30" height="30" as="geometry" />
        </mxCell>
        <mxCell id="CwgE0OJDXyVaKxsBkRuX-25" style="edgeStyle=none;rounded=0;orthogonalLoop=1;jettySize=auto;html=1;" parent="1" source="CwgE0OJDXyVaKxsBkRuX-16" target="CwgE0OJDXyVaKxsBkRuX-18" edge="1">
          <mxGeometry relative="1" as="geometry" />
        </mxCell>
        <mxCell id="CwgE0OJDXyVaKxsBkRuX-16" value="50" style="text;html=1;align=center;verticalAlign=middle;resizable=0;points=[];autosize=1;strokeColor=none;fillColor=none;" parent="1" vertex="1">
          <mxGeometry x="310" y="878" width="40" height="30" as="geometry" />
        </mxCell>
        <mxCell id="CwgE0OJDXyVaKxsBkRuX-23" style="edgeStyle=none;rounded=0;orthogonalLoop=1;jettySize=auto;html=1;" parent="1" source="CwgE0OJDXyVaKxsBkRuX-17" edge="1">
          <mxGeometry relative="1" as="geometry">
            <mxPoint x="240" y="960" as="targetPoint" />
          </mxGeometry>
        </mxCell>
        <mxCell id="CwgE0OJDXyVaKxsBkRuX-17" value="30" style="text;html=1;align=center;verticalAlign=middle;resizable=0;points=[];autosize=1;strokeColor=none;fillColor=none;" parent="1" vertex="1">
          <mxGeometry x="270" y="918" width="40" height="30" as="geometry" />
        </mxCell>
        <mxCell id="CwgE0OJDXyVaKxsBkRuX-28" style="edgeStyle=none;rounded=0;orthogonalLoop=1;jettySize=auto;html=1;" parent="1" source="CwgE0OJDXyVaKxsBkRuX-18" target="CwgE0OJDXyVaKxsBkRuX-26" edge="1">
          <mxGeometry relative="1" as="geometry" />
        </mxCell>
        <mxCell id="CwgE0OJDXyVaKxsBkRuX-29" style="edgeStyle=none;rounded=0;orthogonalLoop=1;jettySize=auto;html=1;" parent="1" source="CwgE0OJDXyVaKxsBkRuX-18" target="CwgE0OJDXyVaKxsBkRuX-27" edge="1">
          <mxGeometry relative="1" as="geometry" />
        </mxCell>
        <mxCell id="CwgE0OJDXyVaKxsBkRuX-18" value="70" style="text;html=1;align=center;verticalAlign=middle;resizable=0;points=[];autosize=1;strokeColor=none;fillColor=none;" parent="1" vertex="1">
          <mxGeometry x="365" y="918" width="40" height="30" as="geometry" />
        </mxCell>
        <mxCell id="CwgE0OJDXyVaKxsBkRuX-19" value="20" style="text;html=1;align=center;verticalAlign=middle;resizable=0;points=[];autosize=1;strokeColor=none;fillColor=none;" parent="1" vertex="1">
          <mxGeometry x="220" y="970" width="40" height="30" as="geometry" />
        </mxCell>
        <mxCell id="CwgE0OJDXyVaKxsBkRuX-20" value="40" style="text;html=1;align=center;verticalAlign=middle;resizable=0;points=[];autosize=1;strokeColor=none;fillColor=none;" parent="1" vertex="1">
          <mxGeometry x="295" y="970" width="40" height="30" as="geometry" />
        </mxCell>
        <mxCell id="CwgE0OJDXyVaKxsBkRuX-22" style="edgeStyle=none;rounded=0;orthogonalLoop=1;jettySize=auto;html=1;entryX=0.475;entryY=0.167;entryDx=0;entryDy=0;entryPerimeter=0;" parent="1" source="CwgE0OJDXyVaKxsBkRuX-16" target="CwgE0OJDXyVaKxsBkRuX-17" edge="1">
          <mxGeometry relative="1" as="geometry" />
        </mxCell>
        <mxCell id="CwgE0OJDXyVaKxsBkRuX-24" style="edgeStyle=none;rounded=0;orthogonalLoop=1;jettySize=auto;html=1;entryX=0.625;entryY=0.167;entryDx=0;entryDy=0;entryPerimeter=0;" parent="1" source="CwgE0OJDXyVaKxsBkRuX-17" target="CwgE0OJDXyVaKxsBkRuX-20" edge="1">
          <mxGeometry relative="1" as="geometry" />
        </mxCell>
        <mxCell id="CwgE0OJDXyVaKxsBkRuX-26" value="60" style="text;html=1;align=center;verticalAlign=middle;resizable=0;points=[];autosize=1;strokeColor=none;fillColor=none;" parent="1" vertex="1">
          <mxGeometry x="360" y="970" width="40" height="30" as="geometry" />
        </mxCell>
        <mxCell id="CwgE0OJDXyVaKxsBkRuX-27" value="80" style="text;html=1;align=center;verticalAlign=middle;resizable=0;points=[];autosize=1;strokeColor=none;fillColor=none;" parent="1" vertex="1">
          <mxGeometry x="430" y="958" width="40" height="30" as="geometry" />
        </mxCell>
        <mxCell id="CwgE0OJDXyVaKxsBkRuX-30" value="50,60,70,80,90.100,110,120,130" style="text;html=1;align=center;verticalAlign=middle;resizable=0;points=[];autosize=1;strokeColor=none;fillColor=none;" parent="1" vertex="1">
          <mxGeometry x="550" y="900" width="200" height="30" as="geometry" />
        </mxCell>
        <mxCell id="CwgE0OJDXyVaKxsBkRuX-32" style="edgeStyle=none;rounded=0;orthogonalLoop=1;jettySize=auto;html=1;" parent="1" source="CwgE0OJDXyVaKxsBkRuX-31" edge="1">
          <mxGeometry relative="1" as="geometry">
            <mxPoint x="650" y="990" as="targetPoint" />
          </mxGeometry>
        </mxCell>
        <mxCell id="CwgE0OJDXyVaKxsBkRuX-31" value="50" style="text;html=1;align=center;verticalAlign=middle;resizable=0;points=[];autosize=1;strokeColor=none;fillColor=none;" parent="1" vertex="1">
          <mxGeometry x="555" y="1030" width="40" height="30" as="geometry" />
        </mxCell>
        <mxCell id="CwgE0OJDXyVaKxsBkRuX-38" value="" style="edgeStyle=none;rounded=0;orthogonalLoop=1;jettySize=auto;html=1;" parent="1" source="CwgE0OJDXyVaKxsBkRuX-33" target="CwgE0OJDXyVaKxsBkRuX-40" edge="1">
          <mxGeometry relative="1" as="geometry" />
        </mxCell>
        <mxCell id="CwgE0OJDXyVaKxsBkRuX-33" value="60" style="text;html=1;align=center;verticalAlign=middle;resizable=0;points=[];autosize=1;strokeColor=none;fillColor=none;" parent="1" vertex="1">
          <mxGeometry x="640" y="970" width="40" height="30" as="geometry" />
        </mxCell>
        <mxCell id="CwgE0OJDXyVaKxsBkRuX-39" style="edgeStyle=none;rounded=0;orthogonalLoop=1;jettySize=auto;html=1;" parent="1" source="CwgE0OJDXyVaKxsBkRuX-37" edge="1">
          <mxGeometry relative="1" as="geometry">
            <mxPoint x="810" y="1070" as="targetPoint" />
          </mxGeometry>
        </mxCell>
        <mxCell id="CwgE0OJDXyVaKxsBkRuX-37" value="70" style="text;html=1;align=center;verticalAlign=middle;resizable=0;points=[];autosize=1;strokeColor=none;fillColor=none;" parent="1" vertex="1">
          <mxGeometry x="700" y="1100" width="40" height="30" as="geometry" />
        </mxCell>
        <mxCell id="CwgE0OJDXyVaKxsBkRuX-41" style="edgeStyle=none;rounded=0;orthogonalLoop=1;jettySize=auto;html=1;" parent="1" source="CwgE0OJDXyVaKxsBkRuX-40" edge="1">
          <mxGeometry relative="1" as="geometry">
            <mxPoint x="900" y="1110" as="targetPoint" />
          </mxGeometry>
        </mxCell>
        <mxCell id="CwgE0OJDXyVaKxsBkRuX-40" value="80" style="text;html=1;align=center;verticalAlign=middle;resizable=0;points=[];autosize=1;strokeColor=none;fillColor=none;" parent="1" vertex="1">
          <mxGeometry x="790" y="1050" width="40" height="30" as="geometry" />
        </mxCell>
        <mxCell id="CwgE0OJDXyVaKxsBkRuX-43" value="90" style="text;html=1;align=center;verticalAlign=middle;resizable=0;points=[];autosize=1;strokeColor=none;fillColor=none;" parent="1" vertex="1">
          <mxGeometry x="890" y="1108" width="40" height="30" as="geometry" />
        </mxCell>
        <mxCell id="CwgE0OJDXyVaKxsBkRuX-44" value="1" style="text;html=1;align=center;verticalAlign=middle;resizable=0;points=[];autosize=1;strokeColor=none;fillColor=none;" parent="1" vertex="1">
          <mxGeometry x="605" y="958" width="30" height="30" as="geometry" />
        </mxCell>
        <mxCell id="CwgE0OJDXyVaKxsBkRuX-45" value="3" style="text;html=1;align=center;verticalAlign=middle;resizable=0;points=[];autosize=1;strokeColor=none;fillColor=none;" parent="1" vertex="1">
          <mxGeometry x="705" y="958" width="30" height="30" as="geometry" />
        </mxCell>
        <mxCell id="CwgE0OJDXyVaKxsBkRuX-47" style="edgeStyle=none;rounded=0;orthogonalLoop=1;jettySize=auto;html=1;" parent="1" source="CwgE0OJDXyVaKxsBkRuX-46" target="CwgE0OJDXyVaKxsBkRuX-48" edge="1">
          <mxGeometry relative="1" as="geometry">
            <mxPoint x="180" y="1100" as="targetPoint" />
          </mxGeometry>
        </mxCell>
        <mxCell id="CwgE0OJDXyVaKxsBkRuX-46" value="50" style="text;html=1;align=center;verticalAlign=middle;resizable=0;points=[];autosize=1;strokeColor=none;fillColor=none;" parent="1" vertex="1">
          <mxGeometry x="70" y="1130" width="40" height="30" as="geometry" />
        </mxCell>
        <mxCell id="CwgE0OJDXyVaKxsBkRuX-49" style="edgeStyle=none;rounded=0;orthogonalLoop=1;jettySize=auto;html=1;" parent="1" source="CwgE0OJDXyVaKxsBkRuX-48" edge="1">
          <mxGeometry relative="1" as="geometry">
            <mxPoint x="260" y="1170" as="targetPoint" />
          </mxGeometry>
        </mxCell>
        <mxCell id="CwgE0OJDXyVaKxsBkRuX-48" value="60" style="text;html=1;align=center;verticalAlign=middle;resizable=0;points=[];autosize=1;strokeColor=none;fillColor=none;" parent="1" vertex="1">
          <mxGeometry x="190" y="1038" width="40" height="30" as="geometry" />
        </mxCell>
        <mxCell id="CwgE0OJDXyVaKxsBkRuX-51" style="edgeStyle=none;rounded=0;orthogonalLoop=1;jettySize=auto;html=1;entryX=0.15;entryY=0.9;entryDx=0;entryDy=0;entryPerimeter=0;" parent="1" source="CwgE0OJDXyVaKxsBkRuX-50" target="CwgE0OJDXyVaKxsBkRuX-52" edge="1">
          <mxGeometry relative="1" as="geometry">
            <mxPoint x="350" y="1240" as="targetPoint" />
          </mxGeometry>
        </mxCell>
        <mxCell id="CwgE0OJDXyVaKxsBkRuX-50" value="70" style="text;html=1;align=center;verticalAlign=middle;resizable=0;points=[];autosize=1;strokeColor=none;fillColor=none;" parent="1" vertex="1">
          <mxGeometry x="200" y="1300" width="40" height="30" as="geometry" />
        </mxCell>
        <mxCell id="CwgE0OJDXyVaKxsBkRuX-53" style="edgeStyle=none;rounded=0;orthogonalLoop=1;jettySize=auto;html=1;entryX=-0.05;entryY=0.3;entryDx=0;entryDy=0;entryPerimeter=0;" parent="1" source="CwgE0OJDXyVaKxsBkRuX-52" target="CwgE0OJDXyVaKxsBkRuX-54" edge="1">
          <mxGeometry relative="1" as="geometry">
            <mxPoint x="480" y="1330" as="targetPoint" />
          </mxGeometry>
        </mxCell>
        <mxCell id="CwgE0OJDXyVaKxsBkRuX-52" value="80" style="text;html=1;align=center;verticalAlign=middle;resizable=0;points=[];autosize=1;strokeColor=none;fillColor=none;" parent="1" vertex="1">
          <mxGeometry x="260" y="1180" width="40" height="30" as="geometry" />
        </mxCell>
        <mxCell id="CwgE0OJDXyVaKxsBkRuX-54" value="90" style="text;html=1;align=center;verticalAlign=middle;resizable=0;points=[];autosize=1;strokeColor=none;fillColor=none;" parent="1" vertex="1">
          <mxGeometry x="450" y="1280" width="40" height="30" as="geometry" />
        </mxCell>
        <mxCell id="CwgE0OJDXyVaKxsBkRuX-56" style="edgeStyle=none;rounded=0;orthogonalLoop=1;jettySize=auto;html=1;" parent="1" source="CwgE0OJDXyVaKxsBkRuX-55" edge="1">
          <mxGeometry relative="1" as="geometry">
            <mxPoint x="480" y="1390" as="targetPoint" />
          </mxGeometry>
        </mxCell>
        <mxCell id="CwgE0OJDXyVaKxsBkRuX-58" style="edgeStyle=none;rounded=0;orthogonalLoop=1;jettySize=auto;html=1;" parent="1" source="CwgE0OJDXyVaKxsBkRuX-55" edge="1">
          <mxGeometry relative="1" as="geometry">
            <mxPoint x="640" y="1390" as="targetPoint" />
          </mxGeometry>
        </mxCell>
        <mxCell id="CwgE0OJDXyVaKxsBkRuX-55" value="1" style="text;html=1;align=center;verticalAlign=middle;resizable=0;points=[];autosize=1;strokeColor=none;fillColor=none;" parent="1" vertex="1">
          <mxGeometry x="540" y="1340" width="30" height="30" as="geometry" />
        </mxCell>
        <mxCell id="CwgE0OJDXyVaKxsBkRuX-60" style="edgeStyle=none;rounded=0;orthogonalLoop=1;jettySize=auto;html=1;" parent="1" source="CwgE0OJDXyVaKxsBkRuX-57" edge="1">
          <mxGeometry relative="1" as="geometry">
            <mxPoint x="400" y="1450" as="targetPoint" />
          </mxGeometry>
        </mxCell>
        <mxCell id="CwgE0OJDXyVaKxsBkRuX-62" style="edgeStyle=none;rounded=0;orthogonalLoop=1;jettySize=auto;html=1;" parent="1" source="CwgE0OJDXyVaKxsBkRuX-57" edge="1">
          <mxGeometry relative="1" as="geometry">
            <mxPoint x="530" y="1450" as="targetPoint" />
          </mxGeometry>
        </mxCell>
        <mxCell id="CwgE0OJDXyVaKxsBkRuX-57" value="2" style="text;html=1;align=center;verticalAlign=middle;resizable=0;points=[];autosize=1;strokeColor=none;fillColor=none;" parent="1" vertex="1">
          <mxGeometry x="455" y="1388" width="30" height="30" as="geometry" />
        </mxCell>
        <mxCell id="CwgE0OJDXyVaKxsBkRuX-64" style="edgeStyle=none;rounded=0;orthogonalLoop=1;jettySize=auto;html=1;" parent="1" source="CwgE0OJDXyVaKxsBkRuX-59" edge="1">
          <mxGeometry relative="1" as="geometry">
            <mxPoint x="740" y="1450" as="targetPoint" />
          </mxGeometry>
        </mxCell>
        <mxCell id="CwgE0OJDXyVaKxsBkRuX-59" value="3" style="text;html=1;align=center;verticalAlign=middle;resizable=0;points=[];autosize=1;strokeColor=none;fillColor=none;" parent="1" vertex="1">
          <mxGeometry x="655" y="1388" width="30" height="30" as="geometry" />
        </mxCell>
        <mxCell id="CwgE0OJDXyVaKxsBkRuX-61" value="4" style="text;html=1;align=center;verticalAlign=middle;resizable=0;points=[];autosize=1;strokeColor=none;fillColor=none;" parent="1" vertex="1">
          <mxGeometry x="365" y="1448" width="30" height="30" as="geometry" />
        </mxCell>
        <mxCell id="CwgE0OJDXyVaKxsBkRuX-63" value="5" style="text;html=1;align=center;verticalAlign=middle;resizable=0;points=[];autosize=1;strokeColor=none;fillColor=none;" parent="1" vertex="1">
          <mxGeometry x="525" y="1458" width="30" height="30" as="geometry" />
        </mxCell>
        <mxCell id="CwgE0OJDXyVaKxsBkRuX-65" value="6" style="text;html=1;align=center;verticalAlign=middle;resizable=0;points=[];autosize=1;strokeColor=none;fillColor=none;" parent="1" vertex="1">
          <mxGeometry x="755" y="1448" width="30" height="30" as="geometry" />
        </mxCell>
        <mxCell id="CwgE0OJDXyVaKxsBkRuX-69" style="edgeStyle=none;rounded=0;orthogonalLoop=1;jettySize=auto;html=1;" parent="1" source="CwgE0OJDXyVaKxsBkRuX-66" target="CwgE0OJDXyVaKxsBkRuX-67" edge="1">
          <mxGeometry relative="1" as="geometry" />
        </mxCell>
        <mxCell id="CwgE0OJDXyVaKxsBkRuX-66" value="A" style="text;html=1;align=center;verticalAlign=middle;resizable=0;points=[];autosize=1;strokeColor=none;fillColor=none;" parent="1" vertex="1">
          <mxGeometry x="115" y="1348" width="30" height="30" as="geometry" />
        </mxCell>
        <mxCell id="CwgE0OJDXyVaKxsBkRuX-67" value="B" style="text;html=1;align=center;verticalAlign=middle;resizable=0;points=[];autosize=1;strokeColor=none;fillColor=none;" parent="1" vertex="1">
          <mxGeometry x="95" y="1398" width="30" height="30" as="geometry" />
        </mxCell>
        <mxCell id="CwgE0OJDXyVaKxsBkRuX-68" value="C" style="text;html=1;align=center;verticalAlign=middle;resizable=0;points=[];autosize=1;strokeColor=none;fillColor=none;" parent="1" vertex="1">
          <mxGeometry x="160" y="1400" width="30" height="30" as="geometry" />
        </mxCell>
        <mxCell id="CwgE0OJDXyVaKxsBkRuX-70" style="edgeStyle=none;rounded=0;orthogonalLoop=1;jettySize=auto;html=1;entryX=0.2;entryY=0.9;entryDx=0;entryDy=0;entryPerimeter=0;" parent="1" source="CwgE0OJDXyVaKxsBkRuX-67" target="CwgE0OJDXyVaKxsBkRuX-68" edge="1">
          <mxGeometry relative="1" as="geometry" />
        </mxCell>
        <mxCell id="QzvvF3R52LffJEx-eBrv-4" style="edgeStyle=orthogonalEdgeStyle;rounded=0;orthogonalLoop=1;jettySize=auto;html=1;" parent="1" source="QzvvF3R52LffJEx-eBrv-1" edge="1">
          <mxGeometry relative="1" as="geometry">
            <mxPoint x="650" y="1850" as="targetPoint" />
          </mxGeometry>
        </mxCell>
        <mxCell id="QzvvF3R52LffJEx-eBrv-30" style="edgeStyle=orthogonalEdgeStyle;rounded=0;orthogonalLoop=1;jettySize=auto;html=1;" parent="1" source="QzvvF3R52LffJEx-eBrv-1" edge="1">
          <mxGeometry relative="1" as="geometry">
            <mxPoint x="650" y="1920" as="targetPoint" />
          </mxGeometry>
        </mxCell>
        <mxCell id="QzvvF3R52LffJEx-eBrv-1" value="HasFunction" style="whiteSpace=wrap;html=1;" parent="1" vertex="1">
          <mxGeometry x="405" y="1810" width="120" height="60" as="geometry" />
        </mxCell>
        <mxCell id="QzvvF3R52LffJEx-eBrv-3" style="edgeStyle=orthogonalEdgeStyle;rounded=0;orthogonalLoop=1;jettySize=auto;html=1;" parent="1" source="QzvvF3R52LffJEx-eBrv-2" target="QzvvF3R52LffJEx-eBrv-1" edge="1">
          <mxGeometry relative="1" as="geometry" />
        </mxCell>
        <mxCell id="QzvvF3R52LffJEx-eBrv-2" value="Input" style="text;html=1;align=center;verticalAlign=middle;resizable=0;points=[];autosize=1;strokeColor=none;fillColor=none;" parent="1" vertex="1">
          <mxGeometry x="260" y="1820" width="50" height="30" as="geometry" />
        </mxCell>
        <mxCell id="QzvvF3R52LffJEx-eBrv-5" value="Output" style="text;html=1;align=center;verticalAlign=middle;resizable=0;points=[];autosize=1;strokeColor=none;fillColor=none;" parent="1" vertex="1">
          <mxGeometry x="655" y="1840" width="60" height="30" as="geometry" />
        </mxCell>
        <mxCell id="QzvvF3R52LffJEx-eBrv-6" value="Mohit" style="text;html=1;align=center;verticalAlign=middle;resizable=0;points=[];autosize=1;strokeColor=none;fillColor=none;" parent="1" vertex="1">
          <mxGeometry x="205" y="1790" width="50" height="30" as="geometry" />
        </mxCell>
        <mxCell id="QzvvF3R52LffJEx-eBrv-7" value="ABC" style="text;html=1;align=center;verticalAlign=middle;resizable=0;points=[];autosize=1;strokeColor=none;fillColor=none;" parent="1" vertex="1">
          <mxGeometry x="665" y="1808" width="50" height="30" as="geometry" />
        </mxCell>
        <mxCell id="QzvvF3R52LffJEx-eBrv-34" style="edgeStyle=orthogonalEdgeStyle;rounded=0;orthogonalLoop=1;jettySize=auto;html=1;" parent="1" source="QzvvF3R52LffJEx-eBrv-8" edge="1">
          <mxGeometry relative="1" as="geometry">
            <mxPoint x="570" y="1945" as="targetPoint" />
          </mxGeometry>
        </mxCell>
        <mxCell id="QzvvF3R52LffJEx-eBrv-35" style="edgeStyle=orthogonalEdgeStyle;rounded=0;orthogonalLoop=1;jettySize=auto;html=1;" parent="1" source="QzvvF3R52LffJEx-eBrv-8" edge="1">
          <mxGeometry relative="1" as="geometry">
            <mxPoint x="230" y="1945" as="targetPoint" />
          </mxGeometry>
        </mxCell>
        <mxCell id="QzvvF3R52LffJEx-eBrv-8" value="For given input always get same output" style="text;html=1;align=center;verticalAlign=middle;resizable=0;points=[];autosize=1;strokeColor=#82b366;fillColor=#d5e8d4;" parent="1" vertex="1">
          <mxGeometry x="300" y="1930" width="230" height="30" as="geometry" />
        </mxCell>
        <mxCell id="QzvvF3R52LffJEx-eBrv-36" style="edgeStyle=orthogonalEdgeStyle;rounded=0;orthogonalLoop=1;jettySize=auto;html=1;" parent="1" source="QzvvF3R52LffJEx-eBrv-9" edge="1">
          <mxGeometry relative="1" as="geometry">
            <mxPoint x="600" y="1985" as="targetPoint" />
          </mxGeometry>
        </mxCell>
        <mxCell id="QzvvF3R52LffJEx-eBrv-37" style="edgeStyle=orthogonalEdgeStyle;rounded=0;orthogonalLoop=1;jettySize=auto;html=1;" parent="1" source="QzvvF3R52LffJEx-eBrv-9" edge="1">
          <mxGeometry relative="1" as="geometry">
            <mxPoint x="190" y="1985" as="targetPoint" />
          </mxGeometry>
        </mxCell>
        <mxCell id="QzvvF3R52LffJEx-eBrv-9" value="From Hash Value - You can not get original input" style="text;html=1;align=center;verticalAlign=middle;resizable=0;points=[];autosize=1;strokeColor=#82b366;fillColor=#d5e8d4;" parent="1" vertex="1">
          <mxGeometry x="270" y="1970" width="280" height="30" as="geometry" />
        </mxCell>
        <mxCell id="QzvvF3R52LffJEx-eBrv-10" value="Hash Value" style="text;html=1;align=center;verticalAlign=middle;resizable=0;points=[];autosize=1;strokeColor=none;fillColor=none;" parent="1" vertex="1">
          <mxGeometry x="660" y="1758" width="80" height="30" as="geometry" />
        </mxCell>
        <mxCell id="QzvvF3R52LffJEx-eBrv-11" value="Mohit1" style="text;html=1;align=center;verticalAlign=middle;resizable=0;points=[];autosize=1;strokeColor=none;fillColor=none;" parent="1" vertex="1">
          <mxGeometry x="200" y="1828" width="60" height="30" as="geometry" />
        </mxCell>
        <mxCell id="QzvvF3R52LffJEx-eBrv-12" value="Null" style="whiteSpace=wrap;html=1;fillColor=#fff2cc;strokeColor=#d6b656;" parent="1" vertex="1">
          <mxGeometry x="360" y="2080" width="120" height="40" as="geometry" />
        </mxCell>
        <mxCell id="QzvvF3R52LffJEx-eBrv-13" value="" style="whiteSpace=wrap;html=1;" parent="1" vertex="1">
          <mxGeometry x="360" y="2120" width="120" height="40" as="geometry" />
        </mxCell>
        <mxCell id="QzvvF3R52LffJEx-eBrv-14" value="" style="whiteSpace=wrap;html=1;" parent="1" vertex="1">
          <mxGeometry x="360" y="2160" width="120" height="40" as="geometry" />
        </mxCell>
        <mxCell id="QzvvF3R52LffJEx-eBrv-15" value="" style="whiteSpace=wrap;html=1;" parent="1" vertex="1">
          <mxGeometry x="360" y="2200" width="120" height="40" as="geometry" />
        </mxCell>
        <mxCell id="QzvvF3R52LffJEx-eBrv-53" style="edgeStyle=orthogonalEdgeStyle;rounded=0;orthogonalLoop=1;jettySize=auto;html=1;" parent="1" source="QzvvF3R52LffJEx-eBrv-16" edge="1">
          <mxGeometry relative="1" as="geometry">
            <mxPoint x="420" y="2450" as="targetPoint" />
          </mxGeometry>
        </mxCell>
        <mxCell id="QzvvF3R52LffJEx-eBrv-16" value="" style="whiteSpace=wrap;html=1;" parent="1" vertex="1">
          <mxGeometry x="360" y="2240" width="120" height="40" as="geometry" />
        </mxCell>
        <mxCell id="QzvvF3R52LffJEx-eBrv-17" value="&amp;lt;K,V&amp;gt;" style="text;html=1;align=center;verticalAlign=middle;resizable=0;points=[];autosize=1;strokeColor=none;fillColor=none;" parent="1" vertex="1">
          <mxGeometry x="510" y="2078" width="60" height="30" as="geometry" />
        </mxCell>
        <mxCell id="QzvvF3R52LffJEx-eBrv-18" value="0" style="text;html=1;align=center;verticalAlign=middle;resizable=0;points=[];autosize=1;strokeColor=none;fillColor=none;" parent="1" vertex="1">
          <mxGeometry x="315" y="2080" width="30" height="30" as="geometry" />
        </mxCell>
        <mxCell id="QzvvF3R52LffJEx-eBrv-19" value="1" style="text;html=1;align=center;verticalAlign=middle;resizable=0;points=[];autosize=1;strokeColor=none;fillColor=none;" parent="1" vertex="1">
          <mxGeometry x="315" y="2118" width="30" height="30" as="geometry" />
        </mxCell>
        <mxCell id="QzvvF3R52LffJEx-eBrv-20" value="2" style="text;html=1;align=center;verticalAlign=middle;resizable=0;points=[];autosize=1;strokeColor=none;fillColor=none;" parent="1" vertex="1">
          <mxGeometry x="315" y="2158" width="30" height="30" as="geometry" />
        </mxCell>
        <mxCell id="QzvvF3R52LffJEx-eBrv-21" value="3" style="text;html=1;align=center;verticalAlign=middle;resizable=0;points=[];autosize=1;strokeColor=none;fillColor=none;" parent="1" vertex="1">
          <mxGeometry x="325" y="2198" width="30" height="30" as="geometry" />
        </mxCell>
        <mxCell id="QzvvF3R52LffJEx-eBrv-22" value="4" style="text;html=1;align=center;verticalAlign=middle;resizable=0;points=[];autosize=1;strokeColor=none;fillColor=none;" parent="1" vertex="1">
          <mxGeometry x="325" y="2248" width="30" height="30" as="geometry" />
        </mxCell>
        <mxCell id="QzvvF3R52LffJEx-eBrv-39" style="edgeStyle=orthogonalEdgeStyle;rounded=0;orthogonalLoop=1;jettySize=auto;html=1;" parent="1" source="QzvvF3R52LffJEx-eBrv-23" target="QzvvF3R52LffJEx-eBrv-38" edge="1">
          <mxGeometry relative="1" as="geometry" />
        </mxCell>
        <mxCell id="QzvvF3R52LffJEx-eBrv-43" value="" style="edgeStyle=orthogonalEdgeStyle;rounded=0;orthogonalLoop=1;jettySize=auto;html=1;" parent="1" source="QzvvF3R52LffJEx-eBrv-23" target="QzvvF3R52LffJEx-eBrv-38" edge="1">
          <mxGeometry relative="1" as="geometry" />
        </mxCell>
        <mxCell id="QzvvF3R52LffJEx-eBrv-23" value="Name , Dhruvik" style="text;html=1;align=center;verticalAlign=middle;resizable=0;points=[];autosize=1;strokeColor=none;fillColor=none;" parent="1" vertex="1">
          <mxGeometry x="470" y="2125" width="110" height="30" as="geometry" />
        </mxCell>
        <mxCell id="QzvvF3R52LffJEx-eBrv-25" style="edgeStyle=orthogonalEdgeStyle;rounded=0;orthogonalLoop=1;jettySize=auto;html=1;entryX=0;entryY=0.25;entryDx=0;entryDy=0;" parent="1" source="QzvvF3R52LffJEx-eBrv-24" target="QzvvF3R52LffJEx-eBrv-1" edge="1">
          <mxGeometry relative="1" as="geometry" />
        </mxCell>
        <mxCell id="QzvvF3R52LffJEx-eBrv-24" value="Name1" style="text;html=1;align=center;verticalAlign=middle;resizable=0;points=[];autosize=1;strokeColor=none;fillColor=none;" parent="1" vertex="1">
          <mxGeometry x="255" y="1750" width="60" height="30" as="geometry" />
        </mxCell>
        <mxCell id="QzvvF3R52LffJEx-eBrv-26" value="1" style="text;html=1;align=center;verticalAlign=middle;resizable=0;points=[];autosize=1;strokeColor=none;fillColor=none;" parent="1" vertex="1">
          <mxGeometry x="665" y="1878" width="30" height="30" as="geometry" />
        </mxCell>
        <mxCell id="QzvvF3R52LffJEx-eBrv-27" value="age - 25" style="text;html=1;align=center;verticalAlign=middle;resizable=0;points=[];autosize=1;strokeColor=none;fillColor=none;" parent="1" vertex="1">
          <mxGeometry x="105" y="1898" width="70" height="30" as="geometry" />
        </mxCell>
        <mxCell id="QzvvF3R52LffJEx-eBrv-28" value="qualification" style="text;html=1;align=center;verticalAlign=middle;resizable=0;points=[];autosize=1;strokeColor=none;fillColor=none;" parent="1" vertex="1">
          <mxGeometry x="275" y="1700" width="90" height="30" as="geometry" />
        </mxCell>
        <mxCell id="QzvvF3R52LffJEx-eBrv-29" style="edgeStyle=orthogonalEdgeStyle;rounded=0;orthogonalLoop=1;jettySize=auto;html=1;entryX=0.117;entryY=0.083;entryDx=0;entryDy=0;entryPerimeter=0;" parent="1" source="QzvvF3R52LffJEx-eBrv-28" target="QzvvF3R52LffJEx-eBrv-1" edge="1">
          <mxGeometry relative="1" as="geometry" />
        </mxCell>
        <mxCell id="QzvvF3R52LffJEx-eBrv-31" value="2" style="text;html=1;align=center;verticalAlign=middle;resizable=0;points=[];autosize=1;strokeColor=none;fillColor=none;" parent="1" vertex="1">
          <mxGeometry x="665" y="1918" width="30" height="30" as="geometry" />
        </mxCell>
        <mxCell id="QzvvF3R52LffJEx-eBrv-32" value="age - 25" style="text;html=1;align=center;verticalAlign=middle;resizable=0;points=[];autosize=1;strokeColor=none;fillColor=none;" parent="1" vertex="1">
          <mxGeometry x="485" y="2205" width="70" height="30" as="geometry" />
        </mxCell>
        <mxCell id="QzvvF3R52LffJEx-eBrv-33" value="1" style="text;html=1;align=center;verticalAlign=middle;resizable=0;points=[];autosize=1;strokeColor=none;fillColor=none;" parent="1" vertex="1">
          <mxGeometry x="695" y="1878" width="30" height="30" as="geometry" />
        </mxCell>
        <mxCell id="QzvvF3R52LffJEx-eBrv-44" style="edgeStyle=orthogonalEdgeStyle;rounded=0;orthogonalLoop=1;jettySize=auto;html=1;" parent="1" source="QzvvF3R52LffJEx-eBrv-38" target="QzvvF3R52LffJEx-eBrv-40" edge="1">
          <mxGeometry relative="1" as="geometry" />
        </mxCell>
        <mxCell id="QzvvF3R52LffJEx-eBrv-38" value="Name1 , Mohit1" style="text;html=1;align=center;verticalAlign=middle;resizable=0;points=[];autosize=1;strokeColor=none;fillColor=none;" parent="1" vertex="1">
          <mxGeometry x="590" y="2125" width="110" height="30" as="geometry" />
        </mxCell>
        <mxCell id="QzvvF3R52LffJEx-eBrv-40" value="Name2 - Srini" style="text;html=1;align=center;verticalAlign=middle;resizable=0;points=[];autosize=1;strokeColor=none;fillColor=none;" parent="1" vertex="1">
          <mxGeometry x="725" y="2125" width="100" height="30" as="geometry" />
        </mxCell>
        <mxCell id="QzvvF3R52LffJEx-eBrv-45" value="qualification-2" style="text;html=1;align=center;verticalAlign=middle;resizable=0;points=[];autosize=1;strokeColor=none;fillColor=none;" parent="1" vertex="1">
          <mxGeometry x="490" y="2168" width="100" height="30" as="geometry" />
        </mxCell>
        <mxCell id="QzvvF3R52LffJEx-eBrv-46" value="Null, Null" style="text;html=1;align=center;verticalAlign=middle;resizable=0;points=[];autosize=1;strokeColor=none;fillColor=none;" parent="1" vertex="1">
          <mxGeometry x="510" y="2080" width="70" height="30" as="geometry" />
        </mxCell>
        <mxCell id="QzvvF3R52LffJEx-eBrv-48" value="10" style="text;html=1;align=center;verticalAlign=middle;resizable=0;points=[];autosize=1;strokeColor=none;fillColor=none;" parent="1" vertex="1">
          <mxGeometry x="570" y="2308" width="40" height="30" as="geometry" />
        </mxCell>
        <mxCell id="QzvvF3R52LffJEx-eBrv-50" value="key -&amp;gt; 155 %10 --&amp;gt;&amp;nbsp;" style="text;html=1;align=center;verticalAlign=middle;resizable=0;points=[];autosize=1;strokeColor=none;fillColor=none;" parent="1" vertex="1">
          <mxGeometry x="435" y="2310" width="130" height="30" as="geometry" />
        </mxCell>
        <mxCell id="QzvvF3R52LffJEx-eBrv-51" value="10" style="text;html=1;align=center;verticalAlign=middle;resizable=0;points=[];autosize=1;strokeColor=none;fillColor=none;" parent="1" vertex="1">
          <mxGeometry x="370" y="2358" width="40" height="30" as="geometry" />
        </mxCell>
        <mxCell id="QzvvF3R52LffJEx-eBrv-52" value="0.7" style="text;html=1;align=center;verticalAlign=middle;resizable=0;points=[];autosize=1;strokeColor=none;fillColor=none;" parent="1" vertex="1">
          <mxGeometry x="330" y="2328" width="40" height="30" as="geometry" />
        </mxCell>
        <mxCell id="QzvvF3R52LffJEx-eBrv-54" value="Null" style="whiteSpace=wrap;html=1;fillColor=#fff2cc;strokeColor=#d6b656;" parent="1" vertex="1">
          <mxGeometry x="465" y="2510" width="120" height="40" as="geometry" />
        </mxCell>
        <mxCell id="QzvvF3R52LffJEx-eBrv-55" value="" style="whiteSpace=wrap;html=1;" parent="1" vertex="1">
          <mxGeometry x="465" y="2550" width="120" height="40" as="geometry" />
        </mxCell>
        <mxCell id="QzvvF3R52LffJEx-eBrv-56" value="" style="whiteSpace=wrap;html=1;" parent="1" vertex="1">
          <mxGeometry x="465" y="2590" width="120" height="40" as="geometry" />
        </mxCell>
        <mxCell id="QzvvF3R52LffJEx-eBrv-57" value="" style="whiteSpace=wrap;html=1;" parent="1" vertex="1">
          <mxGeometry x="465" y="2630" width="120" height="40" as="geometry" />
        </mxCell>
        <mxCell id="QzvvF3R52LffJEx-eBrv-58" value="" style="whiteSpace=wrap;html=1;" parent="1" vertex="1">
          <mxGeometry x="465" y="2670" width="120" height="40" as="geometry" />
        </mxCell>
        <mxCell id="QzvvF3R52LffJEx-eBrv-59" value="0" style="text;html=1;align=center;verticalAlign=middle;resizable=0;points=[];autosize=1;strokeColor=none;fillColor=none;" parent="1" vertex="1">
          <mxGeometry x="420" y="2510" width="30" height="30" as="geometry" />
        </mxCell>
        <mxCell id="QzvvF3R52LffJEx-eBrv-60" value="1" style="text;html=1;align=center;verticalAlign=middle;resizable=0;points=[];autosize=1;strokeColor=none;fillColor=none;" parent="1" vertex="1">
          <mxGeometry x="420" y="2548" width="30" height="30" as="geometry" />
        </mxCell>
        <mxCell id="QzvvF3R52LffJEx-eBrv-61" value="2" style="text;html=1;align=center;verticalAlign=middle;resizable=0;points=[];autosize=1;strokeColor=none;fillColor=none;" parent="1" vertex="1">
          <mxGeometry x="420" y="2588" width="30" height="30" as="geometry" />
        </mxCell>
        <mxCell id="QzvvF3R52LffJEx-eBrv-62" value="3" style="text;html=1;align=center;verticalAlign=middle;resizable=0;points=[];autosize=1;strokeColor=none;fillColor=none;" parent="1" vertex="1">
          <mxGeometry x="430" y="2628" width="30" height="30" as="geometry" />
        </mxCell>
        <mxCell id="QzvvF3R52LffJEx-eBrv-63" value="4" style="text;html=1;align=center;verticalAlign=middle;resizable=0;points=[];autosize=1;strokeColor=none;fillColor=none;" parent="1" vertex="1">
          <mxGeometry x="430" y="2678" width="30" height="30" as="geometry" />
        </mxCell>
        <mxCell id="QzvvF3R52LffJEx-eBrv-66" value="Null" style="whiteSpace=wrap;html=1;fillColor=#fff2cc;strokeColor=#d6b656;" parent="1" vertex="1">
          <mxGeometry x="470" y="2708" width="120" height="40" as="geometry" />
        </mxCell>
        <mxCell id="QzvvF3R52LffJEx-eBrv-67" value="" style="whiteSpace=wrap;html=1;" parent="1" vertex="1">
          <mxGeometry x="460" y="2740" width="120" height="40" as="geometry" />
        </mxCell>
        <mxCell id="QzvvF3R52LffJEx-eBrv-68" value="" style="whiteSpace=wrap;html=1;" parent="1" vertex="1">
          <mxGeometry x="460" y="2780" width="120" height="40" as="geometry" />
        </mxCell>
        <mxCell id="QzvvF3R52LffJEx-eBrv-69" value="" style="whiteSpace=wrap;html=1;" parent="1" vertex="1">
          <mxGeometry x="460" y="2820" width="120" height="40" as="geometry" />
        </mxCell>
        <mxCell id="QzvvF3R52LffJEx-eBrv-70" value="" style="whiteSpace=wrap;html=1;" parent="1" vertex="1">
          <mxGeometry x="460" y="2860" width="120" height="40" as="geometry" />
        </mxCell>
        <mxCell id="QzvvF3R52LffJEx-eBrv-71" value="0" style="text;html=1;align=center;verticalAlign=middle;resizable=0;points=[];autosize=1;strokeColor=none;fillColor=none;" parent="1" vertex="1">
          <mxGeometry x="415" y="2700" width="30" height="30" as="geometry" />
        </mxCell>
        <mxCell id="QzvvF3R52LffJEx-eBrv-72" value="1" style="text;html=1;align=center;verticalAlign=middle;resizable=0;points=[];autosize=1;strokeColor=none;fillColor=none;" parent="1" vertex="1">
          <mxGeometry x="415" y="2738" width="30" height="30" as="geometry" />
        </mxCell>
        <mxCell id="QzvvF3R52LffJEx-eBrv-73" value="2" style="text;html=1;align=center;verticalAlign=middle;resizable=0;points=[];autosize=1;strokeColor=none;fillColor=none;" parent="1" vertex="1">
          <mxGeometry x="415" y="2778" width="30" height="30" as="geometry" />
        </mxCell>
        <mxCell id="QzvvF3R52LffJEx-eBrv-74" value="3" style="text;html=1;align=center;verticalAlign=middle;resizable=0;points=[];autosize=1;strokeColor=none;fillColor=none;" parent="1" vertex="1">
          <mxGeometry x="425" y="2818" width="30" height="30" as="geometry" />
        </mxCell>
        <mxCell id="QzvvF3R52LffJEx-eBrv-75" value="4" style="text;html=1;align=center;verticalAlign=middle;resizable=0;points=[];autosize=1;strokeColor=none;fillColor=none;" parent="1" vertex="1">
          <mxGeometry x="425" y="2868" width="30" height="30" as="geometry" />
        </mxCell>
        <mxCell id="QzvvF3R52LffJEx-eBrv-76" value="Rehashed" style="text;html=1;align=center;verticalAlign=middle;resizable=0;points=[];autosize=1;strokeColor=none;fillColor=none;" parent="1" vertex="1">
          <mxGeometry x="420" y="2378" width="80" height="30" as="geometry" />
        </mxCell>
        <mxCell id="fN5Yrmqen3N6uePxnVH--3" style="edgeStyle=none;rounded=0;orthogonalLoop=1;jettySize=auto;html=1;" parent="1" source="fN5Yrmqen3N6uePxnVH--1" edge="1">
          <mxGeometry relative="1" as="geometry">
            <mxPoint x="280" y="3040" as="targetPoint" />
          </mxGeometry>
        </mxCell>
        <mxCell id="fN5Yrmqen3N6uePxnVH--5" style="edgeStyle=none;rounded=0;orthogonalLoop=1;jettySize=auto;html=1;" parent="1" source="fN5Yrmqen3N6uePxnVH--1" edge="1">
          <mxGeometry relative="1" as="geometry">
            <mxPoint x="380" y="3040" as="targetPoint" />
          </mxGeometry>
        </mxCell>
        <mxCell id="fN5Yrmqen3N6uePxnVH--1" value="10" style="text;html=1;align=center;verticalAlign=middle;resizable=0;points=[];autosize=1;strokeColor=none;fillColor=none;" parent="1" vertex="1">
          <mxGeometry x="310" y="2988" width="40" height="30" as="geometry" />
        </mxCell>
        <mxCell id="fN5Yrmqen3N6uePxnVH--7" style="edgeStyle=none;rounded=0;orthogonalLoop=1;jettySize=auto;html=1;" parent="1" source="fN5Yrmqen3N6uePxnVH--4" edge="1">
          <mxGeometry relative="1" as="geometry">
            <mxPoint x="220" y="3100" as="targetPoint" />
          </mxGeometry>
        </mxCell>
        <mxCell id="fN5Yrmqen3N6uePxnVH--9" style="edgeStyle=none;rounded=0;orthogonalLoop=1;jettySize=auto;html=1;" parent="1" source="fN5Yrmqen3N6uePxnVH--4" edge="1">
          <mxGeometry relative="1" as="geometry">
            <mxPoint x="310" y="3110" as="targetPoint" />
          </mxGeometry>
        </mxCell>
        <mxCell id="fN5Yrmqen3N6uePxnVH--4" value="5" style="text;html=1;align=center;verticalAlign=middle;resizable=0;points=[];autosize=1;strokeColor=none;fillColor=none;" parent="1" vertex="1">
          <mxGeometry x="255" y="3038" width="30" height="30" as="geometry" />
        </mxCell>
        <mxCell id="fN5Yrmqen3N6uePxnVH--6" value="3" style="text;html=1;align=center;verticalAlign=middle;resizable=0;points=[];autosize=1;strokeColor=none;fillColor=none;" parent="1" vertex="1">
          <mxGeometry x="375" y="3038" width="30" height="30" as="geometry" />
        </mxCell>
        <mxCell id="fN5Yrmqen3N6uePxnVH--8" value="4" style="text;html=1;align=center;verticalAlign=middle;resizable=0;points=[];autosize=1;strokeColor=none;fillColor=none;" parent="1" vertex="1">
          <mxGeometry x="195" y="3098" width="30" height="30" as="geometry" />
        </mxCell>
        <mxCell id="fN5Yrmqen3N6uePxnVH--10" value="1" style="text;html=1;align=center;verticalAlign=middle;resizable=0;points=[];autosize=1;strokeColor=none;fillColor=none;" parent="1" vertex="1">
          <mxGeometry x="295" y="3108" width="30" height="30" as="geometry" />
        </mxCell>
        <mxCell id="fN5Yrmqen3N6uePxnVH--12" style="edgeStyle=none;rounded=0;orthogonalLoop=1;jettySize=auto;html=1;" parent="1" source="fN5Yrmqen3N6uePxnVH--11" edge="1">
          <mxGeometry relative="1" as="geometry">
            <mxPoint x="560" y="3130" as="targetPoint" />
          </mxGeometry>
        </mxCell>
        <mxCell id="fN5Yrmqen3N6uePxnVH--14" style="edgeStyle=none;rounded=0;orthogonalLoop=1;jettySize=auto;html=1;" parent="1" source="fN5Yrmqen3N6uePxnVH--11" edge="1">
          <mxGeometry relative="1" as="geometry">
            <mxPoint x="700" y="3130" as="targetPoint" />
          </mxGeometry>
        </mxCell>
        <mxCell id="fN5Yrmqen3N6uePxnVH--11" value="5" style="text;html=1;align=center;verticalAlign=middle;resizable=0;points=[];autosize=1;strokeColor=none;fillColor=none;" parent="1" vertex="1">
          <mxGeometry x="625" y="3048" width="30" height="30" as="geometry" />
        </mxCell>
        <mxCell id="fN5Yrmqen3N6uePxnVH--16" style="edgeStyle=none;rounded=0;orthogonalLoop=1;jettySize=auto;html=1;" parent="1" source="fN5Yrmqen3N6uePxnVH--13" edge="1">
          <mxGeometry relative="1" as="geometry">
            <mxPoint x="500" y="3190" as="targetPoint" />
          </mxGeometry>
        </mxCell>
        <mxCell id="fN5Yrmqen3N6uePxnVH--13" value="4" style="text;html=1;align=center;verticalAlign=middle;resizable=0;points=[];autosize=1;strokeColor=none;fillColor=none;" parent="1" vertex="1">
          <mxGeometry x="545" y="3128" width="30" height="30" as="geometry" />
        </mxCell>
        <mxCell id="fN5Yrmqen3N6uePxnVH--15" value="3" style="text;html=1;align=center;verticalAlign=middle;resizable=0;points=[];autosize=1;strokeColor=none;fillColor=none;" parent="1" vertex="1">
          <mxGeometry x="685" y="3138" width="30" height="30" as="geometry" />
        </mxCell>
        <mxCell id="fN5Yrmqen3N6uePxnVH--17" value="1" style="text;html=1;align=center;verticalAlign=middle;resizable=0;points=[];autosize=1;strokeColor=none;fillColor=none;" parent="1" vertex="1">
          <mxGeometry x="475" y="3188" width="30" height="30" as="geometry" />
        </mxCell>
        <mxCell id="fN5Yrmqen3N6uePxnVH--19" style="edgeStyle=none;rounded=0;orthogonalLoop=1;jettySize=auto;html=1;" parent="1" source="fN5Yrmqen3N6uePxnVH--18" edge="1">
          <mxGeometry relative="1" as="geometry">
            <mxPoint x="830" y="3080" as="targetPoint" />
          </mxGeometry>
        </mxCell>
        <mxCell id="fN5Yrmqen3N6uePxnVH--21" style="edgeStyle=none;rounded=0;orthogonalLoop=1;jettySize=auto;html=1;" parent="1" source="fN5Yrmqen3N6uePxnVH--18" edge="1">
          <mxGeometry relative="1" as="geometry">
            <mxPoint x="940" y="3080" as="targetPoint" />
          </mxGeometry>
        </mxCell>
        <mxCell id="fN5Yrmqen3N6uePxnVH--18" value="4" style="text;html=1;align=center;verticalAlign=middle;resizable=0;points=[];autosize=1;strokeColor=none;fillColor=none;" parent="1" vertex="1">
          <mxGeometry x="865" y="3018" width="30" height="30" as="geometry" />
        </mxCell>
        <mxCell id="fN5Yrmqen3N6uePxnVH--20" value="1" style="text;html=1;align=center;verticalAlign=middle;resizable=0;points=[];autosize=1;strokeColor=none;fillColor=none;" parent="1" vertex="1">
          <mxGeometry x="805" y="3078" width="30" height="30" as="geometry" />
        </mxCell>
        <mxCell id="fN5Yrmqen3N6uePxnVH--22" value="3" style="text;html=1;align=center;verticalAlign=middle;resizable=0;points=[];autosize=1;strokeColor=none;fillColor=none;" parent="1" vertex="1">
          <mxGeometry x="925" y="3078" width="30" height="30" as="geometry" />
        </mxCell>
        <mxCell id="fN5Yrmqen3N6uePxnVH--25" style="edgeStyle=none;rounded=0;orthogonalLoop=1;jettySize=auto;html=1;" parent="1" source="fN5Yrmqen3N6uePxnVH--23" edge="1">
          <mxGeometry relative="1" as="geometry">
            <mxPoint x="760" y="3020" as="targetPoint" />
          </mxGeometry>
        </mxCell>
        <mxCell id="fN5Yrmqen3N6uePxnVH--23" value="1" style="text;html=1;align=center;verticalAlign=middle;resizable=0;points=[];autosize=1;strokeColor=none;fillColor=none;" parent="1" vertex="1">
          <mxGeometry x="775" y="2958" width="30" height="30" as="geometry" />
        </mxCell>
        <mxCell id="fN5Yrmqen3N6uePxnVH--26" value="3" style="text;html=1;align=center;verticalAlign=middle;resizable=0;points=[];autosize=1;strokeColor=none;fillColor=none;" parent="1" vertex="1">
          <mxGeometry x="735" y="3028" width="30" height="30" as="geometry" />
        </mxCell>
      </root>
    </mxGraphModel>
  </diagram>
  <diagram id="uekkwxaYCOUauZXCNx6o" name="Java">
    <mxGraphModel dx="1106" dy="605" grid="1" gridSize="10" guides="1" tooltips="1" connect="1" arrows="1" fold="1" page="1" pageScale="1" pageWidth="850" pageHeight="1100" math="0" shadow="0">
      <root>
        <mxCell id="0" />
        <mxCell id="1" parent="0" />
        <mxCell id="QlxuL96IdGzMY-sUSq4Z-1" value="class A" style="whiteSpace=wrap;html=1;" parent="1" vertex="1">
          <mxGeometry x="80" y="20" width="120" height="40" as="geometry" />
        </mxCell>
        <mxCell id="QlxuL96IdGzMY-sUSq4Z-3" style="edgeStyle=orthogonalEdgeStyle;rounded=0;orthogonalLoop=1;jettySize=auto;html=1;" parent="1" source="QlxuL96IdGzMY-sUSq4Z-2" target="QlxuL96IdGzMY-sUSq4Z-1" edge="1">
          <mxGeometry relative="1" as="geometry" />
        </mxCell>
        <mxCell id="QlxuL96IdGzMY-sUSq4Z-2" value="class b" style="whiteSpace=wrap;html=1;" parent="1" vertex="1">
          <mxGeometry x="80" y="150" width="120" height="40" as="geometry" />
        </mxCell>
        <mxCell id="QlxuL96IdGzMY-sUSq4Z-4" value="1) Single" style="text;html=1;align=center;verticalAlign=middle;resizable=0;points=[];autosize=1;strokeColor=none;fillColor=none;" parent="1" vertex="1">
          <mxGeometry x="100" y="208" width="70" height="30" as="geometry" />
        </mxCell>
        <mxCell id="QlxuL96IdGzMY-sUSq4Z-5" value="class A" style="whiteSpace=wrap;html=1;" parent="1" vertex="1">
          <mxGeometry x="320" y="20" width="120" height="40" as="geometry" />
        </mxCell>
        <mxCell id="QlxuL96IdGzMY-sUSq4Z-6" style="edgeStyle=orthogonalEdgeStyle;rounded=0;orthogonalLoop=1;jettySize=auto;html=1;" parent="1" source="QlxuL96IdGzMY-sUSq4Z-7" target="QlxuL96IdGzMY-sUSq4Z-5" edge="1">
          <mxGeometry relative="1" as="geometry" />
        </mxCell>
        <mxCell id="QlxuL96IdGzMY-sUSq4Z-7" value="class b" style="whiteSpace=wrap;html=1;" parent="1" vertex="1">
          <mxGeometry x="320" y="90" width="120" height="40" as="geometry" />
        </mxCell>
        <mxCell id="QlxuL96IdGzMY-sUSq4Z-9" style="edgeStyle=orthogonalEdgeStyle;rounded=0;orthogonalLoop=1;jettySize=auto;html=1;entryX=0.5;entryY=1;entryDx=0;entryDy=0;" parent="1" source="QlxuL96IdGzMY-sUSq4Z-8" target="QlxuL96IdGzMY-sUSq4Z-7" edge="1">
          <mxGeometry relative="1" as="geometry" />
        </mxCell>
        <mxCell id="QlxuL96IdGzMY-sUSq4Z-8" value="class c" style="whiteSpace=wrap;html=1;" parent="1" vertex="1">
          <mxGeometry x="320" y="160" width="120" height="40" as="geometry" />
        </mxCell>
        <mxCell id="QlxuL96IdGzMY-sUSq4Z-10" value="2. Multilevel" style="text;html=1;align=center;verticalAlign=middle;resizable=0;points=[];autosize=1;strokeColor=none;fillColor=none;" parent="1" vertex="1">
          <mxGeometry x="335" y="218" width="90" height="30" as="geometry" />
        </mxCell>
        <mxCell id="QlxuL96IdGzMY-sUSq4Z-13" value="" style="edgeStyle=orthogonalEdgeStyle;rounded=0;orthogonalLoop=1;jettySize=auto;html=1;" parent="1" source="QlxuL96IdGzMY-sUSq4Z-11" target="QlxuL96IdGzMY-sUSq4Z-12" edge="1">
          <mxGeometry relative="1" as="geometry" />
        </mxCell>
        <mxCell id="QlxuL96IdGzMY-sUSq4Z-15" value="" style="edgeStyle=orthogonalEdgeStyle;rounded=0;orthogonalLoop=1;jettySize=auto;html=1;" parent="1" source="QlxuL96IdGzMY-sUSq4Z-11" target="QlxuL96IdGzMY-sUSq4Z-14" edge="1">
          <mxGeometry relative="1" as="geometry" />
        </mxCell>
        <mxCell id="QlxuL96IdGzMY-sUSq4Z-11" value="class A" style="whiteSpace=wrap;html=1;" parent="1" vertex="1">
          <mxGeometry x="600" y="30" width="120" height="40" as="geometry" />
        </mxCell>
        <mxCell id="QlxuL96IdGzMY-sUSq4Z-12" value="class b" style="whiteSpace=wrap;html=1;" parent="1" vertex="1">
          <mxGeometry x="500" y="140" width="120" height="40" as="geometry" />
        </mxCell>
        <mxCell id="QlxuL96IdGzMY-sUSq4Z-14" value="class c" style="whiteSpace=wrap;html=1;" parent="1" vertex="1">
          <mxGeometry x="700" y="140" width="120" height="40" as="geometry" />
        </mxCell>
        <mxCell id="QlxuL96IdGzMY-sUSq4Z-16" value="3) Hierarchical" style="text;html=1;align=center;verticalAlign=middle;resizable=0;points=[];autosize=1;strokeColor=none;fillColor=none;" parent="1" vertex="1">
          <mxGeometry x="590" y="208" width="100" height="30" as="geometry" />
        </mxCell>
        <mxCell id="QlxuL96IdGzMY-sUSq4Z-18" value="class A" style="whiteSpace=wrap;html=1;strokeColor=#FF0000;" parent="1" vertex="1">
          <mxGeometry x="50" y="300" width="120" height="40" as="geometry" />
        </mxCell>
        <mxCell id="QlxuL96IdGzMY-sUSq4Z-19" value="class B" style="whiteSpace=wrap;html=1;strokeColor=#FF0000;" parent="1" vertex="1">
          <mxGeometry x="270" y="300" width="120" height="40" as="geometry" />
        </mxCell>
        <mxCell id="QlxuL96IdGzMY-sUSq4Z-21" style="edgeStyle=orthogonalEdgeStyle;rounded=0;orthogonalLoop=1;jettySize=auto;html=1;entryX=0.5;entryY=1;entryDx=0;entryDy=0;strokeColor=#FF0000;" parent="1" source="QlxuL96IdGzMY-sUSq4Z-20" target="QlxuL96IdGzMY-sUSq4Z-18" edge="1">
          <mxGeometry relative="1" as="geometry" />
        </mxCell>
        <mxCell id="QlxuL96IdGzMY-sUSq4Z-20" value="class C" style="whiteSpace=wrap;html=1;strokeColor=#FF0000;" parent="1" vertex="1">
          <mxGeometry x="160" y="430" width="120" height="40" as="geometry" />
        </mxCell>
        <mxCell id="QlxuL96IdGzMY-sUSq4Z-22" style="edgeStyle=orthogonalEdgeStyle;rounded=0;orthogonalLoop=1;jettySize=auto;html=1;entryX=0.608;entryY=0.975;entryDx=0;entryDy=0;entryPerimeter=0;strokeColor=#FF0000;" parent="1" source="QlxuL96IdGzMY-sUSq4Z-20" target="QlxuL96IdGzMY-sUSq4Z-19" edge="1">
          <mxGeometry relative="1" as="geometry" />
        </mxCell>
        <mxCell id="QlxuL96IdGzMY-sUSq4Z-23" value="Multiple" style="text;html=1;align=center;verticalAlign=middle;resizable=0;points=[];autosize=1;strokeColor=#FF0000;fillColor=none;" parent="1" vertex="1">
          <mxGeometry x="130" y="490" width="60" height="30" as="geometry" />
        </mxCell>
        <mxCell id="QlxuL96IdGzMY-sUSq4Z-38" style="edgeStyle=orthogonalEdgeStyle;rounded=0;orthogonalLoop=1;jettySize=auto;html=1;strokeColor=#FF0000;" parent="1" source="QlxuL96IdGzMY-sUSq4Z-30" target="QlxuL96IdGzMY-sUSq4Z-37" edge="1">
          <mxGeometry relative="1" as="geometry" />
        </mxCell>
        <mxCell id="QlxuL96IdGzMY-sUSq4Z-30" value="class A" style="whiteSpace=wrap;html=1;strokeColor=#FF0000;" parent="1" vertex="1">
          <mxGeometry x="450" y="390" width="120" height="40" as="geometry" />
        </mxCell>
        <mxCell id="QlxuL96IdGzMY-sUSq4Z-31" value="class B" style="whiteSpace=wrap;html=1;strokeColor=#FF0000;" parent="1" vertex="1">
          <mxGeometry x="670" y="390" width="120" height="40" as="geometry" />
        </mxCell>
        <mxCell id="QlxuL96IdGzMY-sUSq4Z-32" style="edgeStyle=orthogonalEdgeStyle;rounded=0;orthogonalLoop=1;jettySize=auto;html=1;entryX=0.5;entryY=1;entryDx=0;entryDy=0;strokeColor=#FF0000;" parent="1" source="QlxuL96IdGzMY-sUSq4Z-33" target="QlxuL96IdGzMY-sUSq4Z-30" edge="1">
          <mxGeometry relative="1" as="geometry" />
        </mxCell>
        <mxCell id="QlxuL96IdGzMY-sUSq4Z-33" value="class C" style="whiteSpace=wrap;html=1;strokeColor=#FF0000;" parent="1" vertex="1">
          <mxGeometry x="560" y="520" width="120" height="40" as="geometry" />
        </mxCell>
        <mxCell id="QlxuL96IdGzMY-sUSq4Z-34" style="edgeStyle=orthogonalEdgeStyle;rounded=0;orthogonalLoop=1;jettySize=auto;html=1;entryX=0.608;entryY=0.975;entryDx=0;entryDy=0;entryPerimeter=0;strokeColor=#FF0000;" parent="1" source="QlxuL96IdGzMY-sUSq4Z-33" target="QlxuL96IdGzMY-sUSq4Z-31" edge="1">
          <mxGeometry relative="1" as="geometry" />
        </mxCell>
        <mxCell id="QlxuL96IdGzMY-sUSq4Z-35" value="Hybrid" style="text;html=1;align=center;verticalAlign=middle;resizable=0;points=[];autosize=1;strokeColor=#FF0000;fillColor=none;" parent="1" vertex="1">
          <mxGeometry x="530" y="580" width="60" height="30" as="geometry" />
        </mxCell>
        <mxCell id="QlxuL96IdGzMY-sUSq4Z-37" value="class D" style="whiteSpace=wrap;html=1;strokeColor=#FF0000;" parent="1" vertex="1">
          <mxGeometry x="560" y="280" width="120" height="40" as="geometry" />
        </mxCell>
        <mxCell id="QlxuL96IdGzMY-sUSq4Z-39" style="edgeStyle=orthogonalEdgeStyle;rounded=0;orthogonalLoop=1;jettySize=auto;html=1;entryX=0.6;entryY=0.925;entryDx=0;entryDy=0;entryPerimeter=0;strokeColor=#FF0000;" parent="1" source="QlxuL96IdGzMY-sUSq4Z-31" target="QlxuL96IdGzMY-sUSq4Z-37" edge="1">
          <mxGeometry relative="1" as="geometry" />
        </mxCell>
        <mxCell id="QlxuL96IdGzMY-sUSq4Z-40" value="a()" style="text;html=1;align=center;verticalAlign=middle;resizable=0;points=[];autosize=1;strokeColor=#FF0000;fillColor=none;" parent="1" vertex="1">
          <mxGeometry x="60" y="268" width="40" height="30" as="geometry" />
        </mxCell>
        <mxCell id="QlxuL96IdGzMY-sUSq4Z-41" value="b()" style="text;html=1;align=center;verticalAlign=middle;resizable=0;points=[];autosize=1;strokeColor=#FF0000;fillColor=none;" parent="1" vertex="1">
          <mxGeometry x="320" y="268" width="40" height="30" as="geometry" />
        </mxCell>
        <mxCell id="AvMEJpUIik-U4ZseIZUl-1" value="Memory&amp;nbsp; Management" style="text;html=1;align=center;verticalAlign=middle;resizable=0;points=[];autosize=1;strokeColor=none;fillColor=none;fontStyle=1" parent="1" vertex="1">
          <mxGeometry x="440" y="640" width="140" height="30" as="geometry" />
        </mxCell>
        <mxCell id="AvMEJpUIik-U4ZseIZUl-2" value="" style="whiteSpace=wrap;html=1;" parent="1" vertex="1">
          <mxGeometry x="40" y="720" width="760" height="280" as="geometry" />
        </mxCell>
        <mxCell id="AvMEJpUIik-U4ZseIZUl-3" value="" style="rounded=0;whiteSpace=wrap;html=1;fillColor=#d5e8d4;strokeColor=#82b366;" parent="1" vertex="1">
          <mxGeometry x="120" y="745" width="145" height="230" as="geometry" />
        </mxCell>
        <mxCell id="AvMEJpUIik-U4ZseIZUl-4" value="" style="rounded=0;whiteSpace=wrap;html=1;fillColor=#e1d5e7;strokeColor=#9673a6;" parent="1" vertex="1">
          <mxGeometry x="270" y="745" width="280" height="230" as="geometry" />
        </mxCell>
        <mxCell id="AvMEJpUIik-U4ZseIZUl-5" value="Method&lt;div&gt;Area&lt;/div&gt;" style="rounded=0;whiteSpace=wrap;html=1;fillColor=#f8cecc;strokeColor=#b85450;" parent="1" vertex="1">
          <mxGeometry x="50" y="745" width="60" height="230" as="geometry" />
        </mxCell>
        <mxCell id="AvMEJpUIik-U4ZseIZUl-29" style="edgeStyle=orthogonalEdgeStyle;rounded=0;orthogonalLoop=1;jettySize=auto;html=1;" parent="1" source="AvMEJpUIik-U4ZseIZUl-6" edge="1">
          <mxGeometry relative="1" as="geometry">
            <mxPoint x="600" y="1040" as="targetPoint" />
          </mxGeometry>
        </mxCell>
        <mxCell id="AvMEJpUIik-U4ZseIZUl-6" value="PC Register" style="rounded=0;whiteSpace=wrap;html=1;" parent="1" vertex="1">
          <mxGeometry x="570" y="740" width="60" height="230" as="geometry" />
        </mxCell>
        <mxCell id="AvMEJpUIik-U4ZseIZUl-7" value="Heap Memory" style="text;html=1;align=center;verticalAlign=middle;whiteSpace=wrap;rounded=0;fontStyle=1" parent="1" vertex="1">
          <mxGeometry x="105" y="970" width="95" height="30" as="geometry" />
        </mxCell>
        <mxCell id="AvMEJpUIik-U4ZseIZUl-9" value="Stack Memory" style="text;html=1;align=center;verticalAlign=middle;whiteSpace=wrap;rounded=0;fontStyle=1" parent="1" vertex="1">
          <mxGeometry x="360" y="970" width="95" height="30" as="geometry" />
        </mxCell>
        <mxCell id="AvMEJpUIik-U4ZseIZUl-10" value="" style="rounded=0;whiteSpace=wrap;html=1;" parent="1" vertex="1">
          <mxGeometry x="150" y="900" width="100" height="60" as="geometry" />
        </mxCell>
        <mxCell id="AvMEJpUIik-U4ZseIZUl-11" value="Pen" style="text;html=1;align=center;verticalAlign=middle;whiteSpace=wrap;rounded=0;" parent="1" vertex="1">
          <mxGeometry x="170" y="880" width="60" height="30" as="geometry" />
        </mxCell>
        <mxCell id="AvMEJpUIik-U4ZseIZUl-12" value="refill&lt;div&gt;write()&lt;/div&gt;" style="text;html=1;align=center;verticalAlign=middle;whiteSpace=wrap;rounded=0;" parent="1" vertex="1">
          <mxGeometry x="170" y="910" width="60" height="30" as="geometry" />
        </mxCell>
        <mxCell id="AvMEJpUIik-U4ZseIZUl-13" value="" style="rounded=0;whiteSpace=wrap;html=1;" parent="1" vertex="1">
          <mxGeometry x="150" y="800" width="100" height="60" as="geometry" />
        </mxCell>
        <mxCell id="AvMEJpUIik-U4ZseIZUl-14" value="RedPen" style="text;html=1;align=center;verticalAlign=middle;whiteSpace=wrap;rounded=0;" parent="1" vertex="1">
          <mxGeometry x="170" y="770" width="60" height="30" as="geometry" />
        </mxCell>
        <mxCell id="AvMEJpUIik-U4ZseIZUl-15" value="refill&lt;div&gt;write()&lt;/div&gt;" style="text;html=1;align=center;verticalAlign=middle;whiteSpace=wrap;rounded=0;" parent="1" vertex="1">
          <mxGeometry x="170" y="810" width="60" height="30" as="geometry" />
        </mxCell>
        <mxCell id="AvMEJpUIik-U4ZseIZUl-16" value="" style="rounded=0;whiteSpace=wrap;html=1;" parent="1" vertex="1">
          <mxGeometry x="290" y="680" width="80" height="260" as="geometry" />
        </mxCell>
        <mxCell id="AvMEJpUIik-U4ZseIZUl-17" value="main thread" style="text;html=1;align=center;verticalAlign=middle;whiteSpace=wrap;rounded=0;" parent="1" vertex="1">
          <mxGeometry x="300" y="940" width="60" height="30" as="geometry" />
        </mxCell>
        <mxCell id="AvMEJpUIik-U4ZseIZUl-18" value="" style="rounded=1;whiteSpace=wrap;html=1;fillColor=#fff2cc;strokeColor=#d6b656;" parent="1" vertex="1">
          <mxGeometry x="290" y="880" width="80" height="50" as="geometry" />
        </mxCell>
        <mxCell id="AvMEJpUIik-U4ZseIZUl-19" value="a=5" style="text;html=1;align=center;verticalAlign=middle;whiteSpace=wrap;rounded=0;" parent="1" vertex="1">
          <mxGeometry x="300" y="880" width="60" height="30" as="geometry" />
        </mxCell>
        <mxCell id="AvMEJpUIik-U4ZseIZUl-21" style="edgeStyle=orthogonalEdgeStyle;rounded=0;orthogonalLoop=1;jettySize=auto;html=1;entryX=1;entryY=0.5;entryDx=0;entryDy=0;" parent="1" source="AvMEJpUIik-U4ZseIZUl-20" target="AvMEJpUIik-U4ZseIZUl-10" edge="1">
          <mxGeometry relative="1" as="geometry" />
        </mxCell>
        <mxCell id="AvMEJpUIik-U4ZseIZUl-20" value="pen" style="text;html=1;align=center;verticalAlign=middle;whiteSpace=wrap;rounded=0;" parent="1" vertex="1">
          <mxGeometry x="310" y="900" width="50" height="30" as="geometry" />
        </mxCell>
        <mxCell id="AvMEJpUIik-U4ZseIZUl-22" value="b=5" style="rounded=1;whiteSpace=wrap;html=1;fillColor=#fff2cc;strokeColor=#d6b656;" parent="1" vertex="1">
          <mxGeometry x="290" y="810" width="80" height="50" as="geometry" />
        </mxCell>
        <mxCell id="AvMEJpUIik-U4ZseIZUl-23" value="write" style="text;html=1;align=center;verticalAlign=middle;whiteSpace=wrap;rounded=0;" parent="1" vertex="1">
          <mxGeometry x="300" y="790" width="60" height="30" as="geometry" />
        </mxCell>
        <mxCell id="AvMEJpUIik-U4ZseIZUl-24" value="" style="rounded=1;whiteSpace=wrap;html=1;fillColor=#fff2cc;strokeColor=#d6b656;" parent="1" vertex="1">
          <mxGeometry x="290" y="730" width="80" height="50" as="geometry" />
        </mxCell>
        <mxCell id="AvMEJpUIik-U4ZseIZUl-27" value="write2" style="text;html=1;align=center;verticalAlign=middle;whiteSpace=wrap;rounded=0;" parent="1" vertex="1">
          <mxGeometry x="300" y="700" width="60" height="30" as="geometry" />
        </mxCell>
        <mxCell id="AvMEJpUIik-U4ZseIZUl-28" value="Stack" style="text;html=1;align=center;verticalAlign=middle;resizable=0;points=[];autosize=1;strokeColor=none;fillColor=none;" parent="1" vertex="1">
          <mxGeometry x="305" y="648" width="50" height="30" as="geometry" />
        </mxCell>
        <mxCell id="AvMEJpUIik-U4ZseIZUl-31" value="For each thread (program counter)" style="text;html=1;align=center;verticalAlign=middle;resizable=0;points=[];autosize=1;strokeColor=none;fillColor=none;" parent="1" vertex="1">
          <mxGeometry x="505" y="1058" width="210" height="30" as="geometry" />
        </mxCell>
        <mxCell id="AvMEJpUIik-U4ZseIZUl-33" style="edgeStyle=orthogonalEdgeStyle;rounded=0;orthogonalLoop=1;jettySize=auto;html=1;" parent="1" source="AvMEJpUIik-U4ZseIZUl-32" edge="1">
          <mxGeometry relative="1" as="geometry">
            <mxPoint x="750" y="1030" as="targetPoint" />
          </mxGeometry>
        </mxCell>
        <mxCell id="AvMEJpUIik-U4ZseIZUl-32" value="Native Mehtod stacks" style="rounded=0;whiteSpace=wrap;html=1;" parent="1" vertex="1">
          <mxGeometry x="655" y="740" width="60" height="230" as="geometry" />
        </mxCell>
        <mxCell id="AvMEJpUIik-U4ZseIZUl-34" value="For native (non-java) method calls" style="text;html=1;align=center;verticalAlign=middle;resizable=0;points=[];autosize=1;strokeColor=none;fillColor=none;" parent="1" vertex="1">
          <mxGeometry x="660" y="1028" width="200" height="30" as="geometry" />
        </mxCell>
        <mxCell id="AvMEJpUIik-U4ZseIZUl-44" style="edgeStyle=orthogonalEdgeStyle;rounded=0;orthogonalLoop=1;jettySize=auto;html=1;entryX=0;entryY=0.5;entryDx=0;entryDy=0;" parent="1" source="AvMEJpUIik-U4ZseIZUl-35" target="AvMEJpUIik-U4ZseIZUl-43" edge="1">
          <mxGeometry relative="1" as="geometry" />
        </mxCell>
        <mxCell id="AvMEJpUIik-U4ZseIZUl-45" style="edgeStyle=orthogonalEdgeStyle;rounded=0;orthogonalLoop=1;jettySize=auto;html=1;" parent="1" source="AvMEJpUIik-U4ZseIZUl-35" target="AvMEJpUIik-U4ZseIZUl-38" edge="1">
          <mxGeometry relative="1" as="geometry" />
        </mxCell>
        <mxCell id="AvMEJpUIik-U4ZseIZUl-47" style="edgeStyle=orthogonalEdgeStyle;rounded=0;orthogonalLoop=1;jettySize=auto;html=1;entryX=0;entryY=0.25;entryDx=0;entryDy=0;" parent="1" source="AvMEJpUIik-U4ZseIZUl-35" target="AvMEJpUIik-U4ZseIZUl-39" edge="1">
          <mxGeometry relative="1" as="geometry" />
        </mxCell>
        <mxCell id="AvMEJpUIik-U4ZseIZUl-35" value="Procss" style="ellipse;whiteSpace=wrap;html=1;" parent="1" vertex="1">
          <mxGeometry x="200" y="1190" width="80" height="80" as="geometry" />
        </mxCell>
        <mxCell id="AvMEJpUIik-U4ZseIZUl-37" value="" style="triangle;whiteSpace=wrap;html=1;" parent="1" vertex="1">
          <mxGeometry x="265" y="1470" width="60" height="80" as="geometry" />
        </mxCell>
        <mxCell id="AvMEJpUIik-U4ZseIZUl-38" value="" style="triangle;whiteSpace=wrap;html=1;" parent="1" vertex="1">
          <mxGeometry x="172.5" y="1470" width="60" height="80" as="geometry" />
        </mxCell>
        <mxCell id="AvMEJpUIik-U4ZseIZUl-39" value="" style="triangle;whiteSpace=wrap;html=1;" parent="1" vertex="1">
          <mxGeometry x="365" y="1470" width="60" height="80" as="geometry" />
        </mxCell>
        <mxCell id="AvMEJpUIik-U4ZseIZUl-41" value="Single core process - can process one thing at a time" style="text;html=1;align=center;verticalAlign=middle;resizable=0;points=[];autosize=1;strokeColor=none;fillColor=none;fontStyle=1" parent="1" vertex="1">
          <mxGeometry x="575" y="1190" width="310" height="30" as="geometry" />
        </mxCell>
        <mxCell id="AvMEJpUIik-U4ZseIZUl-43" value="" style="whiteSpace=wrap;html=1;aspect=fixed;" parent="1" vertex="1">
          <mxGeometry x="390" y="1143.75" width="172.5" height="172.5" as="geometry" />
        </mxCell>
        <mxCell id="AvMEJpUIik-U4ZseIZUl-46" style="edgeStyle=orthogonalEdgeStyle;rounded=0;orthogonalLoop=1;jettySize=auto;html=1;entryX=0.1;entryY=0;entryDx=0;entryDy=0;entryPerimeter=0;" parent="1" source="AvMEJpUIik-U4ZseIZUl-35" target="AvMEJpUIik-U4ZseIZUl-37" edge="1">
          <mxGeometry relative="1" as="geometry" />
        </mxCell>
        <mxCell id="AvMEJpUIik-U4ZseIZUl-48" value="" style="rounded=0;whiteSpace=wrap;html=1;" parent="1" vertex="1">
          <mxGeometry x="385" y="760" width="75" height="180" as="geometry" />
        </mxCell>
        <mxCell id="AvMEJpUIik-U4ZseIZUl-49" value="T1" style="text;html=1;align=center;verticalAlign=middle;whiteSpace=wrap;rounded=0;" parent="1" vertex="1">
          <mxGeometry x="395" y="940" width="60" height="30" as="geometry" />
        </mxCell>
        <mxCell id="AvMEJpUIik-U4ZseIZUl-50" value="" style="rounded=0;whiteSpace=wrap;html=1;" parent="1" vertex="1">
          <mxGeometry x="470" y="760" width="70" height="180" as="geometry" />
        </mxCell>
        <mxCell id="AvMEJpUIik-U4ZseIZUl-51" value="T2" style="text;html=1;align=center;verticalAlign=middle;whiteSpace=wrap;rounded=0;" parent="1" vertex="1">
          <mxGeometry x="480" y="940" width="60" height="30" as="geometry" />
        </mxCell>
        <mxCell id="AvMEJpUIik-U4ZseIZUl-61" style="edgeStyle=orthogonalEdgeStyle;rounded=0;orthogonalLoop=1;jettySize=auto;html=1;entryX=0.5;entryY=0;entryDx=0;entryDy=0;" parent="1" source="AvMEJpUIik-U4ZseIZUl-52" target="AvMEJpUIik-U4ZseIZUl-53" edge="1">
          <mxGeometry relative="1" as="geometry" />
        </mxCell>
        <mxCell id="AvMEJpUIik-U4ZseIZUl-52" value="New" style="whiteSpace=wrap;html=1;fillColor=#d5e8d4;strokeColor=#82b366;fontStyle=1" parent="1" vertex="1">
          <mxGeometry x="200" y="1680" width="120" height="40" as="geometry" />
        </mxCell>
        <mxCell id="AvMEJpUIik-U4ZseIZUl-60" style="edgeStyle=orthogonalEdgeStyle;rounded=0;orthogonalLoop=1;jettySize=auto;html=1;entryX=0.5;entryY=0;entryDx=0;entryDy=0;" parent="1" source="AvMEJpUIik-U4ZseIZUl-53" target="AvMEJpUIik-U4ZseIZUl-54" edge="1">
          <mxGeometry relative="1" as="geometry" />
        </mxCell>
        <mxCell id="AvMEJpUIik-U4ZseIZUl-53" value="Runnable (Ready)" style="whiteSpace=wrap;html=1;fillColor=#d5e8d4;strokeColor=#82b366;fontStyle=1" parent="1" vertex="1">
          <mxGeometry x="200" y="1760" width="120" height="40" as="geometry" />
        </mxCell>
        <mxCell id="AvMEJpUIik-U4ZseIZUl-62" style="edgeStyle=orthogonalEdgeStyle;rounded=0;orthogonalLoop=1;jettySize=auto;html=1;" parent="1" source="AvMEJpUIik-U4ZseIZUl-54" edge="1">
          <mxGeometry relative="1" as="geometry">
            <mxPoint x="260" y="1940" as="targetPoint" />
          </mxGeometry>
        </mxCell>
        <mxCell id="AvMEJpUIik-U4ZseIZUl-54" value="Running" style="whiteSpace=wrap;html=1;fillColor=#d5e8d4;strokeColor=#82b366;fontStyle=1" parent="1" vertex="1">
          <mxGeometry x="200" y="1840" width="120" height="40" as="geometry" />
        </mxCell>
        <mxCell id="AvMEJpUIik-U4ZseIZUl-58" style="edgeStyle=orthogonalEdgeStyle;rounded=0;orthogonalLoop=1;jettySize=auto;html=1;entryX=1;entryY=0.25;entryDx=0;entryDy=0;" parent="1" source="AvMEJpUIik-U4ZseIZUl-55" target="AvMEJpUIik-U4ZseIZUl-53" edge="1">
          <mxGeometry relative="1" as="geometry">
            <Array as="points">
              <mxPoint x="503" y="1770" />
            </Array>
          </mxGeometry>
        </mxCell>
        <mxCell id="AvMEJpUIik-U4ZseIZUl-55" value="Wait/Blocked" style="whiteSpace=wrap;html=1;fillColor=#ffe6cc;strokeColor=#d79b00;fontStyle=1" parent="1" vertex="1">
          <mxGeometry x="442.5" y="1790" width="120" height="40" as="geometry" />
        </mxCell>
        <mxCell id="AvMEJpUIik-U4ZseIZUl-56" style="edgeStyle=orthogonalEdgeStyle;rounded=0;orthogonalLoop=1;jettySize=auto;html=1;entryX=0.563;entryY=1.05;entryDx=0;entryDy=0;entryPerimeter=0;" parent="1" source="AvMEJpUIik-U4ZseIZUl-54" target="AvMEJpUIik-U4ZseIZUl-55" edge="1">
          <mxGeometry relative="1" as="geometry" />
        </mxCell>
        <mxCell id="AvMEJpUIik-U4ZseIZUl-57" value="wait, sleep" style="text;html=1;align=center;verticalAlign=middle;resizable=0;points=[];autosize=1;strokeColor=none;fillColor=none;" parent="1" vertex="1">
          <mxGeometry x="470" y="1858" width="80" height="30" as="geometry" />
        </mxCell>
        <mxCell id="AvMEJpUIik-U4ZseIZUl-63" value="Terminated" style="whiteSpace=wrap;html=1;fillColor=#f8cecc;strokeColor=#b85450;fontStyle=1" parent="1" vertex="1">
          <mxGeometry x="200" y="1940" width="120" height="40" as="geometry" />
        </mxCell>
        <mxCell id="AvMEJpUIik-U4ZseIZUl-65" value="run" style="rounded=0;whiteSpace=wrap;html=1;fillColor=#fff2cc;strokeColor=#d6b656;" parent="1" vertex="1">
          <mxGeometry x="392.5" y="905" width="60" height="35" as="geometry" />
        </mxCell>
        <mxCell id="AvMEJpUIik-U4ZseIZUl-66" value="1000" style="rounded=0;whiteSpace=wrap;html=1;fillColor=#fff2cc;strokeColor=#d6b656;" parent="1" vertex="1">
          <mxGeometry x="100" y="2110" width="120" height="60" as="geometry" />
        </mxCell>
        <mxCell id="AvMEJpUIik-U4ZseIZUl-67" value="" style="rounded=0;whiteSpace=wrap;html=1;fillColor=#fff2cc;strokeColor=#d6b656;" parent="1" vertex="1">
          <mxGeometry x="400" y="2110" width="120" height="60" as="geometry" />
        </mxCell>
        <mxCell id="AvMEJpUIik-U4ZseIZUl-68" value="thiru" style="text;html=1;align=center;verticalAlign=middle;resizable=0;points=[];autosize=1;strokeColor=none;fillColor=none;" parent="1" vertex="1">
          <mxGeometry x="100" y="2020" width="50" height="30" as="geometry" />
        </mxCell>
        <mxCell id="AvMEJpUIik-U4ZseIZUl-69" value="manoj" style="text;html=1;align=center;verticalAlign=middle;resizable=0;points=[];autosize=1;strokeColor=none;fillColor=none;" parent="1" vertex="1">
          <mxGeometry x="190" y="2020" width="60" height="30" as="geometry" />
        </mxCell>
        <mxCell id="AvMEJpUIik-U4ZseIZUl-70" value="" style="ellipse;whiteSpace=wrap;html=1;" parent="1" vertex="1">
          <mxGeometry x="655" y="1920" width="120" height="80" as="geometry" />
        </mxCell>
        <mxCell id="AvMEJpUIik-U4ZseIZUl-72" style="edgeStyle=orthogonalEdgeStyle;rounded=0;orthogonalLoop=1;jettySize=auto;html=1;" parent="1" source="AvMEJpUIik-U4ZseIZUl-71" edge="1">
          <mxGeometry relative="1" as="geometry">
            <mxPoint x="670" y="2030" as="targetPoint" />
          </mxGeometry>
        </mxCell>
        <mxCell id="AvMEJpUIik-U4ZseIZUl-71" value="" style="shape=process;whiteSpace=wrap;html=1;backgroundOutline=1;" parent="1" vertex="1">
          <mxGeometry x="700" y="1990" width="30" height="60" as="geometry" />
        </mxCell>
        <mxCell id="AvMEJpUIik-U4ZseIZUl-73" value="Token" style="text;html=1;align=center;verticalAlign=middle;resizable=0;points=[];autosize=1;strokeColor=none;fillColor=none;" parent="1" vertex="1">
          <mxGeometry x="620" y="2028" width="60" height="30" as="geometry" />
        </mxCell>
        <mxCell id="2y2H0Y8btTZRenlcIF36-2" style="edgeStyle=orthogonalEdgeStyle;rounded=0;orthogonalLoop=1;jettySize=auto;html=1;" parent="1" source="2y2H0Y8btTZRenlcIF36-1" edge="1">
          <mxGeometry relative="1" as="geometry">
            <mxPoint x="140" y="680" as="targetPoint" />
          </mxGeometry>
        </mxCell>
        <mxCell id="2y2H0Y8btTZRenlcIF36-1" value="&lt;span style=&quot;font-size:11.0pt;line-height:115%;&lt;br/&gt;font-family:&amp;quot;Cambria&amp;quot;,serif;mso-ascii-theme-font:minor-latin;mso-fareast-font-family:&lt;br/&gt;&amp;quot;MS Mincho&amp;quot;;mso-fareast-theme-font:minor-fareast;mso-hansi-theme-font:minor-latin;&lt;br/&gt;mso-bidi-font-family:&amp;quot;Times New Roman&amp;quot;;mso-bidi-theme-font:minor-bidi;&lt;br/&gt;mso-ansi-language:EN-US;mso-fareast-language:EN-US;mso-bidi-language:AR-SA&quot;&gt;abcd&lt;/span&gt;" style="ellipse;shape=cloud;whiteSpace=wrap;html=1;" parent="1" vertex="1">
          <mxGeometry x="120" y="740" width="60" height="50" as="geometry" />
        </mxCell>
        <mxCell id="2y2H0Y8btTZRenlcIF36-3" value="String COnstPool" style="text;html=1;align=center;verticalAlign=middle;resizable=0;points=[];autosize=1;strokeColor=none;fillColor=none;" parent="1" vertex="1">
          <mxGeometry x="40" y="638" width="120" height="30" as="geometry" />
        </mxCell>
        <mxCell id="won_dH0uzGUJI_0-9SLs-3" style="edgeStyle=orthogonalEdgeStyle;rounded=0;orthogonalLoop=1;jettySize=auto;html=1;entryX=0;entryY=0.25;entryDx=0;entryDy=0;" parent="1" source="won_dH0uzGUJI_0-9SLs-1" target="won_dH0uzGUJI_0-9SLs-2" edge="1">
          <mxGeometry relative="1" as="geometry" />
        </mxCell>
        <mxCell id="won_dH0uzGUJI_0-9SLs-1" value="client" style="whiteSpace=wrap;html=1;" parent="1" vertex="1">
          <mxGeometry x="160" y="2290" width="120" height="60" as="geometry" />
        </mxCell>
        <mxCell id="won_dH0uzGUJI_0-9SLs-16" style="edgeStyle=orthogonalEdgeStyle;rounded=0;orthogonalLoop=1;jettySize=auto;html=1;" parent="1" source="won_dH0uzGUJI_0-9SLs-2" target="won_dH0uzGUJI_0-9SLs-1" edge="1">
          <mxGeometry relative="1" as="geometry">
            <Array as="points">
              <mxPoint x="730" y="2470" />
              <mxPoint x="220" y="2470" />
            </Array>
          </mxGeometry>
        </mxCell>
        <mxCell id="won_dH0uzGUJI_0-9SLs-2" value="Server" style="whiteSpace=wrap;html=1;" parent="1" vertex="1">
          <mxGeometry x="670" y="2280" width="120" height="60" as="geometry" />
        </mxCell>
        <mxCell id="won_dH0uzGUJI_0-9SLs-9" value="/login" style="text;html=1;align=center;verticalAlign=middle;resizable=0;points=[];autosize=1;strokeColor=none;fillColor=none;" parent="1" vertex="1">
          <mxGeometry x="365" y="2288" width="50" height="30" as="geometry" />
        </mxCell>
        <mxCell id="won_dH0uzGUJI_0-9SLs-10" value="key --&amp;gt; value" style="text;html=1;align=center;verticalAlign=middle;resizable=0;points=[];autosize=1;strokeColor=none;fillColor=none;" parent="1" vertex="1">
          <mxGeometry x="860" y="2210" width="90" height="30" as="geometry" />
        </mxCell>
        <mxCell id="won_dH0uzGUJI_0-9SLs-12" style="edgeStyle=orthogonalEdgeStyle;rounded=0;orthogonalLoop=1;jettySize=auto;html=1;" parent="1" source="won_dH0uzGUJI_0-9SLs-11" edge="1">
          <mxGeometry relative="1" as="geometry">
            <mxPoint x="940" y="2310" as="targetPoint" />
          </mxGeometry>
        </mxCell>
        <mxCell id="9WRQMDpJMN0r9-Yazvew-1" style="edgeStyle=orthogonalEdgeStyle;rounded=0;orthogonalLoop=1;jettySize=auto;html=1;" edge="1" parent="1" source="won_dH0uzGUJI_0-9SLs-11">
          <mxGeometry relative="1" as="geometry">
            <mxPoint x="880" y="2350" as="targetPoint" />
            <Array as="points">
              <mxPoint x="870" y="2345" />
              <mxPoint x="881" y="2345" />
            </Array>
          </mxGeometry>
        </mxCell>
        <mxCell id="won_dH0uzGUJI_0-9SLs-11" value="123XYZ" style="text;html=1;align=center;verticalAlign=middle;resizable=0;points=[];autosize=1;strokeColor=none;fillColor=none;" parent="1" vertex="1">
          <mxGeometry x="835" y="2295" width="70" height="30" as="geometry" />
        </mxCell>
        <mxCell id="won_dH0uzGUJI_0-9SLs-13" value="username:&#39;Dhruvik&#39;&lt;div&gt;bank&lt;/div&gt;&lt;div&gt;image&lt;/div&gt;" style="rounded=0;whiteSpace=wrap;html=1;fillColor=#d5e8d4;strokeColor=#82b366;" parent="1" vertex="1">
          <mxGeometry x="960" y="2280" width="120" height="60" as="geometry" />
        </mxCell>
        <mxCell id="won_dH0uzGUJI_0-9SLs-15" value="Cookie:&lt;div&gt;JSESSIONID: 123XYZ&lt;/div&gt;" style="text;html=1;align=center;verticalAlign=middle;resizable=0;points=[];autosize=1;strokeColor=none;fillColor=none;" parent="1" vertex="1">
          <mxGeometry x="830" y="2363" width="140" height="40" as="geometry" />
        </mxCell>
        <mxCell id="won_dH0uzGUJI_0-9SLs-17" value="Cookie:&lt;div&gt;cookieId: 123XYZ&lt;/div&gt;" style="text;html=1;align=center;verticalAlign=middle;resizable=0;points=[];autosize=1;strokeColor=none;fillColor=none;" parent="1" vertex="1">
          <mxGeometry x="75" y="2350" width="120" height="40" as="geometry" />
        </mxCell>
        <mxCell id="won_dH0uzGUJI_0-9SLs-18" value="/profile" style="text;html=1;align=center;verticalAlign=middle;resizable=0;points=[];autosize=1;strokeColor=none;fillColor=none;" parent="1" vertex="1">
          <mxGeometry x="500" y="2258" width="60" height="30" as="geometry" />
        </mxCell>
        <mxCell id="won_dH0uzGUJI_0-9SLs-19" value="html" style="text;html=1;align=center;verticalAlign=middle;resizable=0;points=[];autosize=1;strokeColor=none;fillColor=none;" parent="1" vertex="1">
          <mxGeometry x="215" y="2428" width="50" height="30" as="geometry" />
        </mxCell>
        <mxCell id="9WRQMDpJMN0r9-Yazvew-2" value="HTTPSession" style="text;html=1;align=center;verticalAlign=middle;resizable=0;points=[];autosize=1;strokeColor=none;fillColor=none;" vertex="1" parent="1">
          <mxGeometry x="660" y="2488" width="100" height="30" as="geometry" />
        </mxCell>
        <mxCell id="9WRQMDpJMN0r9-Yazvew-5" style="edgeStyle=orthogonalEdgeStyle;rounded=0;orthogonalLoop=1;jettySize=auto;html=1;" edge="1" parent="1" source="9WRQMDpJMN0r9-Yazvew-3" target="9WRQMDpJMN0r9-Yazvew-4">
          <mxGeometry relative="1" as="geometry">
            <Array as="points">
              <mxPoint x="610" y="2580" />
              <mxPoint x="610" y="2580" />
            </Array>
          </mxGeometry>
        </mxCell>
        <mxCell id="9WRQMDpJMN0r9-Yazvew-3" value="client" style="rounded=0;whiteSpace=wrap;html=1;" vertex="1" parent="1">
          <mxGeometry x="370" y="2580" width="120" height="60" as="geometry" />
        </mxCell>
        <mxCell id="9WRQMDpJMN0r9-Yazvew-6" style="edgeStyle=orthogonalEdgeStyle;rounded=0;orthogonalLoop=1;jettySize=auto;html=1;fillColor=#f8cecc;strokeColor=#b85450;" edge="1" parent="1" source="9WRQMDpJMN0r9-Yazvew-4" target="9WRQMDpJMN0r9-Yazvew-3">
          <mxGeometry relative="1" as="geometry" />
        </mxCell>
        <mxCell id="9WRQMDpJMN0r9-Yazvew-4" value="Server" style="rounded=0;whiteSpace=wrap;html=1;" vertex="1" parent="1">
          <mxGeometry x="730" y="2580" width="120" height="60" as="geometry" />
        </mxCell>
        <mxCell id="9WRQMDpJMN0r9-Yazvew-8" style="edgeStyle=orthogonalEdgeStyle;rounded=0;orthogonalLoop=1;jettySize=auto;html=1;entryX=0.625;entryY=1.017;entryDx=0;entryDy=0;entryPerimeter=0;" edge="1" parent="1" source="9WRQMDpJMN0r9-Yazvew-3" target="9WRQMDpJMN0r9-Yazvew-4">
          <mxGeometry relative="1" as="geometry">
            <Array as="points">
              <mxPoint x="430" y="2660" />
              <mxPoint x="805" y="2660" />
            </Array>
          </mxGeometry>
        </mxCell>
        <mxCell id="9WRQMDpJMN0r9-Yazvew-9" value="/welcome" style="text;html=1;align=center;verticalAlign=middle;resizable=0;points=[];autosize=1;strokeColor=none;fillColor=none;" vertex="1" parent="1">
          <mxGeometry x="595" y="2658" width="70" height="30" as="geometry" />
        </mxCell>
      </root>
    </mxGraphModel>
  </diagram>
  <diagram id="Z6YpTZeGbK_lzKYUaA6B" name="MongoDB">
    <mxGraphModel dx="1956" dy="605" grid="1" gridSize="10" guides="1" tooltips="1" connect="1" arrows="1" fold="1" page="1" pageScale="1" pageWidth="850" pageHeight="1100" math="0" shadow="0">
      <root>
        <mxCell id="0" />
        <mxCell id="1" parent="0" />
        <mxCell id="B7vYEcSRjYOfFw0eyU9p-1" value="Shop" style="rounded=0;whiteSpace=wrap;html=1;fillColor=#f8cecc;strokeColor=#b85450;" vertex="1" parent="1">
          <mxGeometry x="320" y="80" width="360" height="40" as="geometry" />
        </mxCell>
        <mxCell id="B7vYEcSRjYOfFw0eyU9p-2" value="Database" style="text;html=1;align=center;verticalAlign=middle;resizable=0;points=[];autosize=1;strokeColor=none;fillColor=none;" vertex="1" parent="1">
          <mxGeometry x="140" y="90" width="70" height="30" as="geometry" />
        </mxCell>
        <mxCell id="B7vYEcSRjYOfFw0eyU9p-3" value="Users" style="rounded=1;whiteSpace=wrap;html=1;fillColor=#fff2cc;strokeColor=#d6b656;" vertex="1" parent="1">
          <mxGeometry x="320" y="160" width="120" height="40" as="geometry" />
        </mxCell>
        <mxCell id="B7vYEcSRjYOfFw0eyU9p-4" value="Orders" style="rounded=1;whiteSpace=wrap;html=1;fillColor=#fff2cc;strokeColor=#d6b656;" vertex="1" parent="1">
          <mxGeometry x="520" y="160" width="120" height="40" as="geometry" />
        </mxCell>
        <mxCell id="B7vYEcSRjYOfFw0eyU9p-5" value="Collections" style="text;html=1;align=center;verticalAlign=middle;resizable=0;points=[];autosize=1;strokeColor=none;fillColor=none;" vertex="1" parent="1">
          <mxGeometry x="130" y="158" width="80" height="30" as="geometry" />
        </mxCell>
        <mxCell id="B7vYEcSRjYOfFw0eyU9p-6" value="Documents" style="text;html=1;align=center;verticalAlign=middle;resizable=0;points=[];autosize=1;strokeColor=none;fillColor=none;" vertex="1" parent="1">
          <mxGeometry x="120" y="258" width="80" height="30" as="geometry" />
        </mxCell>
        <mxCell id="B7vYEcSRjYOfFw0eyU9p-7" value="{name: &#39;Dhruvik&#39;, age:34}" style="rounded=0;whiteSpace=wrap;html=1;" vertex="1" parent="1">
          <mxGeometry x="310" y="243" width="150" height="27" as="geometry" />
        </mxCell>
        <mxCell id="B7vYEcSRjYOfFw0eyU9p-8" value="{name: &#39;Noel&#39;}" style="rounded=0;whiteSpace=wrap;html=1;" vertex="1" parent="1">
          <mxGeometry x="310" y="280" width="140" height="27" as="geometry" />
        </mxCell>
        <mxCell id="B7vYEcSRjYOfFw0eyU9p-9" value="dhruvik" style="ellipse;whiteSpace=wrap;html=1;fillColor=#f8cecc;strokeColor=#b85450;" vertex="1" parent="1">
          <mxGeometry x="380" y="360" width="120" height="80" as="geometry" />
        </mxCell>
        <mxCell id="B7vYEcSRjYOfFw0eyU9p-10" value="" style="ellipse;whiteSpace=wrap;html=1;" vertex="1" parent="1">
          <mxGeometry x="530" y="350" width="120" height="80" as="geometry" />
        </mxCell>
        <mxCell id="B7vYEcSRjYOfFw0eyU9p-11" value="" style="ellipse;whiteSpace=wrap;html=1;" vertex="1" parent="1">
          <mxGeometry x="400" y="480" width="120" height="80" as="geometry" />
        </mxCell>
        <mxCell id="B7vYEcSRjYOfFw0eyU9p-12" value="" style="ellipse;whiteSpace=wrap;html=1;" vertex="1" parent="1">
          <mxGeometry x="550" y="470" width="120" height="80" as="geometry" />
        </mxCell>
        <mxCell id="B7vYEcSRjYOfFw0eyU9p-13" value="" style="ellipse;whiteSpace=wrap;html=1;" vertex="1" parent="1">
          <mxGeometry x="420" y="600" width="120" height="80" as="geometry" />
        </mxCell>
        <mxCell id="B7vYEcSRjYOfFw0eyU9p-17" style="edgeStyle=orthogonalEdgeStyle;rounded=0;orthogonalLoop=1;jettySize=auto;html=1;entryX=0;entryY=0.5;entryDx=0;entryDy=0;" edge="1" parent="1" source="B7vYEcSRjYOfFw0eyU9p-14" target="B7vYEcSRjYOfFw0eyU9p-13">
          <mxGeometry relative="1" as="geometry" />
        </mxCell>
        <mxCell id="B7vYEcSRjYOfFw0eyU9p-14" value="" style="ellipse;whiteSpace=wrap;html=1;" vertex="1" parent="1">
          <mxGeometry x="120" y="500" width="120" height="80" as="geometry" />
        </mxCell>
        <mxCell id="B7vYEcSRjYOfFw0eyU9p-15" value="master" style="text;html=1;align=center;verticalAlign=middle;resizable=0;points=[];autosize=1;strokeColor=none;fillColor=none;" vertex="1" parent="1">
          <mxGeometry x="130" y="458" width="60" height="30" as="geometry" />
        </mxCell>
        <mxCell id="B7vYEcSRjYOfFw0eyU9p-16" style="edgeStyle=orthogonalEdgeStyle;rounded=0;orthogonalLoop=1;jettySize=auto;html=1;entryX=0.008;entryY=0.375;entryDx=0;entryDy=0;entryPerimeter=0;" edge="1" parent="1" source="B7vYEcSRjYOfFw0eyU9p-14" target="B7vYEcSRjYOfFw0eyU9p-9">
          <mxGeometry relative="1" as="geometry" />
        </mxCell>
        <mxCell id="B7vYEcSRjYOfFw0eyU9p-18" style="edgeStyle=orthogonalEdgeStyle;rounded=0;orthogonalLoop=1;jettySize=auto;html=1;entryX=0.05;entryY=0.675;entryDx=0;entryDy=0;entryPerimeter=0;" edge="1" parent="1" source="B7vYEcSRjYOfFw0eyU9p-14" target="B7vYEcSRjYOfFw0eyU9p-11">
          <mxGeometry relative="1" as="geometry" />
        </mxCell>
        <mxCell id="B7vYEcSRjYOfFw0eyU9p-19" value="Application" style="whiteSpace=wrap;html=1;" vertex="1" parent="1">
          <mxGeometry x="80" y="720" width="120" height="40" as="geometry" />
        </mxCell>
        <mxCell id="B7vYEcSRjYOfFw0eyU9p-20" value="Data" style="whiteSpace=wrap;html=1;" vertex="1" parent="1">
          <mxGeometry x="550" y="720" width="120" height="40" as="geometry" />
        </mxCell>
        <mxCell id="B7vYEcSRjYOfFw0eyU9p-23" style="edgeStyle=orthogonalEdgeStyle;rounded=0;orthogonalLoop=1;jettySize=auto;html=1;entryX=0;entryY=0.5;entryDx=0;entryDy=0;" edge="1" parent="1" source="B7vYEcSRjYOfFw0eyU9p-21" target="B7vYEcSRjYOfFw0eyU9p-22">
          <mxGeometry relative="1" as="geometry" />
        </mxCell>
        <mxCell id="B7vYEcSRjYOfFw0eyU9p-21" value="Frontend&lt;div&gt;UI&lt;/div&gt;" style="rounded=0;whiteSpace=wrap;html=1;" vertex="1" parent="1">
          <mxGeometry x="-50" y="770" width="90" height="60" as="geometry" />
        </mxCell>
        <mxCell id="B7vYEcSRjYOfFw0eyU9p-22" value="Backend&lt;div&gt;Server&lt;/div&gt;" style="rounded=0;whiteSpace=wrap;html=1;" vertex="1" parent="1">
          <mxGeometry x="80" y="770" width="90" height="60" as="geometry" />
        </mxCell>
        <mxCell id="B7vYEcSRjYOfFw0eyU9p-28" style="edgeStyle=orthogonalEdgeStyle;rounded=0;orthogonalLoop=1;jettySize=auto;html=1;entryX=0;entryY=0.5;entryDx=0;entryDy=0;" edge="1" parent="1" source="B7vYEcSRjYOfFw0eyU9p-24" target="B7vYEcSRjYOfFw0eyU9p-25">
          <mxGeometry relative="1" as="geometry" />
        </mxCell>
        <mxCell id="B7vYEcSRjYOfFw0eyU9p-24" value="MongoDB&lt;div&gt;Server&lt;/div&gt;" style="whiteSpace=wrap;html=1;aspect=fixed;fillColor=#d5e8d4;strokeColor=#82b366;" vertex="1" parent="1">
          <mxGeometry x="470" y="780" width="80" height="80" as="geometry" />
        </mxCell>
        <mxCell id="B7vYEcSRjYOfFw0eyU9p-40" style="edgeStyle=orthogonalEdgeStyle;rounded=0;orthogonalLoop=1;jettySize=auto;html=1;entryX=0;entryY=0.25;entryDx=0;entryDy=0;" edge="1" parent="1" source="B7vYEcSRjYOfFw0eyU9p-25" target="B7vYEcSRjYOfFw0eyU9p-39">
          <mxGeometry relative="1" as="geometry">
            <Array as="points">
              <mxPoint x="650" y="880" />
              <mxPoint x="670" y="880" />
              <mxPoint x="670" y="899" />
            </Array>
          </mxGeometry>
        </mxCell>
        <mxCell id="B7vYEcSRjYOfFw0eyU9p-25" value="Storage&lt;div&gt;Engine&lt;/div&gt;" style="whiteSpace=wrap;html=1;aspect=fixed;fillColor=#d5e8d4;strokeColor=#82b366;" vertex="1" parent="1">
          <mxGeometry x="590" y="780" width="80" height="80" as="geometry" />
        </mxCell>
        <mxCell id="B7vYEcSRjYOfFw0eyU9p-26" value="" style="shape=cylinder3;whiteSpace=wrap;html=1;boundedLbl=1;backgroundOutline=1;size=15;" vertex="1" parent="1">
          <mxGeometry x="740" y="780" width="60" height="80" as="geometry" />
        </mxCell>
        <mxCell id="B7vYEcSRjYOfFw0eyU9p-27" style="edgeStyle=orthogonalEdgeStyle;rounded=0;orthogonalLoop=1;jettySize=auto;html=1;entryX=0;entryY=0.5;entryDx=0;entryDy=0;entryPerimeter=0;" edge="1" parent="1" source="B7vYEcSRjYOfFw0eyU9p-25" target="B7vYEcSRjYOfFw0eyU9p-26">
          <mxGeometry relative="1" as="geometry" />
        </mxCell>
        <mxCell id="B7vYEcSRjYOfFw0eyU9p-29" value="File/Data access" style="text;html=1;align=center;verticalAlign=middle;resizable=0;points=[];autosize=1;strokeColor=none;fillColor=none;" vertex="1" parent="1">
          <mxGeometry x="660" y="1000" width="110" height="30" as="geometry" />
        </mxCell>
        <mxCell id="B7vYEcSRjYOfFw0eyU9p-30" value="Coomuniate" style="text;html=1;align=center;verticalAlign=middle;resizable=0;points=[];autosize=1;strokeColor=none;fillColor=none;" vertex="1" parent="1">
          <mxGeometry x="520" y="888" width="90" height="30" as="geometry" />
        </mxCell>
        <mxCell id="B7vYEcSRjYOfFw0eyU9p-36" style="edgeStyle=orthogonalEdgeStyle;rounded=0;orthogonalLoop=1;jettySize=auto;html=1;entryX=0;entryY=0.5;entryDx=0;entryDy=0;" edge="1" parent="1" source="B7vYEcSRjYOfFw0eyU9p-31" target="B7vYEcSRjYOfFw0eyU9p-24">
          <mxGeometry relative="1" as="geometry" />
        </mxCell>
        <mxCell id="B7vYEcSRjYOfFw0eyU9p-31" value="Drivers" style="rounded=0;whiteSpace=wrap;html=1;" vertex="1" parent="1">
          <mxGeometry x="190" y="780" width="100" height="40" as="geometry" />
        </mxCell>
        <mxCell id="B7vYEcSRjYOfFw0eyU9p-32" value="NodeJs" style="text;html=1;align=center;verticalAlign=middle;resizable=0;points=[];autosize=1;strokeColor=none;fillColor=none;" vertex="1" parent="1">
          <mxGeometry x="210" y="828" width="60" height="30" as="geometry" />
        </mxCell>
        <mxCell id="B7vYEcSRjYOfFw0eyU9p-34" value="Java" style="text;html=1;align=center;verticalAlign=middle;resizable=0;points=[];autosize=1;strokeColor=none;fillColor=none;" vertex="1" parent="1">
          <mxGeometry x="215" y="850" width="50" height="30" as="geometry" />
        </mxCell>
        <mxCell id="B7vYEcSRjYOfFw0eyU9p-35" value="Python" style="text;html=1;align=center;verticalAlign=middle;resizable=0;points=[];autosize=1;strokeColor=none;fillColor=none;" vertex="1" parent="1">
          <mxGeometry x="210" y="870" width="60" height="30" as="geometry" />
        </mxCell>
        <mxCell id="B7vYEcSRjYOfFw0eyU9p-38" style="edgeStyle=orthogonalEdgeStyle;rounded=0;orthogonalLoop=1;jettySize=auto;html=1;entryX=0;entryY=0.5;entryDx=0;entryDy=0;" edge="1" parent="1" source="B7vYEcSRjYOfFw0eyU9p-37" target="B7vYEcSRjYOfFw0eyU9p-24">
          <mxGeometry relative="1" as="geometry" />
        </mxCell>
        <mxCell id="B7vYEcSRjYOfFw0eyU9p-37" value="MongoDB Shell" style="whiteSpace=wrap;html=1;fillColor=#fff2cc;strokeColor=#d6b656;" vertex="1" parent="1">
          <mxGeometry x="200" y="930" width="120" height="30" as="geometry" />
        </mxCell>
        <mxCell id="B7vYEcSRjYOfFw0eyU9p-39" value="Memory" style="rounded=0;whiteSpace=wrap;html=1;" vertex="1" parent="1">
          <mxGeometry x="690" y="888" width="80" height="42" as="geometry" />
        </mxCell>
        <mxCell id="B7vYEcSRjYOfFw0eyU9p-44" style="edgeStyle=orthogonalEdgeStyle;rounded=0;orthogonalLoop=1;jettySize=auto;html=1;" edge="1" parent="1" source="B7vYEcSRjYOfFw0eyU9p-42">
          <mxGeometry relative="1" as="geometry">
            <mxPoint x="430" y="1070" as="targetPoint" />
          </mxGeometry>
        </mxCell>
        <mxCell id="B7vYEcSRjYOfFw0eyU9p-42" value="find()" style="text;html=1;align=center;verticalAlign=middle;resizable=0;points=[];autosize=1;strokeColor=none;fillColor=none;" vertex="1" parent="1">
          <mxGeometry x="155" y="1028" width="50" height="30" as="geometry" />
        </mxCell>
        <mxCell id="B7vYEcSRjYOfFw0eyU9p-43" value="Cursors" style="text;html=1;align=center;verticalAlign=middle;resizable=0;points=[];autosize=1;strokeColor=none;fillColor=none;" vertex="1" parent="1">
          <mxGeometry x="135" y="998" width="70" height="30" as="geometry" />
        </mxCell>
        <mxCell id="B7vYEcSRjYOfFw0eyU9p-46" style="edgeStyle=orthogonalEdgeStyle;rounded=0;orthogonalLoop=1;jettySize=auto;html=1;" edge="1" parent="1" source="B7vYEcSRjYOfFw0eyU9p-45">
          <mxGeometry relative="1" as="geometry">
            <mxPoint x="430" y="1140" as="targetPoint" />
          </mxGeometry>
        </mxCell>
        <mxCell id="B7vYEcSRjYOfFw0eyU9p-45" value="Cursor Object" style="text;html=1;align=center;verticalAlign=middle;resizable=0;points=[];autosize=1;strokeColor=none;fillColor=none;" vertex="1" parent="1">
          <mxGeometry x="380" y="1068" width="100" height="30" as="geometry" />
        </mxCell>
        <mxCell id="B7vYEcSRjYOfFw0eyU9p-47" value="cycle through results" style="text;html=1;align=center;verticalAlign=middle;resizable=0;points=[];autosize=1;strokeColor=none;fillColor=none;" vertex="1" parent="1">
          <mxGeometry x="365" y="1138" width="130" height="30" as="geometry" />
        </mxCell>
      </root>
    </mxGraphModel>
  </diagram>
  <diagram id="64exhUA-DIfiAvYTOxAx" name="Spring">
    <mxGraphModel dx="1106" dy="605" grid="1" gridSize="10" guides="1" tooltips="1" connect="1" arrows="1" fold="1" page="1" pageScale="1" pageWidth="850" pageHeight="1100" math="0" shadow="0">
      <root>
        <mxCell id="0" />
        <mxCell id="1" parent="0" />
        <mxCell id="hY2pgb11v7pgeuB1321B-4" style="edgeStyle=orthogonalEdgeStyle;rounded=0;orthogonalLoop=1;jettySize=auto;html=1;" parent="1" source="hY2pgb11v7pgeuB1321B-1" edge="1">
          <mxGeometry relative="1" as="geometry">
            <mxPoint x="280" y="60" as="targetPoint" />
          </mxGeometry>
        </mxCell>
        <mxCell id="hY2pgb11v7pgeuB1321B-1" value="Spring Boot" style="whiteSpace=wrap;html=1;fontStyle=1;fillColor=#d5e8d4;strokeColor=#82b366;" parent="1" vertex="1">
          <mxGeometry x="80" y="40" width="120" height="40" as="geometry" />
        </mxCell>
        <mxCell id="hY2pgb11v7pgeuB1321B-3" value="Minimize infrastructure so that you can focus more on business logic" style="text;html=1;align=center;verticalAlign=middle;resizable=0;points=[];autosize=1;strokeColor=none;fillColor=none;" parent="1" vertex="1">
          <mxGeometry x="80" y="10" width="390" height="30" as="geometry" />
        </mxCell>
        <mxCell id="hY2pgb11v7pgeuB1321B-5" value="Embedded Tomcat" style="text;html=1;align=center;verticalAlign=middle;resizable=0;points=[];autosize=1;strokeColor=#36393d;fillColor=#ffcc99;fontStyle=1" parent="1" vertex="1">
          <mxGeometry x="290" y="45" width="120" height="30" as="geometry" />
        </mxCell>
        <mxCell id="hY2pgb11v7pgeuB1321B-8" style="edgeStyle=orthogonalEdgeStyle;rounded=0;orthogonalLoop=1;jettySize=auto;html=1;" parent="1" source="hY2pgb11v7pgeuB1321B-6" edge="1">
          <mxGeometry relative="1" as="geometry">
            <mxPoint x="520" y="115" as="targetPoint" />
          </mxGeometry>
        </mxCell>
        <mxCell id="hY2pgb11v7pgeuB1321B-6" value="Starter projects" style="text;html=1;align=center;verticalAlign=middle;resizable=0;points=[];autosize=1;strokeColor=#36393d;fillColor=#ffcc99;fontStyle=1" parent="1" vertex="1">
          <mxGeometry x="290" y="100" width="100" height="30" as="geometry" />
        </mxCell>
        <mxCell id="hY2pgb11v7pgeuB1321B-7" style="edgeStyle=orthogonalEdgeStyle;rounded=0;orthogonalLoop=1;jettySize=auto;html=1;entryX=0.01;entryY=0.5;entryDx=0;entryDy=0;entryPerimeter=0;" parent="1" source="hY2pgb11v7pgeuB1321B-1" target="hY2pgb11v7pgeuB1321B-6" edge="1">
          <mxGeometry relative="1" as="geometry" />
        </mxCell>
        <mxCell id="hY2pgb11v7pgeuB1321B-9" value="MVC/REST" style="text;html=1;align=center;verticalAlign=middle;resizable=0;points=[];autosize=1;strokeColor=none;fillColor=none;" parent="1" vertex="1">
          <mxGeometry x="550" y="100" width="90" height="30" as="geometry" />
        </mxCell>
        <mxCell id="hY2pgb11v7pgeuB1321B-10" value="spring-boot-starter-web" style="text;html=1;align=center;verticalAlign=middle;resizable=0;points=[];autosize=1;strokeColor=none;fillColor=none;" parent="1" vertex="1">
          <mxGeometry x="390" y="80" width="150" height="30" as="geometry" />
        </mxCell>
        <mxCell id="hY2pgb11v7pgeuB1321B-11" value="ORM" style="text;html=1;align=center;verticalAlign=middle;resizable=0;points=[];autosize=1;strokeColor=none;fillColor=none;" parent="1" vertex="1">
          <mxGeometry x="565" y="138" width="50" height="30" as="geometry" />
        </mxCell>
        <mxCell id="hY2pgb11v7pgeuB1321B-12" style="edgeStyle=orthogonalEdgeStyle;rounded=0;orthogonalLoop=1;jettySize=auto;html=1;entryX=0;entryY=0.633;entryDx=0;entryDy=0;entryPerimeter=0;" parent="1" source="hY2pgb11v7pgeuB1321B-6" target="hY2pgb11v7pgeuB1321B-11" edge="1">
          <mxGeometry relative="1" as="geometry">
            <Array as="points">
              <mxPoint x="340" y="157" />
            </Array>
          </mxGeometry>
        </mxCell>
        <mxCell id="hY2pgb11v7pgeuB1321B-13" value="spring-boot-data-jpa" style="text;html=1;align=center;verticalAlign=middle;resizable=0;points=[];autosize=1;strokeColor=none;fillColor=none;" parent="1" vertex="1">
          <mxGeometry x="390" y="130" width="130" height="30" as="geometry" />
        </mxCell>
        <mxCell id="hY2pgb11v7pgeuB1321B-18" style="edgeStyle=orthogonalEdgeStyle;rounded=0;orthogonalLoop=1;jettySize=auto;html=1;" parent="1" source="hY2pgb11v7pgeuB1321B-14" edge="1">
          <mxGeometry relative="1" as="geometry">
            <mxPoint x="520" y="195" as="targetPoint" />
          </mxGeometry>
        </mxCell>
        <mxCell id="hY2pgb11v7pgeuB1321B-14" value="Avoids XML" style="text;html=1;align=center;verticalAlign=middle;resizable=0;points=[];autosize=1;strokeColor=#36393d;fillColor=#ffcc99;fontStyle=1" parent="1" vertex="1">
          <mxGeometry x="290" y="180" width="90" height="30" as="geometry" />
        </mxCell>
        <mxCell id="hY2pgb11v7pgeuB1321B-16" style="edgeStyle=orthogonalEdgeStyle;rounded=0;orthogonalLoop=1;jettySize=auto;html=1;entryX=0;entryY=0.467;entryDx=0;entryDy=0;entryPerimeter=0;" parent="1" source="hY2pgb11v7pgeuB1321B-1" target="hY2pgb11v7pgeuB1321B-14" edge="1">
          <mxGeometry relative="1" as="geometry" />
        </mxCell>
        <mxCell id="hY2pgb11v7pgeuB1321B-19" value="application.properties" style="text;html=1;align=center;verticalAlign=middle;resizable=0;points=[];autosize=1;strokeColor=none;fillColor=none;" parent="1" vertex="1">
          <mxGeometry x="385" y="198" width="140" height="30" as="geometry" />
        </mxCell>
        <mxCell id="hY2pgb11v7pgeuB1321B-20" value="ConfigurationProperties" style="text;html=1;align=center;verticalAlign=middle;resizable=0;points=[];autosize=1;strokeColor=#36393d;fillColor=#ffcc99;fontStyle=1" parent="1" vertex="1">
          <mxGeometry x="290" y="290" width="150" height="30" as="geometry" />
        </mxCell>
        <mxCell id="hY2pgb11v7pgeuB1321B-21" value="@ConfiguraitonProperties" style="text;html=1;align=center;verticalAlign=middle;resizable=0;points=[];autosize=1;strokeColor=none;fillColor=none;" parent="1" vertex="1">
          <mxGeometry x="285" y="260" width="160" height="30" as="geometry" />
        </mxCell>
        <mxCell id="hY2pgb11v7pgeuB1321B-22" style="edgeStyle=orthogonalEdgeStyle;rounded=0;orthogonalLoop=1;jettySize=auto;html=1;entryX=-0.007;entryY=0.533;entryDx=0;entryDy=0;entryPerimeter=0;" parent="1" source="hY2pgb11v7pgeuB1321B-1" target="hY2pgb11v7pgeuB1321B-20" edge="1">
          <mxGeometry relative="1" as="geometry" />
        </mxCell>
        <mxCell id="hY2pgb11v7pgeuB1321B-23" value="Local" style="text;html=1;align=center;verticalAlign=middle;resizable=0;points=[];autosize=1;strokeColor=none;fillColor=none;" parent="1" vertex="1">
          <mxGeometry x="75" y="378" width="50" height="30" as="geometry" />
        </mxCell>
        <mxCell id="hY2pgb11v7pgeuB1321B-24" value="Dev" style="text;html=1;align=center;verticalAlign=middle;resizable=0;points=[];autosize=1;strokeColor=none;fillColor=none;" parent="1" vertex="1">
          <mxGeometry x="180" y="378" width="40" height="30" as="geometry" />
        </mxCell>
        <mxCell id="hY2pgb11v7pgeuB1321B-25" value="QA" style="text;html=1;align=center;verticalAlign=middle;resizable=0;points=[];autosize=1;strokeColor=none;fillColor=none;" parent="1" vertex="1">
          <mxGeometry x="290" y="378" width="40" height="30" as="geometry" />
        </mxCell>
        <mxCell id="hY2pgb11v7pgeuB1321B-26" value="Load" style="text;html=1;align=center;verticalAlign=middle;resizable=0;points=[];autosize=1;strokeColor=none;fillColor=none;" parent="1" vertex="1">
          <mxGeometry x="395" y="370" width="50" height="30" as="geometry" />
        </mxCell>
        <mxCell id="hY2pgb11v7pgeuB1321B-27" value="UAT" style="text;html=1;align=center;verticalAlign=middle;resizable=0;points=[];autosize=1;strokeColor=none;fillColor=none;" parent="1" vertex="1">
          <mxGeometry x="510" y="378" width="50" height="30" as="geometry" />
        </mxCell>
        <mxCell id="hY2pgb11v7pgeuB1321B-28" value="PROD" style="text;html=1;align=center;verticalAlign=middle;resizable=0;points=[];autosize=1;strokeColor=none;fillColor=none;" parent="1" vertex="1">
          <mxGeometry x="615" y="378" width="60" height="30" as="geometry" />
        </mxCell>
        <mxCell id="hY2pgb11v7pgeuB1321B-29" value="active.profile=QA" style="text;html=1;align=center;verticalAlign=middle;resizable=0;points=[];autosize=1;strokeColor=none;fillColor=none;" parent="1" vertex="1">
          <mxGeometry x="550" y="178" width="120" height="30" as="geometry" />
        </mxCell>
        <mxCell id="hY2pgb11v7pgeuB1321B-30" value="application-qa.properties" style="text;html=1;align=center;verticalAlign=middle;resizable=0;points=[];autosize=1;strokeColor=none;fillColor=none;" parent="1" vertex="1">
          <mxGeometry x="550" y="210" width="150" height="30" as="geometry" />
        </mxCell>
        <mxCell id="hY2pgb11v7pgeuB1321B-31" value="Integration with other tools" style="text;html=1;align=center;verticalAlign=middle;resizable=0;points=[];autosize=1;strokeColor=#36393d;fillColor=#ffcc99;fontStyle=1" parent="1" vertex="1">
          <mxGeometry x="290" y="228" width="160" height="30" as="geometry" />
        </mxCell>
        <mxCell id="hY2pgb11v7pgeuB1321B-32" style="edgeStyle=orthogonalEdgeStyle;rounded=0;orthogonalLoop=1;jettySize=auto;html=1;entryX=0;entryY=0.5;entryDx=0;entryDy=0;entryPerimeter=0;" parent="1" source="hY2pgb11v7pgeuB1321B-1" target="hY2pgb11v7pgeuB1321B-31" edge="1">
          <mxGeometry relative="1" as="geometry" />
        </mxCell>
        <mxCell id="hY2pgb11v7pgeuB1321B-33" value="MVC" style="text;html=1;align=center;verticalAlign=middle;resizable=0;points=[];autosize=1;strokeColor=none;fillColor=none;" parent="1" vertex="1">
          <mxGeometry x="135" y="488" width="50" height="30" as="geometry" />
        </mxCell>
        <mxCell id="hY2pgb11v7pgeuB1321B-36" style="edgeStyle=orthogonalEdgeStyle;rounded=0;orthogonalLoop=1;jettySize=auto;html=1;entryX=0;entryY=0.25;entryDx=0;entryDy=0;" parent="1" source="hY2pgb11v7pgeuB1321B-34" target="hY2pgb11v7pgeuB1321B-35" edge="1">
          <mxGeometry relative="1" as="geometry">
            <Array as="points">
              <mxPoint x="300" y="530" />
              <mxPoint x="300" y="528" />
            </Array>
          </mxGeometry>
        </mxCell>
        <mxCell id="hY2pgb11v7pgeuB1321B-34" value="Client" style="whiteSpace=wrap;html=1;fillColor=#ffcc99;strokeColor=#36393d;" parent="1" vertex="1">
          <mxGeometry x="80" y="520" width="120" height="40" as="geometry" />
        </mxCell>
        <mxCell id="hY2pgb11v7pgeuB1321B-37" style="edgeStyle=orthogonalEdgeStyle;rounded=0;orthogonalLoop=1;jettySize=auto;html=1;" parent="1" source="hY2pgb11v7pgeuB1321B-35" edge="1">
          <mxGeometry relative="1" as="geometry">
            <mxPoint x="190" y="538" as="targetPoint" />
            <Array as="points">
              <mxPoint x="460" y="560" />
              <mxPoint x="300" y="560" />
              <mxPoint x="300" y="539" />
            </Array>
          </mxGeometry>
        </mxCell>
        <mxCell id="hY2pgb11v7pgeuB1321B-35" value="Server" style="whiteSpace=wrap;html=1;fillColor=#ffcc99;strokeColor=#36393d;" parent="1" vertex="1">
          <mxGeometry x="400" y="518" width="120" height="40" as="geometry" />
        </mxCell>
        <mxCell id="hY2pgb11v7pgeuB1321B-38" value="Request" style="text;html=1;align=center;verticalAlign=middle;resizable=0;points=[];autosize=1;strokeColor=none;fillColor=none;" parent="1" vertex="1">
          <mxGeometry x="245" y="488" width="70" height="30" as="geometry" />
        </mxCell>
        <mxCell id="hY2pgb11v7pgeuB1321B-39" value="Servlet" style="text;html=1;align=center;verticalAlign=middle;resizable=0;points=[];autosize=1;strokeColor=none;fillColor=none;" parent="1" vertex="1">
          <mxGeometry x="430" y="488" width="60" height="30" as="geometry" />
        </mxCell>
        <mxCell id="hY2pgb11v7pgeuB1321B-40" value="HTML code" style="text;html=1;align=center;verticalAlign=middle;resizable=0;points=[];autosize=1;strokeColor=none;fillColor=none;" parent="1" vertex="1">
          <mxGeometry x="515" y="518" width="90" height="30" as="geometry" />
        </mxCell>
        <mxCell id="hY2pgb11v7pgeuB1321B-41" value="Resonse HTML" style="text;html=1;align=center;verticalAlign=middle;resizable=0;points=[];autosize=1;strokeColor=none;fillColor=none;" parent="1" vertex="1">
          <mxGeometry x="235" y="558" width="110" height="30" as="geometry" />
        </mxCell>
        <mxCell id="hY2pgb11v7pgeuB1321B-42" value="- Maintainance high" style="text;html=1;align=center;verticalAlign=middle;resizable=0;points=[];autosize=1;strokeColor=none;fillColor=none;" parent="1" vertex="1">
          <mxGeometry x="265" y="608" width="130" height="30" as="geometry" />
        </mxCell>
        <mxCell id="hY2pgb11v7pgeuB1321B-43" value="- Change of UI technology" style="text;html=1;align=center;verticalAlign=middle;resizable=0;points=[];autosize=1;strokeColor=none;fillColor=none;" parent="1" vertex="1">
          <mxGeometry x="265" y="638" width="160" height="30" as="geometry" />
        </mxCell>
        <mxCell id="hY2pgb11v7pgeuB1321B-45" value="- Developemnt is error prone/not flexible" style="text;html=1;align=center;verticalAlign=middle;resizable=0;points=[];autosize=1;strokeColor=none;fillColor=none;" parent="1" vertex="1">
          <mxGeometry x="265" y="668" width="240" height="30" as="geometry" />
        </mxCell>
        <mxCell id="hY2pgb11v7pgeuB1321B-46" value="Model" style="whiteSpace=wrap;html=1;fillColor=#cdeb8b;strokeColor=#36393d;fontStyle=1" parent="1" vertex="1">
          <mxGeometry x="260" y="720" width="120" height="40" as="geometry" />
        </mxCell>
        <mxCell id="hY2pgb11v7pgeuB1321B-58" style="edgeStyle=orthogonalEdgeStyle;rounded=0;orthogonalLoop=1;jettySize=auto;html=1;entryX=0;entryY=0.5;entryDx=0;entryDy=0;" parent="1" source="hY2pgb11v7pgeuB1321B-48" target="hY2pgb11v7pgeuB1321B-46" edge="1">
          <mxGeometry relative="1" as="geometry">
            <mxPoint x="240" y="740" as="targetPoint" />
          </mxGeometry>
        </mxCell>
        <mxCell id="hY2pgb11v7pgeuB1321B-63" style="edgeStyle=orthogonalEdgeStyle;rounded=0;orthogonalLoop=1;jettySize=auto;html=1;" parent="1" source="hY2pgb11v7pgeuB1321B-48" target="hY2pgb11v7pgeuB1321B-49" edge="1">
          <mxGeometry relative="1" as="geometry" />
        </mxCell>
        <mxCell id="hY2pgb11v7pgeuB1321B-48" value="Controller" style="whiteSpace=wrap;html=1;fillColor=#cdeb8b;strokeColor=#36393d;fontStyle=1" parent="1" vertex="1">
          <mxGeometry x="100" y="808" width="85" height="40" as="geometry" />
        </mxCell>
        <mxCell id="hY2pgb11v7pgeuB1321B-60" style="edgeStyle=orthogonalEdgeStyle;rounded=0;orthogonalLoop=1;jettySize=auto;html=1;" parent="1" source="hY2pgb11v7pgeuB1321B-49" target="hY2pgb11v7pgeuB1321B-53" edge="1">
          <mxGeometry relative="1" as="geometry">
            <Array as="points">
              <mxPoint x="545" y="960" />
              <mxPoint x="20" y="960" />
            </Array>
          </mxGeometry>
        </mxCell>
        <mxCell id="hY2pgb11v7pgeuB1321B-98" style="edgeStyle=orthogonalEdgeStyle;rounded=0;orthogonalLoop=1;jettySize=auto;html=1;" parent="1" source="hY2pgb11v7pgeuB1321B-49" edge="1">
          <mxGeometry relative="1" as="geometry">
            <mxPoint x="680" y="860" as="targetPoint" />
          </mxGeometry>
        </mxCell>
        <mxCell id="hY2pgb11v7pgeuB1321B-49" value="View" style="whiteSpace=wrap;html=1;fillColor=#cdeb8b;strokeColor=#36393d;fontStyle=1" parent="1" vertex="1">
          <mxGeometry x="485" y="810" width="120" height="40" as="geometry" />
        </mxCell>
        <mxCell id="hY2pgb11v7pgeuB1321B-50" value="backend logic" style="text;html=1;align=center;verticalAlign=middle;resizable=0;points=[];autosize=1;strokeColor=none;fillColor=none;" parent="1" vertex="1">
          <mxGeometry x="90" y="780" width="100" height="30" as="geometry" />
        </mxCell>
        <mxCell id="hY2pgb11v7pgeuB1321B-51" value="UI logic" style="text;html=1;align=center;verticalAlign=middle;resizable=0;points=[];autosize=1;strokeColor=none;fillColor=none;" parent="1" vertex="1">
          <mxGeometry x="520" y="778" width="60" height="30" as="geometry" />
        </mxCell>
        <mxCell id="hY2pgb11v7pgeuB1321B-59" style="edgeStyle=orthogonalEdgeStyle;rounded=0;orthogonalLoop=1;jettySize=auto;html=1;" parent="1" target="hY2pgb11v7pgeuB1321B-51" edge="1">
          <mxGeometry relative="1" as="geometry">
            <mxPoint x="515" y="735" as="sourcePoint" />
          </mxGeometry>
        </mxCell>
        <mxCell id="hY2pgb11v7pgeuB1321B-54" style="edgeStyle=orthogonalEdgeStyle;rounded=0;orthogonalLoop=1;jettySize=auto;html=1;entryX=0;entryY=0.5;entryDx=0;entryDy=0;" parent="1" source="hY2pgb11v7pgeuB1321B-53" target="hY2pgb11v7pgeuB1321B-48" edge="1">
          <mxGeometry relative="1" as="geometry" />
        </mxCell>
        <mxCell id="hY2pgb11v7pgeuB1321B-53" value="Actor" style="shape=umlActor;verticalLabelPosition=bottom;verticalAlign=top;html=1;outlineConnect=0;" parent="1" vertex="1">
          <mxGeometry x="10" y="790" width="20" height="60" as="geometry" />
        </mxCell>
        <mxCell id="hY2pgb11v7pgeuB1321B-55" value="handling request" style="text;html=1;align=center;verticalAlign=middle;resizable=0;points=[];autosize=1;strokeColor=none;fillColor=none;" parent="1" vertex="1">
          <mxGeometry x="105" y="858" width="110" height="30" as="geometry" />
        </mxCell>
        <mxCell id="hY2pgb11v7pgeuB1321B-56" value="get data from db" style="text;html=1;align=center;verticalAlign=middle;resizable=0;points=[];autosize=1;strokeColor=none;fillColor=none;" parent="1" vertex="1">
          <mxGeometry x="105" y="880" width="110" height="30" as="geometry" />
        </mxCell>
        <mxCell id="hY2pgb11v7pgeuB1321B-57" value="share data to model" style="text;html=1;align=center;verticalAlign=middle;resizable=0;points=[];autosize=1;strokeColor=none;fillColor=none;" parent="1" vertex="1">
          <mxGeometry x="95" y="900" width="130" height="30" as="geometry" />
        </mxCell>
        <mxCell id="hY2pgb11v7pgeuB1321B-61" value="Map&amp;lt;String, List&amp;gt;" style="text;html=1;align=center;verticalAlign=middle;resizable=0;points=[];autosize=1;strokeColor=none;fillColor=none;" parent="1" vertex="1">
          <mxGeometry x="380" y="708" width="120" height="30" as="geometry" />
        </mxCell>
        <mxCell id="hY2pgb11v7pgeuB1321B-62" value="employees: [&amp;lt;&amp;gt;, &amp;lt;&amp;gt;,&amp;lt;&amp;gt;]" style="text;html=1;align=center;verticalAlign=middle;resizable=0;points=[];autosize=1;strokeColor=none;fillColor=none;" parent="1" vertex="1">
          <mxGeometry x="485" y="708" width="150" height="30" as="geometry" />
        </mxCell>
        <mxCell id="hY2pgb11v7pgeuB1321B-64" value="invoke view" style="text;html=1;align=center;verticalAlign=middle;resizable=0;points=[];autosize=1;strokeColor=none;fillColor=none;" parent="1" vertex="1">
          <mxGeometry x="120" y="920" width="90" height="30" as="geometry" />
        </mxCell>
        <mxCell id="hY2pgb11v7pgeuB1321B-66" style="edgeStyle=orthogonalEdgeStyle;rounded=0;orthogonalLoop=1;jettySize=auto;html=1;" parent="1" source="hY2pgb11v7pgeuB1321B-65" edge="1">
          <mxGeometry relative="1" as="geometry">
            <mxPoint x="100" y="1095" as="targetPoint" />
          </mxGeometry>
        </mxCell>
        <mxCell id="hY2pgb11v7pgeuB1321B-65" value="Client" style="text;html=1;align=center;verticalAlign=middle;resizable=0;points=[];autosize=1;strokeColor=none;fillColor=none;" parent="1" vertex="1">
          <mxGeometry y="1080" width="50" height="30" as="geometry" />
        </mxCell>
        <mxCell id="hY2pgb11v7pgeuB1321B-75" style="edgeStyle=orthogonalEdgeStyle;rounded=0;orthogonalLoop=1;jettySize=auto;html=1;entryX=0;entryY=0.5;entryDx=0;entryDy=0;curved=1;" parent="1" source="hY2pgb11v7pgeuB1321B-67" target="hY2pgb11v7pgeuB1321B-69" edge="1">
          <mxGeometry relative="1" as="geometry">
            <Array as="points">
              <mxPoint x="240" y="1095" />
              <mxPoint x="240" y="1019" />
            </Array>
          </mxGeometry>
        </mxCell>
        <mxCell id="hY2pgb11v7pgeuB1321B-77" style="edgeStyle=orthogonalEdgeStyle;rounded=0;orthogonalLoop=1;jettySize=auto;html=1;entryX=0;entryY=0.25;entryDx=0;entryDy=0;" parent="1" source="hY2pgb11v7pgeuB1321B-67" target="hY2pgb11v7pgeuB1321B-76" edge="1">
          <mxGeometry relative="1" as="geometry" />
        </mxCell>
        <mxCell id="pm3ECo5UAjwdnQUK8ZlX-1" value="model" style="edgeLabel;html=1;align=center;verticalAlign=middle;resizable=0;points=[];" parent="hY2pgb11v7pgeuB1321B-77" vertex="1" connectable="0">
          <mxGeometry x="-0.1495" y="3" relative="1" as="geometry">
            <mxPoint as="offset" />
          </mxGeometry>
        </mxCell>
        <mxCell id="hY2pgb11v7pgeuB1321B-84" style="edgeStyle=orthogonalEdgeStyle;rounded=0;orthogonalLoop=1;jettySize=auto;html=1;entryX=0;entryY=0.5;entryDx=0;entryDy=0;" parent="1" source="hY2pgb11v7pgeuB1321B-67" target="hY2pgb11v7pgeuB1321B-85" edge="1">
          <mxGeometry relative="1" as="geometry">
            <mxPoint x="190" y="1250" as="targetPoint" />
            <Array as="points">
              <mxPoint x="175" y="1240" />
              <mxPoint x="310" y="1240" />
              <mxPoint x="310" y="1241" />
            </Array>
          </mxGeometry>
        </mxCell>
        <mxCell id="hY2pgb11v7pgeuB1321B-93" style="edgeStyle=orthogonalEdgeStyle;rounded=0;orthogonalLoop=1;jettySize=auto;html=1;" parent="1" source="hY2pgb11v7pgeuB1321B-67" edge="1">
          <mxGeometry relative="1" as="geometry">
            <mxPoint x="175" y="1330" as="targetPoint" />
          </mxGeometry>
        </mxCell>
        <mxCell id="pm3ECo5UAjwdnQUK8ZlX-2" value="model" style="edgeLabel;html=1;align=center;verticalAlign=middle;resizable=0;points=[];" parent="hY2pgb11v7pgeuB1321B-93" vertex="1" connectable="0">
          <mxGeometry x="-0.1655" y="1" relative="1" as="geometry">
            <mxPoint as="offset" />
          </mxGeometry>
        </mxCell>
        <mxCell id="hY2pgb11v7pgeuB1321B-97" style="edgeStyle=orthogonalEdgeStyle;rounded=0;orthogonalLoop=1;jettySize=auto;html=1;" parent="1" source="hY2pgb11v7pgeuB1321B-67" target="hY2pgb11v7pgeuB1321B-65" edge="1">
          <mxGeometry relative="1" as="geometry">
            <Array as="points">
              <mxPoint x="175" y="1060" />
              <mxPoint x="25" y="1060" />
            </Array>
          </mxGeometry>
        </mxCell>
        <mxCell id="hY2pgb11v7pgeuB1321B-67" value="DispatcherServlet" style="whiteSpace=wrap;html=1;fillColor=#ffcc99;strokeColor=#36393d;fontStyle=1" parent="1" vertex="1">
          <mxGeometry x="115" y="1080" width="120" height="30" as="geometry" />
        </mxCell>
        <mxCell id="hY2pgb11v7pgeuB1321B-68" value="Front controller" style="text;html=1;align=center;verticalAlign=middle;resizable=0;points=[];autosize=1;strokeColor=none;fillColor=none;" parent="1" vertex="1">
          <mxGeometry x="130" y="1058" width="100" height="30" as="geometry" />
        </mxCell>
        <mxCell id="hY2pgb11v7pgeuB1321B-69" value="HandlerMapping" style="whiteSpace=wrap;html=1;fillColor=#cdeb8b;strokeColor=#36393d;fontStyle=1" parent="1" vertex="1">
          <mxGeometry x="380" y="998" width="120" height="42" as="geometry" />
        </mxCell>
        <mxCell id="hY2pgb11v7pgeuB1321B-70" value="Indentify which controller handles request" style="text;html=1;align=center;verticalAlign=middle;resizable=0;points=[];autosize=1;strokeColor=none;fillColor=none;" parent="1" vertex="1">
          <mxGeometry x="290" y="968" width="240" height="30" as="geometry" />
        </mxCell>
        <mxCell id="hY2pgb11v7pgeuB1321B-71" value="DefaultAnnotationHandler" style="text;html=1;align=center;verticalAlign=middle;resizable=0;points=[];autosize=1;strokeColor=#36393d;fillColor=#ffcccc;fontStyle=1" parent="1" vertex="1">
          <mxGeometry x="560" y="998" width="160" height="30" as="geometry" />
        </mxCell>
        <mxCell id="hY2pgb11v7pgeuB1321B-72" style="edgeStyle=orthogonalEdgeStyle;rounded=0;orthogonalLoop=1;jettySize=auto;html=1;entryX=0;entryY=0.533;entryDx=0;entryDy=0;entryPerimeter=0;" parent="1" source="hY2pgb11v7pgeuB1321B-69" target="hY2pgb11v7pgeuB1321B-71" edge="1">
          <mxGeometry relative="1" as="geometry" />
        </mxCell>
        <mxCell id="hY2pgb11v7pgeuB1321B-73" value="BeanName" style="text;html=1;align=center;verticalAlign=middle;resizable=0;points=[];autosize=1;strokeColor=none;fillColor=none;" parent="1" vertex="1">
          <mxGeometry x="565" y="1028" width="80" height="30" as="geometry" />
        </mxCell>
        <mxCell id="hY2pgb11v7pgeuB1321B-74" value="ControlelerName" style="text;html=1;align=center;verticalAlign=middle;resizable=0;points=[];autosize=1;strokeColor=none;fillColor=none;" parent="1" vertex="1">
          <mxGeometry x="560" y="1058" width="110" height="30" as="geometry" />
        </mxCell>
        <mxCell id="hY2pgb11v7pgeuB1321B-79" style="edgeStyle=orthogonalEdgeStyle;rounded=0;orthogonalLoop=1;jettySize=auto;html=1;" parent="1" source="hY2pgb11v7pgeuB1321B-76" edge="1">
          <mxGeometry relative="1" as="geometry">
            <mxPoint x="540" y="1111" as="targetPoint" />
          </mxGeometry>
        </mxCell>
        <mxCell id="hY2pgb11v7pgeuB1321B-81" style="edgeStyle=orthogonalEdgeStyle;rounded=0;orthogonalLoop=1;jettySize=auto;html=1;" parent="1" edge="1">
          <mxGeometry relative="1" as="geometry">
            <mxPoint x="380" y="1144" as="sourcePoint" />
            <mxPoint x="235" y="1128" as="targetPoint" />
          </mxGeometry>
        </mxCell>
        <mxCell id="hY2pgb11v7pgeuB1321B-82" value="&quot;Hello&quot;" style="edgeLabel;html=1;align=center;verticalAlign=middle;resizable=0;points=[];" parent="hY2pgb11v7pgeuB1321B-81" vertex="1" connectable="0">
          <mxGeometry x="-0.2237" y="-1" relative="1" as="geometry">
            <mxPoint as="offset" />
          </mxGeometry>
        </mxCell>
        <mxCell id="hY2pgb11v7pgeuB1321B-76" value="Controller" style="whiteSpace=wrap;html=1;fillColor=#cdeb8b;strokeColor=#36393d;fontStyle=1" parent="1" vertex="1">
          <mxGeometry x="380" y="1090" width="120" height="42" as="geometry" />
        </mxCell>
        <mxCell id="hY2pgb11v7pgeuB1321B-78" value="Business logic" style="text;html=1;align=center;verticalAlign=middle;resizable=0;points=[];autosize=1;strokeColor=none;fillColor=none;" parent="1" vertex="1">
          <mxGeometry x="390" y="1070" width="100" height="30" as="geometry" />
        </mxCell>
        <mxCell id="hY2pgb11v7pgeuB1321B-80" value="Model" style="text;html=1;align=center;verticalAlign=middle;resizable=0;points=[];autosize=1;strokeColor=#36393d;fillColor=#cdeb8b;" parent="1" vertex="1">
          <mxGeometry x="540" y="1098" width="60" height="30" as="geometry" />
        </mxCell>
        <mxCell id="hY2pgb11v7pgeuB1321B-85" value="ViewResolver" style="whiteSpace=wrap;html=1;fillColor=#cdeb8b;strokeColor=#36393d;fontStyle=1" parent="1" vertex="1">
          <mxGeometry x="385" y="1220" width="120" height="42" as="geometry" />
        </mxCell>
        <mxCell id="hY2pgb11v7pgeuB1321B-86" value="InternalResourceViewResolver" style="text;html=1;align=center;verticalAlign=middle;resizable=0;points=[];autosize=1;strokeColor=#36393d;fillColor=#ffcccc;fontStyle=1" parent="1" vertex="1">
          <mxGeometry x="545" y="1220" width="190" height="30" as="geometry" />
        </mxCell>
        <mxCell id="hY2pgb11v7pgeuB1321B-87" style="edgeStyle=orthogonalEdgeStyle;rounded=0;orthogonalLoop=1;jettySize=auto;html=1;entryX=0.026;entryY=0.7;entryDx=0;entryDy=0;entryPerimeter=0;" parent="1" source="hY2pgb11v7pgeuB1321B-85" target="hY2pgb11v7pgeuB1321B-86" edge="1">
          <mxGeometry relative="1" as="geometry" />
        </mxCell>
        <mxCell id="hY2pgb11v7pgeuB1321B-88" value="JSFViewResolver" style="text;html=1;align=center;verticalAlign=middle;resizable=0;points=[];autosize=1;strokeColor=none;fillColor=none;" parent="1" vertex="1">
          <mxGeometry x="545" y="1250" width="120" height="30" as="geometry" />
        </mxCell>
        <mxCell id="hY2pgb11v7pgeuB1321B-90" value="hello.html" style="text;html=1;align=center;verticalAlign=middle;resizable=0;points=[];autosize=1;strokeColor=none;fillColor=none;" parent="1" vertex="1">
          <mxGeometry x="570" y="1190" width="70" height="30" as="geometry" />
        </mxCell>
        <mxCell id="hY2pgb11v7pgeuB1321B-91" style="edgeStyle=orthogonalEdgeStyle;rounded=0;orthogonalLoop=1;jettySize=auto;html=1;" parent="1" source="hY2pgb11v7pgeuB1321B-85" edge="1">
          <mxGeometry relative="1" as="geometry">
            <mxPoint x="160" y="1112" as="targetPoint" />
            <Array as="points">
              <mxPoint x="445" y="1270" />
              <mxPoint x="160" y="1270" />
              <mxPoint x="160" y="1112" />
            </Array>
          </mxGeometry>
        </mxCell>
        <mxCell id="hY2pgb11v7pgeuB1321B-92" value="hello.html" style="edgeLabel;html=1;align=center;verticalAlign=middle;resizable=0;points=[];" parent="hY2pgb11v7pgeuB1321B-91" vertex="1" connectable="0">
          <mxGeometry x="-0.1811" relative="1" as="geometry">
            <mxPoint as="offset" />
          </mxGeometry>
        </mxCell>
        <mxCell id="hY2pgb11v7pgeuB1321B-96" style="edgeStyle=orthogonalEdgeStyle;rounded=0;orthogonalLoop=1;jettySize=auto;html=1;" parent="1" source="hY2pgb11v7pgeuB1321B-95" edge="1">
          <mxGeometry relative="1" as="geometry">
            <mxPoint x="110" y="1120" as="targetPoint" />
          </mxGeometry>
        </mxCell>
        <mxCell id="hY2pgb11v7pgeuB1321B-95" value="hello.html" style="text;html=1;align=center;verticalAlign=middle;resizable=0;points=[];autosize=1;strokeColor=none;fillColor=none;" parent="1" vertex="1">
          <mxGeometry x="145" y="1328" width="70" height="30" as="geometry" />
        </mxCell>
        <mxCell id="hY2pgb11v7pgeuB1321B-99" value="thymeleaf" style="text;html=1;align=center;verticalAlign=middle;resizable=0;points=[];autosize=1;strokeColor=none;fillColor=none;" parent="1" vertex="1">
          <mxGeometry x="640" y="868" width="80" height="30" as="geometry" />
        </mxCell>
        <mxCell id="pm3ECo5UAjwdnQUK8ZlX-5" style="edgeStyle=orthogonalEdgeStyle;rounded=0;orthogonalLoop=1;jettySize=auto;html=1;" parent="1" source="pm3ECo5UAjwdnQUK8ZlX-3" target="pm3ECo5UAjwdnQUK8ZlX-4" edge="1">
          <mxGeometry relative="1" as="geometry" />
        </mxCell>
        <mxCell id="pm3ECo5UAjwdnQUK8ZlX-14" style="edgeStyle=orthogonalEdgeStyle;rounded=0;orthogonalLoop=1;jettySize=auto;html=1;" parent="1" source="pm3ECo5UAjwdnQUK8ZlX-3" edge="1">
          <mxGeometry relative="1" as="geometry">
            <mxPoint x="160" y="1570" as="targetPoint" />
          </mxGeometry>
        </mxCell>
        <mxCell id="pm3ECo5UAjwdnQUK8ZlX-3" value="Controller" style="text;html=1;align=center;verticalAlign=middle;resizable=0;points=[];autosize=1;strokeColor=#82b366;fillColor=#d5e8d4;" parent="1" vertex="1">
          <mxGeometry x="120" y="1418" width="80" height="30" as="geometry" />
        </mxCell>
        <mxCell id="pm3ECo5UAjwdnQUK8ZlX-13" style="edgeStyle=orthogonalEdgeStyle;rounded=0;orthogonalLoop=1;jettySize=auto;html=1;" parent="1" source="pm3ECo5UAjwdnQUK8ZlX-4" edge="1">
          <mxGeometry relative="1" as="geometry">
            <mxPoint x="390" y="1570" as="targetPoint" />
          </mxGeometry>
        </mxCell>
        <mxCell id="pm3ECo5UAjwdnQUK8ZlX-4" value="Service" style="text;html=1;align=center;verticalAlign=middle;resizable=0;points=[];autosize=1;strokeColor=#82b366;fillColor=#d5e8d4;" parent="1" vertex="1">
          <mxGeometry x="360" y="1418" width="60" height="30" as="geometry" />
        </mxCell>
        <mxCell id="pm3ECo5UAjwdnQUK8ZlX-6" value="Validations and business logic" style="text;html=1;align=center;verticalAlign=middle;resizable=0;points=[];autosize=1;strokeColor=none;fillColor=none;" parent="1" vertex="1">
          <mxGeometry x="315" y="1380" width="180" height="30" as="geometry" />
        </mxCell>
        <mxCell id="pm3ECo5UAjwdnQUK8ZlX-7" value="Handle requ&lt;div&gt;invoke service&lt;/div&gt;&lt;div&gt;populate model&lt;/div&gt;&lt;div&gt;return view&lt;/div&gt;" style="text;html=1;align=center;verticalAlign=middle;resizable=0;points=[];autosize=1;strokeColor=none;fillColor=none;" parent="1" vertex="1">
          <mxGeometry y="1380" width="110" height="70" as="geometry" />
        </mxCell>
        <mxCell id="pm3ECo5UAjwdnQUK8ZlX-12" style="edgeStyle=orthogonalEdgeStyle;rounded=0;orthogonalLoop=1;jettySize=auto;html=1;" parent="1" source="pm3ECo5UAjwdnQUK8ZlX-8" edge="1">
          <mxGeometry relative="1" as="geometry">
            <mxPoint x="600" y="1560" as="targetPoint" />
          </mxGeometry>
        </mxCell>
        <mxCell id="pm3ECo5UAjwdnQUK8ZlX-8" value="DAO" style="text;html=1;align=center;verticalAlign=middle;resizable=0;points=[];autosize=1;strokeColor=#82b366;fillColor=#d5e8d4;" parent="1" vertex="1">
          <mxGeometry x="575" y="1418" width="50" height="30" as="geometry" />
        </mxCell>
        <mxCell id="pm3ECo5UAjwdnQUK8ZlX-9" style="edgeStyle=orthogonalEdgeStyle;rounded=0;orthogonalLoop=1;jettySize=auto;html=1;entryX=0.1;entryY=0.5;entryDx=0;entryDy=0;entryPerimeter=0;" parent="1" source="pm3ECo5UAjwdnQUK8ZlX-4" target="pm3ECo5UAjwdnQUK8ZlX-8" edge="1">
          <mxGeometry relative="1" as="geometry" />
        </mxCell>
        <mxCell id="pm3ECo5UAjwdnQUK8ZlX-10" value="DB" style="shape=cylinder3;whiteSpace=wrap;html=1;boundedLbl=1;backgroundOutline=1;size=15;" parent="1" vertex="1">
          <mxGeometry x="730" y="1400" width="60" height="80" as="geometry" />
        </mxCell>
        <mxCell id="pm3ECo5UAjwdnQUK8ZlX-11" style="edgeStyle=orthogonalEdgeStyle;rounded=0;orthogonalLoop=1;jettySize=auto;html=1;entryX=0.183;entryY=0.388;entryDx=0;entryDy=0;entryPerimeter=0;" parent="1" source="pm3ECo5UAjwdnQUK8ZlX-8" target="pm3ECo5UAjwdnQUK8ZlX-10" edge="1">
          <mxGeometry relative="1" as="geometry" />
        </mxCell>
        <mxCell id="pm3ECo5UAjwdnQUK8ZlX-15" value="code resulability&lt;div&gt;easy to maintain&lt;/div&gt;&lt;div&gt;code more structured -&amp;nbsp;&lt;/div&gt;" style="text;html=1;align=center;verticalAlign=middle;resizable=0;points=[];autosize=1;strokeColor=none;fillColor=none;" parent="1" vertex="1">
          <mxGeometry x="340" y="1590" width="150" height="60" as="geometry" />
        </mxCell>
        <mxCell id="pm3ECo5UAjwdnQUK8ZlX-16" value="@service" style="text;html=1;align=center;verticalAlign=middle;resizable=0;points=[];autosize=1;strokeColor=none;fillColor=none;" parent="1" vertex="1">
          <mxGeometry x="315" y="1448" width="70" height="30" as="geometry" />
        </mxCell>
        <mxCell id="pm3ECo5UAjwdnQUK8ZlX-17" value="@Repository" style="text;html=1;align=center;verticalAlign=middle;resizable=0;points=[];autosize=1;strokeColor=none;fillColor=none;" parent="1" vertex="1">
          <mxGeometry x="520" y="1460" width="90" height="30" as="geometry" />
        </mxCell>
        <mxCell id="toZNprsj9y8BWxBylvsX-1" value="" style="whiteSpace=wrap;html=1;" parent="1" vertex="1">
          <mxGeometry x="320" y="1720" width="360" height="220" as="geometry" />
        </mxCell>
        <mxCell id="toZNprsj9y8BWxBylvsX-2" value="order" style="ellipse;whiteSpace=wrap;html=1;" parent="1" vertex="1">
          <mxGeometry x="375" y="1740" width="60" height="50" as="geometry" />
        </mxCell>
        <mxCell id="toZNprsj9y8BWxBylvsX-3" value="amazon web application" style="text;html=1;align=center;verticalAlign=middle;resizable=0;points=[];autosize=1;strokeColor=none;fillColor=none;" parent="1" vertex="1">
          <mxGeometry x="425" y="1688" width="150" height="30" as="geometry" />
        </mxCell>
        <mxCell id="toZNprsj9y8BWxBylvsX-4" value="reporting" style="ellipse;whiteSpace=wrap;html=1;" parent="1" vertex="1">
          <mxGeometry x="470" y="1740" width="60" height="50" as="geometry" />
        </mxCell>
        <mxCell id="toZNprsj9y8BWxBylvsX-5" value="payment gateway" style="ellipse;whiteSpace=wrap;html=1;" parent="1" vertex="1">
          <mxGeometry x="370" y="1810" width="60" height="50" as="geometry" />
        </mxCell>
        <mxCell id="toZNprsj9y8BWxBylvsX-6" value="profiling" style="ellipse;whiteSpace=wrap;html=1;" parent="1" vertex="1">
          <mxGeometry x="470" y="1810" width="60" height="50" as="geometry" />
        </mxCell>
        <mxCell id="toZNprsj9y8BWxBylvsX-7" value="seller" style="ellipse;whiteSpace=wrap;html=1;" parent="1" vertex="1">
          <mxGeometry x="370" y="1870" width="60" height="50" as="geometry" />
        </mxCell>
        <mxCell id="toZNprsj9y8BWxBylvsX-8" value="......" style="ellipse;whiteSpace=wrap;html=1;" parent="1" vertex="1">
          <mxGeometry x="480" y="1870" width="60" height="50" as="geometry" />
        </mxCell>
        <mxCell id="toZNprsj9y8BWxBylvsX-9" value="......" style="ellipse;whiteSpace=wrap;html=1;" parent="1" vertex="1">
          <mxGeometry x="555" y="1730" width="60" height="50" as="geometry" />
        </mxCell>
        <mxCell id="toZNprsj9y8BWxBylvsX-10" value="......" style="ellipse;whiteSpace=wrap;html=1;" parent="1" vertex="1">
          <mxGeometry x="560" y="1795" width="60" height="50" as="geometry" />
        </mxCell>
        <mxCell id="toZNprsj9y8BWxBylvsX-11" value="......" style="ellipse;whiteSpace=wrap;html=1;" parent="1" vertex="1">
          <mxGeometry x="565" y="1870" width="60" height="50" as="geometry" />
        </mxCell>
        <mxCell id="toZNprsj9y8BWxBylvsX-12" value="5 GB" style="text;html=1;align=center;verticalAlign=middle;resizable=0;points=[];autosize=1;strokeColor=none;fillColor=none;" parent="1" vertex="1">
          <mxGeometry x="615" y="1690" width="50" height="30" as="geometry" />
        </mxCell>
        <mxCell id="toZNprsj9y8BWxBylvsX-13" value="code - hard to maintain" style="text;html=1;align=center;verticalAlign=middle;resizable=0;points=[];autosize=1;strokeColor=none;fillColor=none;" parent="1" vertex="1">
          <mxGeometry x="290" y="1968" width="150" height="30" as="geometry" />
        </mxCell>
        <mxCell id="toZNprsj9y8BWxBylvsX-14" value="30 mins" style="text;html=1;align=center;verticalAlign=middle;resizable=0;points=[];autosize=1;strokeColor=none;fillColor=none;" parent="1" vertex="1">
          <mxGeometry x="610" y="1968" width="70" height="30" as="geometry" />
        </mxCell>
        <mxCell id="toZNprsj9y8BWxBylvsX-22" style="edgeStyle=orthogonalEdgeStyle;rounded=0;orthogonalLoop=1;jettySize=auto;html=1;" parent="1" source="toZNprsj9y8BWxBylvsX-15" edge="1" target="toZNprsj9y8BWxBylvsX-23">
          <mxGeometry relative="1" as="geometry">
            <mxPoint x="540" y="2040" as="targetPoint" />
          </mxGeometry>
        </mxCell>
        <mxCell id="toZNprsj9y8BWxBylvsX-15" value="16 GB" style="whiteSpace=wrap;html=1;" parent="1" vertex="1">
          <mxGeometry x="290" y="2030" width="120" height="60" as="geometry" />
        </mxCell>
        <mxCell id="toZNprsj9y8BWxBylvsX-19" style="edgeStyle=orthogonalEdgeStyle;rounded=0;orthogonalLoop=1;jettySize=auto;html=1;" parent="1" source="toZNprsj9y8BWxBylvsX-16" target="toZNprsj9y8BWxBylvsX-15" edge="1">
          <mxGeometry relative="1" as="geometry" />
        </mxCell>
        <mxCell id="toZNprsj9y8BWxBylvsX-28" style="edgeStyle=orthogonalEdgeStyle;rounded=0;orthogonalLoop=1;jettySize=auto;html=1;entryX=0;entryY=0.5;entryDx=0;entryDy=0;" parent="1" source="toZNprsj9y8BWxBylvsX-16" target="toZNprsj9y8BWxBylvsX-27" edge="1">
          <mxGeometry relative="1" as="geometry" />
        </mxCell>
        <mxCell id="toZNprsj9y8BWxBylvsX-16" value="Actor" style="shape=umlActor;verticalLabelPosition=bottom;verticalAlign=top;html=1;outlineConnect=0;" parent="1" vertex="1">
          <mxGeometry x="80" y="1990" width="30" height="60" as="geometry" />
        </mxCell>
        <mxCell id="toZNprsj9y8BWxBylvsX-20" style="edgeStyle=orthogonalEdgeStyle;rounded=0;orthogonalLoop=1;jettySize=auto;html=1;" parent="1" source="toZNprsj9y8BWxBylvsX-18" edge="1">
          <mxGeometry relative="1" as="geometry">
            <mxPoint x="100" y="2130" as="targetPoint" />
          </mxGeometry>
        </mxCell>
        <mxCell id="toZNprsj9y8BWxBylvsX-18" value="100" style="text;html=1;align=center;verticalAlign=middle;resizable=0;points=[];autosize=1;strokeColor=none;fillColor=none;" parent="1" vertex="1">
          <mxGeometry x="80" y="2068" width="40" height="30" as="geometry" />
        </mxCell>
        <mxCell id="toZNprsj9y8BWxBylvsX-24" style="edgeStyle=orthogonalEdgeStyle;rounded=0;orthogonalLoop=1;jettySize=auto;html=1;" parent="1" source="toZNprsj9y8BWxBylvsX-21" edge="1">
          <mxGeometry relative="1" as="geometry">
            <mxPoint x="95" y="2230" as="targetPoint" />
          </mxGeometry>
        </mxCell>
        <mxCell id="toZNprsj9y8BWxBylvsX-21" value="10000" style="text;html=1;align=center;verticalAlign=middle;resizable=0;points=[];autosize=1;strokeColor=none;fillColor=none;" parent="1" vertex="1">
          <mxGeometry x="65" y="2138" width="60" height="30" as="geometry" />
        </mxCell>
        <mxCell id="toZNprsj9y8BWxBylvsX-23" value="64 GB" style="whiteSpace=wrap;html=1;" parent="1" vertex="1">
          <mxGeometry x="550" y="2010" width="120" height="60" as="geometry" />
        </mxCell>
        <mxCell id="toZNprsj9y8BWxBylvsX-25" value="1000000000" style="text;html=1;align=center;verticalAlign=middle;resizable=0;points=[];autosize=1;strokeColor=none;fillColor=none;" parent="1" vertex="1">
          <mxGeometry x="55" y="2238" width="90" height="30" as="geometry" />
        </mxCell>
        <mxCell id="toZNprsj9y8BWxBylvsX-26" value="" style="shape=hexagon;perimeter=hexagonPerimeter2;whiteSpace=wrap;html=1;fixedSize=1;fillColor=#dae8fc;strokeColor=#6c8ebf;" parent="1" vertex="1">
          <mxGeometry x="480" y="2120" width="330" height="160" as="geometry" />
        </mxCell>
        <mxCell id="toZNprsj9y8BWxBylvsX-32" style="edgeStyle=orthogonalEdgeStyle;rounded=0;orthogonalLoop=1;jettySize=auto;html=1;" parent="1" source="toZNprsj9y8BWxBylvsX-27" target="toZNprsj9y8BWxBylvsX-26" edge="1">
          <mxGeometry relative="1" as="geometry" />
        </mxCell>
        <mxCell id="toZNprsj9y8BWxBylvsX-27" value="LB" style="ellipse;whiteSpace=wrap;html=1;fillColor=#d5e8d4;strokeColor=#82b366;" parent="1" vertex="1">
          <mxGeometry x="315" y="2130" width="120" height="80" as="geometry" />
        </mxCell>
        <mxCell id="toZNprsj9y8BWxBylvsX-29" value="8GB" style="whiteSpace=wrap;html=1;" parent="1" vertex="1">
          <mxGeometry x="515" y="2130" width="120" height="60" as="geometry" />
        </mxCell>
        <mxCell id="toZNprsj9y8BWxBylvsX-30" value="8GB" style="whiteSpace=wrap;html=1;" parent="1" vertex="1">
          <mxGeometry x="515" y="2210" width="120" height="60" as="geometry" />
        </mxCell>
        <mxCell id="toZNprsj9y8BWxBylvsX-31" value="8GB" style="whiteSpace=wrap;html=1;" parent="1" vertex="1">
          <mxGeometry x="650" y="2130" width="120" height="60" as="geometry" />
        </mxCell>
        <mxCell id="toZNprsj9y8BWxBylvsX-47" style="edgeStyle=orthogonalEdgeStyle;rounded=0;orthogonalLoop=1;jettySize=auto;html=1;" parent="1" source="toZNprsj9y8BWxBylvsX-34" target="toZNprsj9y8BWxBylvsX-43" edge="1">
          <mxGeometry relative="1" as="geometry" />
        </mxCell>
        <mxCell id="FBK8uE6qRtSQVRZJ9_ID-2" style="edgeStyle=orthogonalEdgeStyle;rounded=0;orthogonalLoop=1;jettySize=auto;html=1;" parent="1" source="toZNprsj9y8BWxBylvsX-34" target="toZNprsj9y8BWxBylvsX-35" edge="1">
          <mxGeometry relative="1" as="geometry" />
        </mxCell>
        <mxCell id="toZNprsj9y8BWxBylvsX-34" value="order" style="ellipse;whiteSpace=wrap;html=1;" parent="1" vertex="1">
          <mxGeometry x="450" y="2330" width="80" height="50" as="geometry" />
        </mxCell>
        <mxCell id="toZNprsj9y8BWxBylvsX-35" value="profile" style="ellipse;whiteSpace=wrap;html=1;" parent="1" vertex="1">
          <mxGeometry x="580" y="2330" width="80" height="50" as="geometry" />
        </mxCell>
        <mxCell id="toZNprsj9y8BWxBylvsX-36" value="product" style="ellipse;whiteSpace=wrap;html=1;" parent="1" vertex="1">
          <mxGeometry x="450" y="2410" width="80" height="50" as="geometry" />
        </mxCell>
        <mxCell id="toZNprsj9y8BWxBylvsX-37" value="report" style="ellipse;whiteSpace=wrap;html=1;" parent="1" vertex="1">
          <mxGeometry x="575" y="2410" width="80" height="50" as="geometry" />
        </mxCell>
        <mxCell id="toZNprsj9y8BWxBylvsX-38" value="Actor" style="shape=umlActor;verticalLabelPosition=bottom;verticalAlign=top;html=1;outlineConnect=0;" parent="1" vertex="1">
          <mxGeometry x="70" y="1785" width="30" height="60" as="geometry" />
        </mxCell>
        <mxCell id="toZNprsj9y8BWxBylvsX-39" style="edgeStyle=orthogonalEdgeStyle;rounded=0;orthogonalLoop=1;jettySize=auto;html=1;entryX=0.008;entryY=0.355;entryDx=0;entryDy=0;entryPerimeter=0;" parent="1" source="toZNprsj9y8BWxBylvsX-38" target="toZNprsj9y8BWxBylvsX-1" edge="1">
          <mxGeometry relative="1" as="geometry" />
        </mxCell>
        <mxCell id="toZNprsj9y8BWxBylvsX-40" style="edgeStyle=orthogonalEdgeStyle;rounded=0;orthogonalLoop=1;jettySize=auto;html=1;entryX=1;entryY=1;entryDx=0;entryDy=0;entryPerimeter=0;" parent="1" source="toZNprsj9y8BWxBylvsX-1" target="toZNprsj9y8BWxBylvsX-38" edge="1">
          <mxGeometry relative="1" as="geometry">
            <Array as="points">
              <mxPoint x="100" y="1865" />
            </Array>
          </mxGeometry>
        </mxCell>
        <mxCell id="toZNprsj9y8BWxBylvsX-41" value="html" style="text;html=1;align=center;verticalAlign=middle;resizable=0;points=[];autosize=1;strokeColor=none;fillColor=none;" parent="1" vertex="1">
          <mxGeometry x="175" y="1868" width="50" height="30" as="geometry" />
        </mxCell>
        <mxCell id="toZNprsj9y8BWxBylvsX-42" value="you need way for service to deliver just data" style="text;html=1;align=center;verticalAlign=middle;resizable=0;points=[];autosize=1;strokeColor=none;fillColor=none;" parent="1" vertex="1">
          <mxGeometry x="190" y="2288" width="260" height="30" as="geometry" />
        </mxCell>
        <mxCell id="toZNprsj9y8BWxBylvsX-46" style="edgeStyle=orthogonalEdgeStyle;rounded=0;orthogonalLoop=1;jettySize=auto;html=1;" parent="1" source="toZNprsj9y8BWxBylvsX-43" target="toZNprsj9y8BWxBylvsX-34" edge="1">
          <mxGeometry relative="1" as="geometry" />
        </mxCell>
        <mxCell id="toZNprsj9y8BWxBylvsX-48" style="edgeStyle=orthogonalEdgeStyle;rounded=0;orthogonalLoop=1;jettySize=auto;html=1;" parent="1" source="toZNprsj9y8BWxBylvsX-43" edge="1">
          <mxGeometry relative="1" as="geometry">
            <mxPoint x="90" y="2350" as="targetPoint" />
          </mxGeometry>
        </mxCell>
        <mxCell id="toZNprsj9y8BWxBylvsX-43" value="MVC" style="rounded=0;whiteSpace=wrap;html=1;" parent="1" vertex="1">
          <mxGeometry x="245" y="2330" width="90" height="120" as="geometry" />
        </mxCell>
        <mxCell id="toZNprsj9y8BWxBylvsX-45" style="edgeStyle=orthogonalEdgeStyle;rounded=0;orthogonalLoop=1;jettySize=auto;html=1;" parent="1" source="toZNprsj9y8BWxBylvsX-44" target="toZNprsj9y8BWxBylvsX-43" edge="1">
          <mxGeometry relative="1" as="geometry" />
        </mxCell>
        <mxCell id="toZNprsj9y8BWxBylvsX-44" value="Actor" style="shape=umlActor;verticalLabelPosition=bottom;verticalAlign=top;html=1;outlineConnect=0;" parent="1" vertex="1">
          <mxGeometry x="55" y="2350" width="30" height="60" as="geometry" />
        </mxCell>
        <mxCell id="toZNprsj9y8BWxBylvsX-50" style="edgeStyle=orthogonalEdgeStyle;rounded=0;orthogonalLoop=1;jettySize=auto;html=1;" parent="1" source="toZNprsj9y8BWxBylvsX-49" target="toZNprsj9y8BWxBylvsX-34" edge="1">
          <mxGeometry relative="1" as="geometry" />
        </mxCell>
        <mxCell id="toZNprsj9y8BWxBylvsX-49" value="Angular/React JS" style="rounded=0;whiteSpace=wrap;html=1;" parent="1" vertex="1">
          <mxGeometry x="245" y="2490" width="90" height="120" as="geometry" />
        </mxCell>
        <mxCell id="toZNprsj9y8BWxBylvsX-51" style="edgeStyle=orthogonalEdgeStyle;rounded=0;orthogonalLoop=1;jettySize=auto;html=1;entryX=0.5;entryY=1.333;entryDx=0;entryDy=0;entryPerimeter=0;" parent="1" source="toZNprsj9y8BWxBylvsX-49" target="toZNprsj9y8BWxBylvsX-44" edge="1">
          <mxGeometry relative="1" as="geometry" />
        </mxCell>
        <mxCell id="toZNprsj9y8BWxBylvsX-52" value="" style="rounded=0;whiteSpace=wrap;html=1;" parent="1" vertex="1">
          <mxGeometry x="485" y="2640" width="120" height="60" as="geometry" />
        </mxCell>
        <mxCell id="toZNprsj9y8BWxBylvsX-54" value="" style="shape=cylinder3;whiteSpace=wrap;html=1;boundedLbl=1;backgroundOutline=1;size=15;" parent="1" vertex="1">
          <mxGeometry x="700" y="2630" width="60" height="80" as="geometry" />
        </mxCell>
        <mxCell id="toZNprsj9y8BWxBylvsX-55" style="edgeStyle=orthogonalEdgeStyle;rounded=0;orthogonalLoop=1;jettySize=auto;html=1;entryX=0;entryY=0;entryDx=0;entryDy=27.5;entryPerimeter=0;" parent="1" source="toZNprsj9y8BWxBylvsX-52" target="toZNprsj9y8BWxBylvsX-54" edge="1">
          <mxGeometry relative="1" as="geometry" />
        </mxCell>
        <mxCell id="toZNprsj9y8BWxBylvsX-56" value="resource" style="text;html=1;align=center;verticalAlign=middle;resizable=0;points=[];autosize=1;strokeColor=none;fillColor=none;" parent="1" vertex="1">
          <mxGeometry x="510" y="2610" width="70" height="30" as="geometry" />
        </mxCell>
        <mxCell id="toZNprsj9y8BWxBylvsX-58" style="edgeStyle=orthogonalEdgeStyle;rounded=0;orthogonalLoop=1;jettySize=auto;html=1;" parent="1" source="toZNprsj9y8BWxBylvsX-57" edge="1">
          <mxGeometry relative="1" as="geometry">
            <mxPoint x="610" y="2743" as="targetPoint" />
          </mxGeometry>
        </mxCell>
        <mxCell id="FBK8uE6qRtSQVRZJ9_ID-1" style="edgeStyle=orthogonalEdgeStyle;rounded=0;orthogonalLoop=1;jettySize=auto;html=1;" parent="1" source="toZNprsj9y8BWxBylvsX-57" edge="1">
          <mxGeometry relative="1" as="geometry">
            <mxPoint x="340" y="2750" as="targetPoint" />
          </mxGeometry>
        </mxCell>
        <mxCell id="toZNprsj9y8BWxBylvsX-57" value="GET&amp;nbsp; employees/101" style="text;html=1;align=center;verticalAlign=middle;resizable=0;points=[];autosize=1;strokeColor=none;fillColor=none;" parent="1" vertex="1">
          <mxGeometry x="425" y="2728" width="140" height="30" as="geometry" />
        </mxCell>
        <mxCell id="toZNprsj9y8BWxBylvsX-59" value="Get details of Employee with id 101" style="text;html=1;align=center;verticalAlign=middle;resizable=0;points=[];autosize=1;strokeColor=none;fillColor=none;" parent="1" vertex="1">
          <mxGeometry x="615" y="2728" width="210" height="30" as="geometry" />
        </mxCell>
        <mxCell id="toZNprsj9y8BWxBylvsX-61" style="edgeStyle=orthogonalEdgeStyle;rounded=0;orthogonalLoop=1;jettySize=auto;html=1;" parent="1" source="toZNprsj9y8BWxBylvsX-60" edge="1">
          <mxGeometry relative="1" as="geometry">
            <mxPoint x="590" y="2783" as="targetPoint" />
          </mxGeometry>
        </mxCell>
        <mxCell id="toZNprsj9y8BWxBylvsX-60" value="POST /employees" style="text;html=1;align=center;verticalAlign=middle;resizable=0;points=[];autosize=1;strokeColor=none;fillColor=none;" parent="1" vertex="1">
          <mxGeometry x="420" y="2768" width="120" height="30" as="geometry" />
        </mxCell>
        <mxCell id="toZNprsj9y8BWxBylvsX-62" value="crate a new employee" style="text;html=1;align=center;verticalAlign=middle;resizable=0;points=[];autosize=1;strokeColor=none;fillColor=none;" parent="1" vertex="1">
          <mxGeometry x="620" y="2768" width="140" height="30" as="geometry" />
        </mxCell>
        <mxCell id="toZNprsj9y8BWxBylvsX-63" value="PUT /employees/101" style="text;html=1;align=center;verticalAlign=middle;resizable=0;points=[];autosize=1;strokeColor=none;fillColor=none;" parent="1" vertex="1">
          <mxGeometry x="410" y="2810" width="140" height="30" as="geometry" />
        </mxCell>
        <mxCell id="toZNprsj9y8BWxBylvsX-64" value="Update employees with ID 101" style="text;html=1;align=center;verticalAlign=middle;resizable=0;points=[];autosize=1;strokeColor=none;fillColor=none;" parent="1" vertex="1">
          <mxGeometry x="575" y="2818" width="190" height="30" as="geometry" />
        </mxCell>
        <mxCell id="toZNprsj9y8BWxBylvsX-65" value="DELETE /employees/101" style="text;html=1;align=center;verticalAlign=middle;resizable=0;points=[];autosize=1;strokeColor=none;fillColor=none;" parent="1" vertex="1">
          <mxGeometry x="395" y="2848" width="160" height="30" as="geometry" />
        </mxCell>
        <mxCell id="FBK8uE6qRtSQVRZJ9_ID-4" style="edgeStyle=orthogonalEdgeStyle;rounded=0;orthogonalLoop=1;jettySize=auto;html=1;" parent="1" source="FBK8uE6qRtSQVRZJ9_ID-3" edge="1">
          <mxGeometry relative="1" as="geometry">
            <mxPoint x="380" y="2930" as="targetPoint" />
          </mxGeometry>
        </mxCell>
        <mxCell id="FBK8uE6qRtSQVRZJ9_ID-6" style="edgeStyle=orthogonalEdgeStyle;rounded=0;orthogonalLoop=1;jettySize=auto;html=1;" parent="1" source="FBK8uE6qRtSQVRZJ9_ID-3" edge="1">
          <mxGeometry relative="1" as="geometry">
            <mxPoint x="390" y="2950" as="targetPoint" />
          </mxGeometry>
        </mxCell>
        <mxCell id="FBK8uE6qRtSQVRZJ9_ID-9" value="" style="edgeStyle=orthogonalEdgeStyle;rounded=0;orthogonalLoop=1;jettySize=auto;html=1;" parent="1" source="FBK8uE6qRtSQVRZJ9_ID-3" target="FBK8uE6qRtSQVRZJ9_ID-8" edge="1">
          <mxGeometry relative="1" as="geometry" />
        </mxCell>
        <mxCell id="FBK8uE6qRtSQVRZJ9_ID-3" value="Configuration" style="text;html=1;align=center;verticalAlign=middle;resizable=0;points=[];autosize=1;strokeColor=none;fillColor=#CCFFE6;" parent="1" vertex="1">
          <mxGeometry x="230" y="2928" width="90" height="30" as="geometry" />
        </mxCell>
        <mxCell id="-2iyxIRp6NtQleiNwIFJ-1" style="edgeStyle=orthogonalEdgeStyle;rounded=0;orthogonalLoop=1;jettySize=auto;html=1;" edge="1" parent="1" source="FBK8uE6qRtSQVRZJ9_ID-5">
          <mxGeometry relative="1" as="geometry">
            <mxPoint x="600" y="2923" as="targetPoint" />
          </mxGeometry>
        </mxCell>
        <mxCell id="FBK8uE6qRtSQVRZJ9_ID-5" value="Connection details" style="text;html=1;align=center;verticalAlign=middle;resizable=0;points=[];autosize=1;strokeColor=none;fillColor=none;" parent="1" vertex="1">
          <mxGeometry x="400" y="2908" width="120" height="30" as="geometry" />
        </mxCell>
        <mxCell id="FBK8uE6qRtSQVRZJ9_ID-7" value="Mapping Details" style="text;html=1;align=center;verticalAlign=middle;resizable=0;points=[];autosize=1;strokeColor=#b85450;fillColor=#f8cecc;" parent="1" vertex="1">
          <mxGeometry x="400" y="2938" width="110" height="30" as="geometry" />
        </mxCell>
        <mxCell id="FBK8uE6qRtSQVRZJ9_ID-10" style="edgeStyle=orthogonalEdgeStyle;rounded=0;orthogonalLoop=1;jettySize=auto;html=1;" parent="1" source="FBK8uE6qRtSQVRZJ9_ID-8" edge="1">
          <mxGeometry relative="1" as="geometry">
            <mxPoint x="420" y="3025" as="targetPoint" />
          </mxGeometry>
        </mxCell>
        <mxCell id="FBK8uE6qRtSQVRZJ9_ID-15" value="" style="edgeStyle=orthogonalEdgeStyle;rounded=0;orthogonalLoop=1;jettySize=auto;html=1;" parent="1" source="FBK8uE6qRtSQVRZJ9_ID-8" target="FBK8uE6qRtSQVRZJ9_ID-14" edge="1">
          <mxGeometry relative="1" as="geometry" />
        </mxCell>
        <mxCell id="FBK8uE6qRtSQVRZJ9_ID-8" value="SessionFactory" style="text;html=1;align=center;verticalAlign=middle;resizable=0;points=[];autosize=1;strokeColor=none;fillColor=#CCFFE6;fontStyle=1" parent="1" vertex="1">
          <mxGeometry x="220" y="3010" width="110" height="30" as="geometry" />
        </mxCell>
        <mxCell id="FBK8uE6qRtSQVRZJ9_ID-11" value="Active connection to the database" style="text;html=1;align=center;verticalAlign=middle;resizable=0;points=[];autosize=1;strokeColor=none;fillColor=none;" parent="1" vertex="1">
          <mxGeometry x="470" y="3008" width="200" height="30" as="geometry" />
        </mxCell>
        <mxCell id="FBK8uE6qRtSQVRZJ9_ID-12" value="Factory of session" style="text;html=1;align=center;verticalAlign=middle;resizable=0;points=[];autosize=1;strokeColor=none;fillColor=none;" parent="1" vertex="1">
          <mxGeometry x="450" y="3038" width="120" height="30" as="geometry" />
        </mxCell>
        <mxCell id="FBK8uE6qRtSQVRZJ9_ID-13" value="Thread safe" style="text;html=1;align=center;verticalAlign=middle;resizable=0;points=[];autosize=1;strokeColor=none;fillColor=none;" parent="1" vertex="1">
          <mxGeometry x="455" y="3068" width="90" height="30" as="geometry" />
        </mxCell>
        <mxCell id="FBK8uE6qRtSQVRZJ9_ID-16" style="edgeStyle=orthogonalEdgeStyle;rounded=0;orthogonalLoop=1;jettySize=auto;html=1;" parent="1" source="FBK8uE6qRtSQVRZJ9_ID-14" edge="1">
          <mxGeometry relative="1" as="geometry">
            <mxPoint x="380" y="3105" as="targetPoint" />
          </mxGeometry>
        </mxCell>
        <mxCell id="FBK8uE6qRtSQVRZJ9_ID-19" style="edgeStyle=orthogonalEdgeStyle;rounded=0;orthogonalLoop=1;jettySize=auto;html=1;" parent="1" source="FBK8uE6qRtSQVRZJ9_ID-14" edge="1">
          <mxGeometry relative="1" as="geometry">
            <mxPoint x="80" y="3220" as="targetPoint" />
          </mxGeometry>
        </mxCell>
        <mxCell id="FBK8uE6qRtSQVRZJ9_ID-21" style="edgeStyle=orthogonalEdgeStyle;rounded=0;orthogonalLoop=1;jettySize=auto;html=1;" parent="1" source="FBK8uE6qRtSQVRZJ9_ID-14" edge="1">
          <mxGeometry relative="1" as="geometry">
            <mxPoint x="275" y="3200" as="targetPoint" />
          </mxGeometry>
        </mxCell>
        <mxCell id="FBK8uE6qRtSQVRZJ9_ID-25" style="edgeStyle=orthogonalEdgeStyle;rounded=0;orthogonalLoop=1;jettySize=auto;html=1;" parent="1" source="FBK8uE6qRtSQVRZJ9_ID-14" edge="1">
          <mxGeometry relative="1" as="geometry">
            <mxPoint x="370" y="3210" as="targetPoint" />
          </mxGeometry>
        </mxCell>
        <mxCell id="FBK8uE6qRtSQVRZJ9_ID-14" value="Session" style="text;html=1;align=center;verticalAlign=middle;resizable=0;points=[];autosize=1;strokeColor=none;fillColor=#CCFFE6;fontStyle=1" parent="1" vertex="1">
          <mxGeometry x="240" y="3090" width="70" height="30" as="geometry" />
        </mxCell>
        <mxCell id="FBK8uE6qRtSQVRZJ9_ID-17" value="Used to interact with DB" style="text;html=1;align=center;verticalAlign=middle;resizable=0;points=[];autosize=1;strokeColor=none;fillColor=none;" parent="1" vertex="1">
          <mxGeometry x="385" y="3090" width="150" height="30" as="geometry" />
        </mxCell>
        <mxCell id="FBK8uE6qRtSQVRZJ9_ID-18" value="Not threadsafe" style="text;html=1;align=center;verticalAlign=middle;resizable=0;points=[];autosize=1;strokeColor=none;fillColor=none;" parent="1" vertex="1">
          <mxGeometry x="400" y="3108" width="100" height="30" as="geometry" />
        </mxCell>
        <mxCell id="FBK8uE6qRtSQVRZJ9_ID-20" value="Transaction" style="text;html=1;align=center;verticalAlign=middle;resizable=0;points=[];autosize=1;strokeColor=none;fillColor=#99FFCC;" parent="1" vertex="1">
          <mxGeometry x="35" y="3218" width="90" height="30" as="geometry" />
        </mxCell>
        <mxCell id="FBK8uE6qRtSQVRZJ9_ID-23" style="edgeStyle=orthogonalEdgeStyle;rounded=0;orthogonalLoop=1;jettySize=auto;html=1;" parent="1" source="FBK8uE6qRtSQVRZJ9_ID-22" edge="1">
          <mxGeometry relative="1" as="geometry">
            <mxPoint x="270" y="3270" as="targetPoint" />
          </mxGeometry>
        </mxCell>
        <mxCell id="FBK8uE6qRtSQVRZJ9_ID-22" value="Query" style="text;html=1;align=center;verticalAlign=middle;resizable=0;points=[];autosize=1;strokeColor=none;fillColor=#33FF99;" parent="1" vertex="1">
          <mxGeometry x="240" y="3208" width="60" height="30" as="geometry" />
        </mxCell>
        <mxCell id="FBK8uE6qRtSQVRZJ9_ID-27" style="edgeStyle=orthogonalEdgeStyle;rounded=0;orthogonalLoop=1;jettySize=auto;html=1;" parent="1" source="FBK8uE6qRtSQVRZJ9_ID-24" edge="1">
          <mxGeometry relative="1" as="geometry">
            <mxPoint x="270" y="3330" as="targetPoint" />
          </mxGeometry>
        </mxCell>
        <mxCell id="FBK8uE6qRtSQVRZJ9_ID-24" value="HQL" style="text;html=1;align=center;verticalAlign=middle;resizable=0;points=[];autosize=1;strokeColor=none;fillColor=none;" parent="1" vertex="1">
          <mxGeometry x="245" y="3268" width="50" height="30" as="geometry" />
        </mxCell>
        <mxCell id="FBK8uE6qRtSQVRZJ9_ID-26" value="CriteriaQuery" style="text;html=1;align=center;verticalAlign=middle;resizable=0;points=[];autosize=1;strokeColor=none;fillColor=#99FFCC;fontStyle=1" parent="1" vertex="1">
          <mxGeometry x="335" y="3208" width="90" height="30" as="geometry" />
        </mxCell>
        <mxCell id="FBK8uE6qRtSQVRZJ9_ID-28" value="Instead of table name --&amp;gt; just use class name" style="text;html=1;align=center;verticalAlign=middle;resizable=0;points=[];autosize=1;strokeColor=none;fillColor=none;" parent="1" vertex="1">
          <mxGeometry x="155" y="3338" width="270" height="30" as="geometry" />
        </mxCell>
        <mxCell id="FBK8uE6qRtSQVRZJ9_ID-29" value="Spring Data JPA" style="text;html=1;align=center;verticalAlign=middle;resizable=0;points=[];autosize=1;strokeColor=none;fillColor=none;" parent="1" vertex="1">
          <mxGeometry x="75" y="3410" width="110" height="30" as="geometry" />
        </mxCell>
      </root>
    </mxGraphModel>
  </diagram>
  <diagram id="T-tolSk3tDv-CofIONCM" name="design">
    <mxGraphModel dx="1106" dy="605" grid="1" gridSize="10" guides="1" tooltips="1" connect="1" arrows="1" fold="1" page="1" pageScale="1" pageWidth="850" pageHeight="1100" math="0" shadow="0">
      <root>
        <mxCell id="0" />
        <mxCell id="1" parent="0" />
        <mxCell id="26HD88psSA1WqcQscgie-1" value="User Experiences (UI)" style="whiteSpace=wrap;html=1;fillColor=#d5e8d4;strokeColor=#82b366;" vertex="1" parent="1">
          <mxGeometry x="40" y="40" width="250" height="40" as="geometry" />
        </mxCell>
        <mxCell id="26HD88psSA1WqcQscgie-2" value="" style="whiteSpace=wrap;html=1;" vertex="1" parent="1">
          <mxGeometry x="40" y="120" width="250" height="240" as="geometry" />
        </mxCell>
        <mxCell id="26HD88psSA1WqcQscgie-3" value="presentation service" style="rounded=0;whiteSpace=wrap;html=1;fillColor=#d5e8d4;strokeColor=#82b366;" vertex="1" parent="1">
          <mxGeometry x="75" y="160" width="180" height="50" as="geometry" />
        </mxCell>
        <mxCell id="26HD88psSA1WqcQscgie-4" value="shared business process" style="rounded=0;whiteSpace=wrap;html=1;fillColor=#d5e8d4;strokeColor=#82b366;" vertex="1" parent="1">
          <mxGeometry x="75" y="220" width="180" height="50" as="geometry" />
        </mxCell>
        <mxCell id="26HD88psSA1WqcQscgie-5" value="Data acess services" style="rounded=0;whiteSpace=wrap;html=1;fillColor=#f8cecc;strokeColor=#b85450;" vertex="1" parent="1">
          <mxGeometry x="75" y="280" width="180" height="50" as="geometry" />
        </mxCell>
        <mxCell id="26HD88psSA1WqcQscgie-6" value="S&lt;div&gt;E&lt;/div&gt;&lt;div&gt;R&lt;/div&gt;&lt;div&gt;V&lt;/div&gt;&lt;div&gt;I&lt;/div&gt;&lt;div&gt;C&lt;/div&gt;&lt;div&gt;E&lt;/div&gt;&lt;div&gt;&lt;br&gt;&lt;/div&gt;&lt;div&gt;B&lt;/div&gt;&lt;div&gt;U&lt;/div&gt;&lt;div&gt;S&lt;/div&gt;" style="rounded=0;whiteSpace=wrap;html=1;" vertex="1" parent="1">
          <mxGeometry x="340" y="40" width="70" height="320" as="geometry" />
        </mxCell>
        <mxCell id="26HD88psSA1WqcQscgie-7" value="ESB" style="text;html=1;align=center;verticalAlign=middle;resizable=0;points=[];autosize=1;strokeColor=none;fillColor=none;" vertex="1" parent="1">
          <mxGeometry x="355" y="8" width="50" height="30" as="geometry" />
        </mxCell>
        <mxCell id="26HD88psSA1WqcQscgie-8" value="Sales team" style="text;html=1;align=center;verticalAlign=middle;resizable=0;points=[];autosize=1;strokeColor=#b85450;fillColor=#f8cecc;" vertex="1" parent="1">
          <mxGeometry x="85" y="400" width="80" height="30" as="geometry" />
        </mxCell>
        <mxCell id="26HD88psSA1WqcQscgie-9" value="Support team" style="text;html=1;align=center;verticalAlign=middle;resizable=0;points=[];autosize=1;strokeColor=#b85450;fillColor=#f8cecc;" vertex="1" parent="1">
          <mxGeometry x="620" y="400" width="100" height="30" as="geometry" />
        </mxCell>
        <mxCell id="26HD88psSA1WqcQscgie-12" style="edgeStyle=orthogonalEdgeStyle;rounded=0;orthogonalLoop=1;jettySize=auto;html=1;" edge="1" parent="1" source="26HD88psSA1WqcQscgie-11">
          <mxGeometry relative="1" as="geometry">
            <mxPoint x="60" y="520" as="targetPoint" />
          </mxGeometry>
        </mxCell>
        <mxCell id="26HD88psSA1WqcQscgie-14" style="edgeStyle=orthogonalEdgeStyle;rounded=0;orthogonalLoop=1;jettySize=auto;html=1;" edge="1" parent="1" source="26HD88psSA1WqcQscgie-11" target="26HD88psSA1WqcQscgie-15">
          <mxGeometry relative="1" as="geometry">
            <mxPoint x="240" y="520" as="targetPoint" />
          </mxGeometry>
        </mxCell>
        <mxCell id="26HD88psSA1WqcQscgie-11" value="Opportunity" style="text;html=1;align=center;verticalAlign=middle;resizable=0;points=[];autosize=1;strokeColor=#82b366;fillColor=#d5e8d4;fontStyle=1" vertex="1" parent="1">
          <mxGeometry x="85" y="448" width="90" height="30" as="geometry" />
        </mxCell>
        <mxCell id="26HD88psSA1WqcQscgie-13" value="Pipelines" style="text;html=1;align=center;verticalAlign=middle;resizable=0;points=[];autosize=1;strokeColor=none;fillColor=none;" vertex="1" parent="1">
          <mxGeometry x="25" y="518" width="70" height="30" as="geometry" />
        </mxCell>
        <mxCell id="26HD88psSA1WqcQscgie-27" style="edgeStyle=orthogonalEdgeStyle;rounded=0;orthogonalLoop=1;jettySize=auto;html=1;" edge="1" parent="1" source="26HD88psSA1WqcQscgie-15">
          <mxGeometry relative="1" as="geometry">
            <mxPoint x="300" y="580" as="targetPoint" />
          </mxGeometry>
        </mxCell>
        <mxCell id="26HD88psSA1WqcQscgie-30" style="edgeStyle=orthogonalEdgeStyle;rounded=0;orthogonalLoop=1;jettySize=auto;html=1;" edge="1" parent="1" source="26HD88psSA1WqcQscgie-15">
          <mxGeometry relative="1" as="geometry">
            <mxPoint x="300" y="470" as="targetPoint" />
          </mxGeometry>
        </mxCell>
        <mxCell id="26HD88psSA1WqcQscgie-15" value="Territory" style="text;html=1;align=center;verticalAlign=middle;whiteSpace=wrap;rounded=0;fillColor=#d5e8d4;strokeColor=#82b366;fontStyle=1" vertex="1" parent="1">
          <mxGeometry x="210" y="505" width="60" height="30" as="geometry" />
        </mxCell>
        <mxCell id="26HD88psSA1WqcQscgie-17" style="edgeStyle=orthogonalEdgeStyle;rounded=0;orthogonalLoop=1;jettySize=auto;html=1;entryX=0.25;entryY=1;entryDx=0;entryDy=0;" edge="1" parent="1" source="26HD88psSA1WqcQscgie-16" target="26HD88psSA1WqcQscgie-15">
          <mxGeometry relative="1" as="geometry" />
        </mxCell>
        <mxCell id="26HD88psSA1WqcQscgie-16" value="sales person" style="text;html=1;align=center;verticalAlign=middle;resizable=0;points=[];autosize=1;strokeColor=none;fillColor=none;" vertex="1" parent="1">
          <mxGeometry x="135" y="580" width="90" height="30" as="geometry" />
        </mxCell>
        <mxCell id="26HD88psSA1WqcQscgie-19" style="edgeStyle=orthogonalEdgeStyle;rounded=0;orthogonalLoop=1;jettySize=auto;html=1;" edge="1" parent="1" source="26HD88psSA1WqcQscgie-18">
          <mxGeometry relative="1" as="geometry">
            <mxPoint x="610" y="490" as="targetPoint" />
          </mxGeometry>
        </mxCell>
        <mxCell id="26HD88psSA1WqcQscgie-18" value="Customer" style="text;html=1;align=center;verticalAlign=middle;resizable=0;points=[];autosize=1;strokeColor=#d6b656;fillColor=#fff2cc;" vertex="1" parent="1">
          <mxGeometry x="450" y="438" width="80" height="30" as="geometry" />
        </mxCell>
        <mxCell id="26HD88psSA1WqcQscgie-23" value="" style="edgeStyle=orthogonalEdgeStyle;rounded=0;orthogonalLoop=1;jettySize=auto;html=1;" edge="1" parent="1" source="26HD88psSA1WqcQscgie-20" target="26HD88psSA1WqcQscgie-22">
          <mxGeometry relative="1" as="geometry" />
        </mxCell>
        <mxCell id="26HD88psSA1WqcQscgie-26" style="edgeStyle=orthogonalEdgeStyle;rounded=0;orthogonalLoop=1;jettySize=auto;html=1;" edge="1" parent="1" source="26HD88psSA1WqcQscgie-20" target="26HD88psSA1WqcQscgie-21">
          <mxGeometry relative="1" as="geometry" />
        </mxCell>
        <mxCell id="26HD88psSA1WqcQscgie-20" value="ticket" style="text;html=1;align=center;verticalAlign=middle;resizable=0;points=[];autosize=1;strokeColor=#82b366;fillColor=#d5e8d4;" vertex="1" parent="1">
          <mxGeometry x="595" y="498" width="50" height="30" as="geometry" />
        </mxCell>
        <mxCell id="26HD88psSA1WqcQscgie-21" value="product" style="text;html=1;align=center;verticalAlign=middle;resizable=0;points=[];autosize=1;strokeColor=#d6b656;fillColor=#fff2cc;" vertex="1" parent="1">
          <mxGeometry x="440" y="578" width="60" height="30" as="geometry" />
        </mxCell>
        <mxCell id="26HD88psSA1WqcQscgie-25" value="" style="edgeStyle=orthogonalEdgeStyle;rounded=0;orthogonalLoop=1;jettySize=auto;html=1;" edge="1" parent="1" source="26HD88psSA1WqcQscgie-22" target="26HD88psSA1WqcQscgie-24">
          <mxGeometry relative="1" as="geometry" />
        </mxCell>
        <mxCell id="26HD88psSA1WqcQscgie-22" value="defect" style="text;html=1;align=center;verticalAlign=middle;resizable=0;points=[];autosize=1;strokeColor=#82b366;fillColor=#d5e8d4;" vertex="1" parent="1">
          <mxGeometry x="665" y="550" width="60" height="30" as="geometry" />
        </mxCell>
        <mxCell id="26HD88psSA1WqcQscgie-24" value="pro team" style="text;html=1;align=center;verticalAlign=middle;resizable=0;points=[];autosize=1;strokeColor=#82b366;fillColor=#d5e8d4;" vertex="1" parent="1">
          <mxGeometry x="660" y="630" width="70" height="30" as="geometry" />
        </mxCell>
        <mxCell id="26HD88psSA1WqcQscgie-28" value="product" style="text;html=1;align=center;verticalAlign=middle;resizable=0;points=[];autosize=1;strokeColor=#d6b656;fillColor=#fff2cc;" vertex="1" parent="1">
          <mxGeometry x="270" y="578" width="60" height="30" as="geometry" />
        </mxCell>
        <mxCell id="26HD88psSA1WqcQscgie-29" style="edgeStyle=orthogonalEdgeStyle;rounded=0;orthogonalLoop=1;jettySize=auto;html=1;entryX=0;entryY=0.467;entryDx=0;entryDy=0;entryPerimeter=0;" edge="1" parent="1" source="26HD88psSA1WqcQscgie-28" target="26HD88psSA1WqcQscgie-21">
          <mxGeometry relative="1" as="geometry" />
        </mxCell>
        <mxCell id="26HD88psSA1WqcQscgie-32" style="edgeStyle=orthogonalEdgeStyle;rounded=0;orthogonalLoop=1;jettySize=auto;html=1;" edge="1" parent="1" source="26HD88psSA1WqcQscgie-31" target="26HD88psSA1WqcQscgie-18">
          <mxGeometry relative="1" as="geometry" />
        </mxCell>
        <mxCell id="26HD88psSA1WqcQscgie-31" value="customer" style="text;html=1;align=center;verticalAlign=middle;resizable=0;points=[];autosize=1;strokeColor=#d6b656;fillColor=#fff2cc;" vertex="1" parent="1">
          <mxGeometry x="265" y="438" width="70" height="30" as="geometry" />
        </mxCell>
        <mxCell id="26HD88psSA1WqcQscgie-33" value="" style="rounded=0;whiteSpace=wrap;html=1;fillColor=#f8cecc;strokeColor=#b85450;" vertex="1" parent="1">
          <mxGeometry x="335" y="378" width="120" height="60" as="geometry" />
        </mxCell>
        <mxCell id="26HD88psSA1WqcQscgie-34" value="Grpc Server" style="rounded=0;whiteSpace=wrap;html=1;" vertex="1" parent="1">
          <mxGeometry x="75" y="760" width="110" height="60" as="geometry" />
        </mxCell>
        <mxCell id="26HD88psSA1WqcQscgie-35" value="protobuff file" style="text;html=1;align=center;verticalAlign=middle;resizable=0;points=[];autosize=1;strokeColor=none;fillColor=none;" vertex="1" parent="1">
          <mxGeometry x="125" y="728" width="90" height="30" as="geometry" />
        </mxCell>
        <mxCell id="26HD88psSA1WqcQscgie-36" value="" style="rounded=0;whiteSpace=wrap;html=1;" vertex="1" parent="1">
          <mxGeometry x="450" y="680" width="120" height="60" as="geometry" />
        </mxCell>
        <mxCell id="26HD88psSA1WqcQscgie-37" value="" style="rounded=0;whiteSpace=wrap;html=1;" vertex="1" parent="1">
          <mxGeometry x="450" y="800" width="120" height="60" as="geometry" />
        </mxCell>
        <mxCell id="26HD88psSA1WqcQscgie-38" value="GRPC Client" style="text;html=1;align=center;verticalAlign=middle;resizable=0;points=[];autosize=1;strokeColor=none;fillColor=none;" vertex="1" parent="1">
          <mxGeometry x="485" y="638" width="90" height="30" as="geometry" />
        </mxCell>
        <mxCell id="26HD88psSA1WqcQscgie-43" style="edgeStyle=orthogonalEdgeStyle;rounded=0;orthogonalLoop=1;jettySize=auto;html=1;entryX=1;entryY=0.25;entryDx=0;entryDy=0;" edge="1" parent="1" source="26HD88psSA1WqcQscgie-39" target="26HD88psSA1WqcQscgie-34">
          <mxGeometry relative="1" as="geometry" />
        </mxCell>
        <mxCell id="26HD88psSA1WqcQscgie-39" value="gRPC Stub" style="rounded=0;whiteSpace=wrap;html=1;" vertex="1" parent="1">
          <mxGeometry x="380" y="695" width="120" height="30" as="geometry" />
        </mxCell>
        <mxCell id="26HD88psSA1WqcQscgie-44" style="edgeStyle=orthogonalEdgeStyle;rounded=0;orthogonalLoop=1;jettySize=auto;html=1;" edge="1" parent="1" source="26HD88psSA1WqcQscgie-40" target="26HD88psSA1WqcQscgie-34">
          <mxGeometry relative="1" as="geometry" />
        </mxCell>
        <mxCell id="26HD88psSA1WqcQscgie-40" value="gRPC Stub" style="rounded=0;whiteSpace=wrap;html=1;" vertex="1" parent="1">
          <mxGeometry x="390" y="815" width="120" height="30" as="geometry" />
        </mxCell>
        <mxCell id="26HD88psSA1WqcQscgie-48" style="edgeStyle=orthogonalEdgeStyle;rounded=0;orthogonalLoop=1;jettySize=auto;html=1;entryX=0;entryY=0.5;entryDx=0;entryDy=0;" edge="1" parent="1" source="26HD88psSA1WqcQscgie-45" target="26HD88psSA1WqcQscgie-47">
          <mxGeometry relative="1" as="geometry" />
        </mxCell>
        <mxCell id="26HD88psSA1WqcQscgie-45" value="Basket" style="rounded=0;whiteSpace=wrap;html=1;" vertex="1" parent="1">
          <mxGeometry x="40" y="910" width="120" height="60" as="geometry" />
        </mxCell>
        <mxCell id="26HD88psSA1WqcQscgie-46" value="Product" style="rounded=0;whiteSpace=wrap;html=1;" vertex="1" parent="1">
          <mxGeometry x="380" y="910" width="120" height="60" as="geometry" />
        </mxCell>
        <mxCell id="26HD88psSA1WqcQscgie-49" style="edgeStyle=orthogonalEdgeStyle;rounded=0;orthogonalLoop=1;jettySize=auto;html=1;entryX=0;entryY=0.5;entryDx=0;entryDy=0;" edge="1" parent="1" source="26HD88psSA1WqcQscgie-47" target="26HD88psSA1WqcQscgie-46">
          <mxGeometry relative="1" as="geometry" />
        </mxCell>
        <mxCell id="26HD88psSA1WqcQscgie-47" value="QUEUE" style="shape=process;whiteSpace=wrap;html=1;backgroundOutline=1;" vertex="1" parent="1">
          <mxGeometry x="200" y="1010" width="120" height="30" as="geometry" />
        </mxCell>
        <mxCell id="26HD88psSA1WqcQscgie-55" style="edgeStyle=orthogonalEdgeStyle;rounded=0;orthogonalLoop=1;jettySize=auto;html=1;entryX=1;entryY=0.25;entryDx=0;entryDy=0;" edge="1" parent="1" source="26HD88psSA1WqcQscgie-50" target="26HD88psSA1WqcQscgie-53">
          <mxGeometry relative="1" as="geometry" />
        </mxCell>
        <mxCell id="26HD88psSA1WqcQscgie-50" value="" style="rounded=0;whiteSpace=wrap;html=1;fillColor=#ffe6cc;strokeColor=#d79b00;" vertex="1" parent="1">
          <mxGeometry x="560" y="1100" width="120" height="50" as="geometry" />
        </mxCell>
        <mxCell id="26HD88psSA1WqcQscgie-56" style="edgeStyle=orthogonalEdgeStyle;rounded=0;orthogonalLoop=1;jettySize=auto;html=1;entryX=1;entryY=0.25;entryDx=0;entryDy=0;fillColor=#f8cecc;gradientColor=#ea6b66;strokeColor=#b85450;" edge="1" parent="1">
          <mxGeometry relative="1" as="geometry">
            <mxPoint x="620" y="1190" as="sourcePoint" />
            <mxPoint x="116.42857142857133" y="1092" as="targetPoint" />
            <Array as="points">
              <mxPoint x="620" y="1090" />
              <mxPoint x="116" y="1090" />
            </Array>
          </mxGeometry>
        </mxCell>
        <mxCell id="26HD88psSA1WqcQscgie-51" value="pg" style="rounded=0;whiteSpace=wrap;html=1;fillColor=#e6d0de;strokeColor=#996185;gradientColor=#d5739d;" vertex="1" parent="1">
          <mxGeometry x="560" y="1180" width="120" height="50" as="geometry" />
        </mxCell>
        <mxCell id="26HD88psSA1WqcQscgie-52" value="" style="rounded=0;whiteSpace=wrap;html=1;fillColor=#d5e8d4;strokeColor=#82b366;" vertex="1" parent="1">
          <mxGeometry x="560" y="1260" width="120" height="50" as="geometry" />
        </mxCell>
        <mxCell id="26HD88psSA1WqcQscgie-62" style="edgeStyle=orthogonalEdgeStyle;rounded=0;orthogonalLoop=1;jettySize=auto;html=1;entryX=1;entryY=0.75;entryDx=0;entryDy=0;fillColor=#f8cecc;gradientColor=#ea6b66;strokeColor=#b85450;" edge="1" parent="1" source="26HD88psSA1WqcQscgie-53" target="26HD88psSA1WqcQscgie-61">
          <mxGeometry relative="1" as="geometry">
            <Array as="points">
              <mxPoint x="425" y="1110" />
              <mxPoint x="116" y="1110" />
            </Array>
          </mxGeometry>
        </mxCell>
        <mxCell id="26HD88psSA1WqcQscgie-71" style="edgeStyle=orthogonalEdgeStyle;rounded=0;orthogonalLoop=1;jettySize=auto;html=1;entryX=0;entryY=0.5;entryDx=0;entryDy=0;" edge="1" parent="1" source="26HD88psSA1WqcQscgie-53" target="26HD88psSA1WqcQscgie-51">
          <mxGeometry relative="1" as="geometry" />
        </mxCell>
        <mxCell id="26HD88psSA1WqcQscgie-53" value="" style="rounded=0;whiteSpace=wrap;html=1;fillColor=#dae8fc;strokeColor=#6c8ebf;" vertex="1" parent="1">
          <mxGeometry x="365" y="1140" width="120" height="130" as="geometry" />
        </mxCell>
        <mxCell id="26HD88psSA1WqcQscgie-54" value="Service Discovery" style="text;html=1;align=center;verticalAlign=middle;resizable=0;points=[];autosize=1;strokeColor=none;fillColor=none;fontStyle=1" vertex="1" parent="1">
          <mxGeometry x="360" y="1040" width="120" height="30" as="geometry" />
        </mxCell>
        <mxCell id="26HD88psSA1WqcQscgie-57" style="edgeStyle=orthogonalEdgeStyle;rounded=0;orthogonalLoop=1;jettySize=auto;html=1;entryX=0.975;entryY=0.708;entryDx=0;entryDy=0;entryPerimeter=0;" edge="1" parent="1" source="26HD88psSA1WqcQscgie-52" target="26HD88psSA1WqcQscgie-53">
          <mxGeometry relative="1" as="geometry" />
        </mxCell>
        <mxCell id="26HD88psSA1WqcQscgie-58" value="Eureka" style="text;html=1;align=center;verticalAlign=middle;resizable=0;points=[];autosize=1;strokeColor=none;fillColor=none;" vertex="1" parent="1">
          <mxGeometry x="390" y="1288" width="60" height="30" as="geometry" />
        </mxCell>
        <mxCell id="26HD88psSA1WqcQscgie-59" value="Eureka server" style="text;html=1;align=center;verticalAlign=middle;resizable=0;points=[];autosize=1;strokeColor=none;fillColor=none;" vertex="1" parent="1">
          <mxGeometry x="375" y="1100" width="100" height="30" as="geometry" />
        </mxCell>
        <mxCell id="26HD88psSA1WqcQscgie-60" value="Eureka client" style="text;html=1;align=center;verticalAlign=middle;resizable=0;points=[];autosize=1;strokeColor=none;fillColor=none;" vertex="1" parent="1">
          <mxGeometry x="575" y="1058" width="90" height="30" as="geometry" />
        </mxCell>
        <mxCell id="26HD88psSA1WqcQscgie-61" value="Flipkart" style="shape=hexagon;perimeter=hexagonPerimeter2;whiteSpace=wrap;html=1;fixedSize=1;" vertex="1" parent="1">
          <mxGeometry x="5" y="1070" width="120" height="42" as="geometry" />
        </mxCell>
        <mxCell id="26HD88psSA1WqcQscgie-70" style="edgeStyle=orthogonalEdgeStyle;rounded=0;orthogonalLoop=1;jettySize=auto;html=1;" edge="1" parent="1" source="26HD88psSA1WqcQscgie-63">
          <mxGeometry relative="1" as="geometry">
            <mxPoint x="360" y="1200" as="targetPoint" />
          </mxGeometry>
        </mxCell>
        <mxCell id="26HD88psSA1WqcQscgie-73" style="edgeStyle=orthogonalEdgeStyle;rounded=0;orthogonalLoop=1;jettySize=auto;html=1;" edge="1" parent="1" source="26HD88psSA1WqcQscgie-63">
          <mxGeometry relative="1" as="geometry">
            <mxPoint x="80" y="1210" as="targetPoint" />
          </mxGeometry>
        </mxCell>
        <mxCell id="26HD88psSA1WqcQscgie-63" value="GATEKEEPR" style="rounded=0;whiteSpace=wrap;html=1;fillColor=#fff2cc;gradientColor=#ffd966;strokeColor=#d6b656;" vertex="1" parent="1">
          <mxGeometry x="200" y="1105" width="90" height="200" as="geometry" />
        </mxCell>
        <mxCell id="26HD88psSA1WqcQscgie-65" value="Routing purpose" style="text;html=1;align=center;verticalAlign=middle;resizable=0;points=[];autosize=1;strokeColor=none;fillColor=none;" vertex="1" parent="1">
          <mxGeometry x="220" y="1378" width="110" height="30" as="geometry" />
        </mxCell>
        <mxCell id="26HD88psSA1WqcQscgie-66" value="Security purpose" style="text;html=1;align=center;verticalAlign=middle;resizable=0;points=[];autosize=1;strokeColor=none;fillColor=none;" vertex="1" parent="1">
          <mxGeometry x="220" y="1400" width="110" height="30" as="geometry" />
        </mxCell>
        <mxCell id="26HD88psSA1WqcQscgie-67" value="Load balancer" style="text;html=1;align=center;verticalAlign=middle;resizable=0;points=[];autosize=1;strokeColor=none;fillColor=none;" vertex="1" parent="1">
          <mxGeometry x="220" y="1428" width="100" height="30" as="geometry" />
        </mxCell>
        <mxCell id="26HD88psSA1WqcQscgie-68" value="Logging&amp;nbsp;" style="text;html=1;align=center;verticalAlign=middle;resizable=0;points=[];autosize=1;strokeColor=none;fillColor=none;" vertex="1" parent="1">
          <mxGeometry x="220" y="1458" width="70" height="30" as="geometry" />
        </mxCell>
        <mxCell id="26HD88psSA1WqcQscgie-69" style="edgeStyle=orthogonalEdgeStyle;rounded=0;orthogonalLoop=1;jettySize=auto;html=1;entryX=0;entryY=0.425;entryDx=0;entryDy=0;entryPerimeter=0;" edge="1" parent="1" source="26HD88psSA1WqcQscgie-61" target="26HD88psSA1WqcQscgie-63">
          <mxGeometry relative="1" as="geometry" />
        </mxCell>
        <mxCell id="26HD88psSA1WqcQscgie-72" value="pg" style="rounded=0;whiteSpace=wrap;html=1;fillColor=#e6d0de;strokeColor=#996185;gradientColor=#d5739d;" vertex="1" parent="1">
          <mxGeometry x="580" y="1190" width="120" height="50" as="geometry" />
        </mxCell>
        <mxCell id="26HD88psSA1WqcQscgie-74" value="Zuul (integrated in spring cloud)" style="text;html=1;align=center;verticalAlign=middle;resizable=0;points=[];autosize=1;strokeColor=none;fillColor=none;" vertex="1" parent="1">
          <mxGeometry x="140" y="1310" width="190" height="30" as="geometry" />
        </mxCell>
        <mxCell id="26HD88psSA1WqcQscgie-76" style="edgeStyle=orthogonalEdgeStyle;rounded=0;orthogonalLoop=1;jettySize=auto;html=1;" edge="1" parent="1" source="26HD88psSA1WqcQscgie-75">
          <mxGeometry relative="1" as="geometry">
            <mxPoint x="310" y="1355" as="targetPoint" />
          </mxGeometry>
        </mxCell>
        <mxCell id="26HD88psSA1WqcQscgie-75" value="APIGEE" style="text;html=1;align=center;verticalAlign=middle;resizable=0;points=[];autosize=1;strokeColor=#996185;fillColor=#e6d0de;gradientColor=#d5739d;" vertex="1" parent="1">
          <mxGeometry x="150" y="1340" width="70" height="30" as="geometry" />
        </mxCell>
      </root>
    </mxGraphModel>
  </diagram>
</mxfile>
